/* XPM */
static char * graphite_icon_xpm[] = {
"64 42 512 2",
"  	c None",
". 	c #0E0E89",
"+ 	c #161596",
"@ 	c #1716A4",
"# 	c #131386",
"$ 	c #0E0B88",
"% 	c #0A0A8E",
"& 	c #0B0A8F",
"* 	c #0C0CA4",
"= 	c #0F0EBC",
"- 	c #0E0ED1",
"; 	c #1211EB",
"> 	c #0E12F0",
", 	c #1013F1",
"' 	c #1113F2",
") 	c #1010E8",
"! 	c #1110A8",
"~ 	c #0C0CA9",
"{ 	c #0F0DAF",
"] 	c #0D0EBA",
"^ 	c #0E0EC9",
"/ 	c #1110D9",
"( 	c #1112E3",
"_ 	c #1212EF",
": 	c #1015F7",
"< 	c #1412F9",
"[ 	c #1014F6",
"} 	c #1311F6",
"| 	c #1312F4",
"1 	c #1112F4",
"2 	c #1212F4",
"3 	c #1411F4",
"4 	c #0D0DB6",
"5 	c #1110E4",
"6 	c #1213F6",
"7 	c #1311F5",
"8 	c #1113F3",
"9 	c #1112F3",
"0 	c #1310F4",
"a 	c #1211F4",
"b 	c #1013F3",
"c 	c #1310F5",
"d 	c #1411F5",
"e 	c #1211F5",
"f 	c #1111F5",
"g 	c #1212E6",
"h 	c #0E0BA6",
"i 	c #0E0DC5",
"j 	c #1313F6",
"k 	c #1311F4",
"l 	c #110FF8",
"m 	c #120BFC",
"n 	c #1109FE",
"o 	c #1005FF",
"p 	c #1726D4",
"q 	c #1D54A6",
"r 	c #247D75",
"s 	c #1012E1",
"t 	c #1211F3",
"u 	c #110AFB",
"v 	c #0F09FF",
"w 	c #1309F5",
"x 	c #1621DB",
"y 	c #1A3FC0",
"z 	c #1C59A8",
"A 	c #20728B",
"B 	c #25926A",
"C 	c #2BB844",
"D 	c #30DA23",
"E 	c #36FF00",
"F 	c #35FF00",
"G 	c #35FE02",
"H 	c #34FC06",
"I 	c #34FA09",
"J 	c #2320A8",
"K 	c #0C0DB7",
"L 	c #1311F2",
"M 	c #0F14F3",
"N 	c #258A74",
"O 	c #31D520",
"P 	c #34FC05",
"Q 	c #34F807",
"R 	c #34F909",
"S 	c #34F60A",
"T 	c #33F50C",
"U 	c #34F40C",
"V 	c #34F60C",
"W 	c #33F50B",
"X 	c #34F50C",
"Y 	c #0D0CB9",
"Z 	c #0F11D7",
"` 	c #1212F5",
" .	c #1113F4",
"..	c #120CFA",
"+.	c #32E516",
"@.	c #34F60B",
"#.	c #33F60B",
"$.	c #31F90A",
"%.	c #2EFC0A",
"&.	c #2BFE0A",
"*.	c #28FF0A",
"=.	c #25FF09",
"-.	c #2EE20A",
";.	c #34F80C",
">.	c #0C0CBC",
",.	c #1212F1",
"'.	c #120EF8",
").	c #237C7D",
"!.	c #33FB07",
"~.	c #30F70D",
"{.	c #3DEC0E",
"].	c #4BDB11",
"^.	c #58CD13",
"/.	c #68BD18",
"(.	c #879C21",
"_.	c #A97A24",
":.	c #C16623",
"<.	c #E14829",
"[.	c #FF222C",
"}.	c #383611",
"|.	c #2BCD09",
"1.	c #0D0CAA",
"2.	c #0D0FC3",
"3.	c #1215F0",
"4.	c #33F20E",
"5.	c #5AC81A",
"6.	c #F3332D",
"7.	c #F0392B",
"8.	c #F2372C",
"9.	c #F4352C",
"0.	c #F6362D",
"a.	c #F6382D",
"b.	c #F6362B",
"c.	c #F6372E",
"d.	c #F6352D",
"e.	c #AF352A",
"f.	c #117602",
"g.	c #0D0EB9",
"h.	c #1211EE",
"i.	c #1213F3",
"j.	c #1410F6",
"k.	c #1A43BF",
"l.	c #C26427",
"m.	c #F6372D",
"n.	c #F5372C",
"o.	c #F5362C",
"p.	c #F7372C",
"q.	c #FC392E",
"r.	c #FE392F",
"s.	c #FB392E",
"t.	c #F5362D",
"u.	c #F5372D",
"v.	c #F9342E",
"w.	c #303E15",
"x.	c #2CCF0A",
"y.	c #0D0FB7",
"z.	c #0F0DC3",
"A.	c #1313F5",
"B.	c #1009FD",
"C.	c #2DC13C",
"D.	c #37F00C",
"E.	c #F1362B",
"F.	c #F1312B",
"G.	c #E8322A",
"H.	c #E03127",
"I.	c #D72D27",
"J.	c #C02721",
"K.	c #831C19",
"L.	c #601512",
"M.	c #931E18",
"N.	c #F7322C",
"O.	c #F83329",
"P.	c #BF3527",
"Q.	c #145F04",
"R.	c #33F40C",
"S.	c #0F0DB4",
"T.	c #1011DE",
"U.	c #1A3EC3",
"V.	c #32FF02",
"W.	c #A68121",
"X.	c #FD332D",
"Y.	c #731919",
"Z.	c #170708",
"`.	c #0E0600",
" +	c #070606",
".+	c #04061D",
"++	c #060634",
"@+	c #060952",
"#+	c #190B76",
"$+	c #270E81",
"%+	c #240F8E",
"&+	c #AA265A",
"*+	c #FA2F2B",
"=+	c #1F3907",
"-+	c #2BCE0A",
";+	c #AB2D26",
">+	c #231FAB",
",+	c #0C0CBE",
"'+	c #1210F4",
")+	c #1010F6",
"!+	c #28A35D",
"~+	c #32F60C",
"{+	c #EA392F",
"]+	c #CB2E26",
"^+	c #000507",
"/+	c #090965",
"(+	c #0D0CA8",
"_+	c #0D0EC0",
":+	c #0E0FCD",
"<+	c #1010DB",
"[+	c #1011E4",
"}+	c #1411FA",
"|+	c #1C12E3",
"1+	c #F53329",
"2+	c #CF2E25",
"3+	c #166005",
"4+	c #A31F1E",
"5+	c #C02420",
"6+	c #DD2D27",
"7+	c #0F0BAF",
"8+	c #1010DF",
"9+	c #0F05FF",
"0+	c #34F40B",
"a+	c #31F70B",
"b+	c #7FA91A",
"c+	c #F8342D",
"d+	c #FD3930",
"e+	c #6A1816",
"f+	c #050414",
"g+	c #0B0A8D",
"h+	c #1312F9",
"i+	c #611DA8",
"j+	c #F2372D",
"k+	c #236C0B",
"l+	c #27B808",
"m+	c #B62521",
"n+	c #E43129",
"o+	c #F1322B",
"p+	c #151557",
"q+	c #0D0FCD",
"r+	c #2BB849",
"s+	c #34F90F",
"t+	c #E54A2D",
"u+	c #E93228",
"v+	c #0E0805",
"w+	c #040239",
"x+	c #1111D2",
"y+	c #1013F4",
"z+	c #1014F3",
"A+	c #1B14F1",
"B+	c #A82528",
"C+	c #21B20C",
"D+	c #2EDD0C",
"E+	c #AA2320",
"F+	c #BA2622",
"G+	c #F2322C",
"H+	c #F6382E",
"I+	c #EA342E",
"J+	c #080868",
"K+	c #1212F8",
"L+	c #1410F5",
"M+	c #1A45BD",
"N+	c #35FD02",
"O+	c #86A129",
"P+	c #FD2B2A",
"Q+	c #D72C26",
"R+	c #26B50C",
"S+	c #328F2F",
"T+	c #0D1875",
"U+	c #120AFA",
"V+	c #111EE6",
"W+	c #1512E9",
"X+	c #1111EC",
"Y+	c #1412F4",
"Z+	c #120EFA",
"`+	c #0E5451",
" @	c #25B90B",
".@	c #33F20B",
"+@	c #841D1E",
"@@	c #CF2A25",
"#@	c #F6362E",
"$@	c #F6372C",
"%@	c #F23429",
"&@	c #07064A",
"*@	c #0D0FB8",
"=@	c #110BF8",
"-@	c #2BB74A",
";@	c #2CFD0A",
">@	c #DC4F2E",
",@	c #543120",
"'@	c #28B611",
")@	c #33EA0E",
"!@	c #33F00E",
"~@	c #32ED14",
"{@	c #429719",
"]@	c #0E09C2",
"^@	c #100ED6",
"/@	c #1213F4",
"(@	c #1818DB",
"_@	c #24BC09",
":@	c #2BD30C",
"<@	c #34F70B",
"[@	c #781717",
"}@	c #F3362C",
"|@	c #F4372D",
"1@	c #DB2C24",
"2@	c #090764",
"3@	c #1635D1",
"4@	c #32F60B",
"5@	c #67A625",
"6@	c #208816",
"7@	c #2AC80E",
"8@	c #38355F",
"9@	c #0A0EC2",
"0@	c #1310F3",
"a@	c #163885",
"b@	c #25BA0D",
"c@	c #32F00C",
"d@	c #5C1313",
"e@	c #E42D23",
"f@	c #F6342B",
"g@	c #141351",
"h@	c #0E0EBB",
"i@	c #120AFB",
"j@	c #2DC638",
"k@	c #34F70A",
"l@	c #32F80A",
"m@	c #26BC0C",
"n@	c #31E80D",
"o@	c #34F50B",
"p@	c #31DB0C",
"q@	c #1D0BA7",
"r@	c #0F0ED0",
"s@	c #130DF8",
"t@	c #208D06",
"u@	c #28C30D",
"v@	c #801412",
"w@	c #FD392E",
"x@	c #F5352C",
"y@	c #E83635",
"z@	c #09095B",
"A@	c #1114EF",
"B@	c #1311F3",
"C@	c #121CE4",
"D@	c #33F10B",
"E@	c #31EB0C",
"F@	c #33F40B",
"G@	c #33FC0B",
"H@	c #443E2B",
"I@	c #0B0BB6",
"J@	c #1112EE",
"K@	c #1212F0",
"L@	c #2041AA",
"M@	c #26BE07",
"N@	c #32EE0C",
"O@	c #33F30C",
"P@	c #551714",
"Q@	c #D22925",
"R@	c #F3332C",
"S@	c #050550",
"T@	c #0E0FBE",
"U@	c #1211F6",
"V@	c #2AB54A",
"W@	c #34F50A",
"X@	c #37D70A",
"Y@	c #2711A9",
"Z@	c #100FC3",
"`@	c #1212F7",
" #	c #1312FB",
".#	c #20833A",
"+#	c #27C40D",
"@#	c #7D1816",
"##	c #FA392E",
"$#	c #F5382D",
"%#	c #ED3731",
"&#	c #090952",
"*#	c #1013F0",
"=#	c #1413F5",
"-#	c #1620E3",
";#	c #31952D",
">#	c #0B0DB9",
",#	c #130FEA",
"'#	c #1212F3",
")#	c #100CCE",
"!#	c #23B703",
"~#	c #2EDE0B",
"{#	c #470E0E",
"]#	c #DF2A23",
"^#	c #F1342B",
"/#	c #040440",
"(#	c #0D0DB4",
"_#	c #1212F2",
":#	c #279866",
"<#	c #2DFC06",
"[#	c #441865",
"}#	c #0C0CBA",
"|#	c #1213F2",
"1#	c #1111F3",
"2#	c #1A6C32",
"3#	c #26C20B",
"4#	c #34F80B",
"5#	c #731011",
"6#	c #F6352B",
"7#	c #F7342B",
"8#	c #E03538",
"9#	c #080665",
"0#	c #1212F6",
"a#	c #1410F4",
"b#	c #1632C9",
"c#	c #2BC218",
"d#	c #229523",
"e#	c #32612E",
"f#	c #1508B3",
"g#	c #100FD9",
"h#	c #1312F5",
"i#	c #1319E1",
"j#	c #24B610",
"k#	c #2CD50B",
"l#	c #641F22",
"m#	c #D52F2A",
"n#	c #050744",
"o#	c #0C0B95",
"p#	c #1114F3",
"q#	c #1010C8",
"r#	c #0E0FD3",
"s#	c #0F11E9",
"t#	c #0F13F1",
"u#	c #1413F4",
"v#	c #1311F8",
"w#	c #11327B",
"x#	c #25B80D",
"y#	c #32F10B",
"z#	c #611612",
"A#	c #F3362D",
"B#	c #E12F27",
"C#	c #02055C",
"D#	c #1410F0",
"E#	c #1013F6",
"F#	c #120CE3",
"G#	c #23AD05",
"H#	c #2ACC0B",
"I#	c #34F70C",
"J#	c #4E0F11",
"K#	c #D02723",
"L#	c #F6352C",
"M#	c #F5362B",
"N#	c #F7302B",
"O#	c #A32623",
"P#	c #671B30",
"Q#	c #0C0EA6",
"R#	c #0F15F3",
"S#	c #184391",
"T#	c #26BD0C",
"U#	c #32EF0C",
"V#	c #701416",
"W#	c #FD372F",
"X#	c #F5372B",
"Y#	c #EE352C",
"Z#	c #EA3229",
"`#	c #130754",
" $	c #1012E4",
".$	c #0D14F4",
"+$	c #0E12F8",
"@$	c #0B14FA",
"#$	c #0611FD",
"$$	c #060FF9",
"%$	c #2C0FCD",
"&$	c #208923",
"*$	c #26BF0B",
"=$	c #4C1513",
"-$	c #BD2A23",
";$	c #F7372D",
">$	c #D22D2F",
",$	c #8E226D",
"'$	c #711C99",
")$	c #791E8C",
"!$	c #942477",
"~$	c #B5285E",
"{$	c #D82F41",
"]$	c #F83324",
"^$	c #A24E1E",
"/$	c #21BB0B",
"($	c #2FE30B",
"_$	c #681411",
":$	c #F9372E",
"<$	c #F5372F",
"[$	c #F6382C",
"}$	c #F4362C",
"|$	c #F4362D",
"1$	c #F03229",
"2$	c #E22E36",
"3$	c #E32D3A",
"4$	c #21BB0C",
"5$	c #2FE10B",
"6$	c #31ED0B",
"7$	c #4F1514",
"8$	c #AE211C",
"9$	c #F7352D",
"0$	c #F5362E",
"a$	c #F63329",
"b$	c #F5342B",
"c$	c #F4342A",
"d$	c #F5342D",
"e$	c #F3332B",
"f$	c #429D12",
"g$	c #29C00D",
"h$	c #32F50B",
"i$	c #BD241F",
"j$	c #F6342D",
"k$	c #DF322B",
"l$	c #D42B28",
"m$	c #DE342E",
"                                                                                                                                ",
"                                                                                                                                ",
"                                                                              . + @                                             ",
"                                                              # $ % & * = - ; > , ' )                                           ",
"                                                    ! ~ { ] ^ / ( _ : < [ } | 1 2 1 3                                           ",
"                                                    4 5 6 7 2 8 9 1 0 a 8 b c d e e f g                                         ",
"                                                  h i j a k 7 b 2 1 a e l m n o p q r                                           ",
"                                                  4 s t 2 u v w x y z A B C D E F G H I                                         ",
"                                                J K L M 1 N O P Q R S T U V V W X W U V                                         ",
"                                                Y Z `  ...+.@.T U X #.$.%.&.*.=.-.;.X X X                                       ",
"                                                >.,. .'.).!.~.{.].^./.(._.:.<.[.}.|.#.X X                                       ",
"                                              1.2.1 a 3.4.5.6.7.8.9.0.a.b.c.b.d.e.f.V U X X                                     ",
"                                              g.h.i.j.k.T l.m.n.m.o.p.q.r.s.t.u.v.w.x.V U V                                     ",
"                                            y.z.A.a B.C.D.E.F.G.H.I.J.K.L.M.N.F.O.P.Q.R.W X X                                   ",
"                                            S.T.c k U.V.W.X.Y.Z.`. +.+++@+#+$+%+&+*+=+-+V X V                                   ",
"                                    ;+    >+,+'+i.)+!+~+{+0.]+^+/+(+_+:+<+[+ .}+|+1+2+3+;.X X X                                 ",
"                                  4+5+6+  7+8+k 1 9+0+a+b+c+d+e+f+g+h+2 1 2 c 2 e i+j+k+l+X X X                                 ",
"                                  m+n+o+  p+q+d 9 l r+T s+t+t.u+v+w+x+a 1 y+2 z+1 A+B+C+D+U X X                                 ",
"                                E+F+G+H+I+  J+K+L+z+M+N+W O+P+Q+R+S+T+U+V+W+X+Y+ .Z+`+ @.@X V                                   ",
"                                +@@@#@$@%@  &@*@2 1 =@-@0+;@>@,@'@)@!@~@{@]@^@e /@(@_@:@<@X X                                   ",
"                                  [@}@#@|@1@  2@j b 7 3@S 4@5@6@7@<@T @.8@9@0@k h+a@b@c@T X U                                   ",
"                                  d@e@m.m.f@  g@h@d a i@j@k@l@m@n@o@@.p@q@r@ .k s@t@u@@.U X                                     ",
"                                    v@w@x@m.y@  z@A@b B@C@D@o@E@F@R.G@H@I@J@e K@L@M@N@@.X O@                                    ",
"                                    P@Q@H+o.R@  S@T@U@1 ` V@W@V X R.X@Y@Z@`@M  #.#+#V T U                                       ",
"                                      @###$#H+%#  &#*#8 =#-#F X X <@;#>#,#'# .)#!#~#R.X T                                       ",
"                                      {#]#u.H+^#  /#(#_#1 Z+:#R.;.<#[#}#|#L+1#2#3#4#U X                                         ",
"                                        5#6#u.7#8#  9#0#y+a#b#c#d#e#f#g#h#t i#j#k#V V U                                         ",
"                                        l#m#u.o.x@  n#o#y+p#U@q#r#s#t#u#| v#w#x#y#R.W                                           ",
"                                          z#A##@o.B#  C#D#2 8 E#} 2 a L+ .F#G#H#I#U U                                           ",
"                                          J#K#L#M#N#O#P#Q#6 k k | 1 b R#` S#T#U#X X U                                           ",
"                                            V#W#X#0.Y#Z#`# $ ..$+$@$#$$$%$&$*$F@T X                                             ",
"                                            =$-$0.t.M#;$>$,$'$)$!$~${$]$^$/$($T U U                                             ",
"                                              _$:$<$n.[$n.[$}$[$|$1$2$3$4$5$X 6$X                                               ",
"                                              7$8$9$0$o.[$|$a$b$c$d$e$f$g$T h$X                                                 ",
"                                                7$i$j$L#x@k$l$m$                                                                ",
"                                                                                                                                ",
"                                                                                                                                ",
"                                                                                                                                ",
"                                                                                                                                ",
"                                                                                                                                ",
"                                                                                                                                ",
"                                                                                                                                "};
