/* XPM */
static char * small_alice_logo_xpm[] = {
"146 48 65 1",
" 	c None",
".	c #000200",
"+	c #0D3E7D",
"@	c #2B497F",
"#	c #5053B6",
"$	c #415B94",
"%	c #156B79",
"&	c #1C7815",
"*	c #475AC8",
"=	c #35649A",
"-	c #0E784A",
";	c #0E7861",
">	c #1C8320",
",	c #2A7887",
"'	c #1C8069",
")	c #347698",
"!	c #5168DE",
"~	c #5E66ED",
"{	c #338633",
"]	c #586AEF",
"^	c #5370D0",
"/	c #556FD7",
"(	c #248C56",
"_	c #308960",
":	c #6274AA",
"<	c #437FA8",
"[	c #40848D",
"}	c #379529",
"|	c #4A83B3",
"1	c #797CC3",
"2	c #6788AF",
"3	c #5B9F58",
"4	c #7B86F3",
"5	c #43AE30",
"6	c #8289EA",
"7	c #49A6B9",
"8	c #52B04A",
"9	c #719BC1",
"0	c #48B373",
"a	c #4EB083",
"b	c #77A2A9",
"c	c #37B7AD",
"d	c #57C142",
"e	c #999DF3",
"f	c #9AA3DE",
"g	c #65BD85",
"h	c #55C388",
"i	c #46C7A9",
"j	c #63C858",
"k	c #92B1CE",
"l	c #57CF9F",
"m	c #65D54C",
"n	c #9ABDC6",
"o	c #8DC8AC",
"p	c #6FDF56",
"q	c #5ADEB9",
"r	c #A1D499",
"s	c #BEC5F5",
"t	c #76EC5A",
"u	c #66EC9E",
"v	c #5AECD2",
"w	c #85EE6C",
"x	c #73EAD2",
"y	c #8FED82",
"z	c #A9F08F",
"           r88883                                                                                                                                 ",
"          r8888>{                                                                               .                                                 ",
"         r8888>&{                                                                                                                                 ",
"         wppp5&&&3                                                                        .           .                                           ",
"        zttttd&&&{                                                                              .                                                 ",
"        wttttp>&&&            k9999999999999999992                                          .   .   .                                             ",
"        wttttt}&&&3          k2|||||||||||||||||=@                                           .     .                                              ",
"       ytttpttd&&&{         k2|||||||||||||||||=+@                                              .                                                 ",
"       wttmdttm>&&{ ooooo  k2|||^^^^^^^^^^^^^^^++:                                             ...                                                ",
"      zttt5}ptt5&&&aaaa_' k2||<)!~~~~~~~~~~~~~*+:                                     .  ..  .......  ..  .                                       ",
"      yttp}>mttd&&(aaa_;'k2||<%%!]]]]]]]]]]]]]*:                                              .....                                               ",
"      wttm>{yttp>0qiia;;'|||<%%,eeeeeeeeeeeeeee                                                ...                                                ",
"     ywtt5&3zwtt}hvvvi;;,||<%%,                                          ..                   .. ..                                               ",
"     wttt}&3 wtt5hvvvi;,<|<%%,b       111111111111                       ...       ..       .             .......    ..........                   ",
"     wttp>{  yttmhvvvi,<|<%%%[       1###########@                      ....       ..      .        .   ....  ....   ..........                   ",
"    ytttd&{  zttpjhli7<|<%%%[       1###########+@                      ....       ..          ..      ...      ..   ..                           ",
"    wttp5&3   wtt5&_<||<%%%,       /**********#++@                     ..  ..      ..    .     ..     ..             ..                           ",
"    wttm}{grrrwttm_)||<%%%%b       ]~~~~~~~~~~*++@                     ..  ..      ..          ..     ..             ..                           ",
"   ytttd>}8888dtty7777%%%%[        ~~~~~~~~~~~*++@                     ..  ..      ..          ..    ...             ..                           ",
"   wttt5}88888jptuxxxc%%%%         ~~~~~~~~~~~*++@                    ..    ..     ..          ..    ..              ..........                   ",
"  ytttt5jjjjjjjptuvvvc%%%[         6666666!~~~*++@                    ..    ..     ..          ..    ..              ..........                   ",
"  wttttptttttttttuvvvc%%%[            ffff6~~~*++@                    ..    ...    ..          ..    ..              ..                           ",
"  wttttttttttttttuvvvc%%%b           f^###*~~~*++@                   ..      ..    ..          ..    ..              ..                           ",
" ztttttttttttttttuvvvc%%,           f#####*~~~*++@                   ..........    ..          ..     ..             ..                           ",
" wtttttttttttttttuvvvc%%,          f^#####*~~~*++@                  ............   ..          ..     ..             ..                           ",
" wtttpppwwwwwwwwwuvvvc%%[          ]]]]]]]~~~~*++@                  ..        ..   ..          ..     ...            ..                           ",
" tttm}>}        wuvvvc%%,          ~~~~~~~~~~~*++@                  ..        ..   ..          ..      ...      ..   ..                           ",
" tttm>&&        tuvvvc%%%          ~~~~~~~~~~~*++@                 ..          ..  ..........  ..       ..........   ..........                   ",
" tttm>&&        tuvvvc%%%          ]]]]]]]]~~~*++@                 ..          ..  ..........  ..         ......     ..........                   ",
" tttm>&&        tuvvvc%%,          ssssssse~~~*++@                                                                                                ",
" tttm>&&        yuvvvc%%,     k999999999991~~~*++@                                                                                                ",
" tttm>&{       gjuvvvc%%,    k2|||||||||||^~~~*++@                                                                                                ",
" tttm>{       g0juvvvc%%,   k|||||||||||||^~~~*++@                                                                                                ",
" tttm3       g00juvvvc%%%  k2|||^/////////!~~~*++@                                                                                                ",
" zzzz       g0000lvvvc%%%,92||))!~~~~~~~~~~~~~*++$                                                                                                ",
"           g000(-ivvvc%%%%)<))%%!~~~~~~~~~~~~~*+$                                                                                                 ",
"          g000(--ivvvc%%%%%%%%%%!~~~~~~~~~~~~~*$                                                                                                  ",
"         g000(--_ivvvc%%%%%%%%%[644444444444446                                                                             .                     ",
"        g000(---oxvvvc%%%%%%%%[n                                    ...                       .                        .    .         .   .       ",
"       g000(--_o xvvvc%%%%%%%[n                                    .  .                       ..                       .    .  .      .   .       ",
"      g0000(((aooxvvvc%%%%%%[n                                    ..     ...  ...  .....  ... .. .. .  .   ...  ...  ...    .     ... ... ..      ",
"     g00000000000lvvvc%%%%%[                                      .. .. .... .. .. . . . .... .  .  .. .     . .  . .. .    .  .  . . . . .       ",
"   og000000000000lvvvc%%%%[n                                       .  . .    .. .. . . . ..   .  .   ...   ... .  . .. .    .  .  . . . . .       ",
"   llhhhhhhhhhhhlqvvvc%%%[n                                        ....  ...  ...  . . .  ... .  .     .   ... .  .  ...    .. .  ... . . ..      ",
"   vvvvvvvvvvvvvvvvvvc%%[n                                                                            ..                            .             ",
"   vvvvvvvvvvvvvvvvvvc%,                                                                            ...                           ...             ",
"   vvvvvvvvvvvvvvvvvvc,                                                                                                                           ",
"   xxxxxxxxxxxxxxxxxxc                                                                                                                            "};
