/* XPM */
static char *small_graphite_logo[] = {
/* width height num_colors chars_per_pixel */
"    48    48       80            2",
/* colors */
".. c #060506",
".# c #1c820c",
".a c #0b0a90",
".b c #490606",
".c c #1b208f",
".d c #0b0cc8",
".e c #060653",
".f c #c72622",
".g c #4b035d",
".h c #250be9",
".i c #66090c",
".j c #eb3b2a",
".k c #a92520",
".l c #0913c9",
".m c #12148f",
".n c #111550",
".o c #f9292e",
".p c #27c40c",
".q c #2e0305",
".r c #a84340",
".s c #121fd0",
".t c #4b160f",
".u c #0b0db7",
".v c #0b0cf3",
".w c #661612",
".x c #0e150e",
".y c #07076e",
".z c #0b17f2",
".A c #eb3330",
".B c #ea3c37",
".C c #0b13b6",
".D c #f73222",
".E c #0a136f",
".F c #b92723",
".G c #050431",
".H c #25ad0d",
".I c #57150f",
".J c #d83d3a",
".K c #150bb5",
".L c #2716ce",
".M c #f5352c",
".N c #160df6",
".O c #15096f",
".P c #f83c36",
".Q c #150cce",
".R c #150b93",
".S c #580a0c",
".T c #1413f4",
".U c #b51817",
".V c #b74e48",
".W c #1614b5",
".X c #f2eae5",
".Y c #934e4d",
".Z c #141ff5",
".0 c #d93332",
".1 c #e81c20",
".2 c #fb2723",
".3 c #151834",
".4 c #2723af",
".5 c #33ed0c",
".6 c #98211b",
".7 c #34f60c",
".8 c #5a35b7",
".9 c #444268",
"#. c #d8f9e6",
"## c #24b90c",
"#a c #145704",
"#b c #34344e",
"#c c #4bb439",
"#d c #cb1b19",
"#e c None",
"#f c #6cd15f",
"#g c #21256c",
"#h c #57056e",
"#i c #bb0a0b",
"#j c #d83354",
"#k c #2516f4",
"#l c #f63a29",
"#m c #b83e80",
"#n c #37b522",
/* pixels */
"#e#e#e#e#e#e#e#e#e#e#e#e#e#e#e#e#e#e#e#e#e#e#e#e#e#e#e#e#e#e#e#e#e#e#e#e#e#e#e#e#e#e#e#e#e#e#e#e",
"#e#e#e#e#e#e#e#e#e#e#e#e#e#e#e#e#e#e#e#e#e#e#e#e#e#e#e#e#e#e#e#e#e#e#e#e#e#e#e#e#e#e#e#e#e#e#e#e",
"#e#e#e#e#e#e#e#e#e#e#e#e#e#e#e#e#e#e#e#e#e#e#e#e#e#e#e#e#e#e#e#e#e#e#e#e#e#e#e#e#e#e#e#e#e#e#e#e",
"#e#e#e#e#e#e#e#e#e#e#e#e#e#e#e#e#e#e#e#e#e#e#e#e#e#e#e#e#e#e#e#e#e#e#e#e#e#e#e#e#e#e#e#e#e#e#e#e",
"#e#e#e#e#e#e#e#e#e#e#e#e#e#e#e#e#e#e#e#e#e#e#e#e#e#e#e#e#e#e#e#e#e.G.a.a#e#e#e#e#e#e#e#e#e#e#e#e",
"#e#e#e#e#e#e#e#e#e#e#e#e#e#e#e#e#e#e#e#e#e#e#e#e#e.9.n.u.m.a.a.a.a.u.N.T.T#e#e#e#e#e#e#e#e#e#e#e",
"#e#e#e#e#e#e#e#e#e#e#e#e#e#e#e#e#e#e#e.n.a.a.a.a.a.a.W.v.z.z.T.z.T.N.T.z.N.T#e#e#e#e#e#e#e#e#e#e",
"#e#e#e#e#e#e#e#e#e#e#e#e#e#e#e#e.u.d.z.N.T.T.N.T.T.z.T.z.z.z.T.N.z.T.z.T.T.T.T#e#e#e#e#e#e#e#e#e",
"#e#e#e#e#e#e#e#e#e#e#e#e#e#e#e#e.d.C.z.T.z.z.T.N.T.T.N.z.T.N.N.z.T.z.z.T.z.N.T#e#e#e#e#e#e#e#e#e",
"#e#e#e#e#e#e#e#e#e#e#e#e#e#e#e.u.d.N.N.z.N.T.z.T.T.N.T.z.z.z.T.N.T.T.T.T.T.T.c#e#e#e#e#e#e#e#e#e",
"#e#e#e#e#e#e#e#e#e#e#e#e#e#e#e.u.l.T.N.T.z.z.T.T.T.T.z.T.l.z.T.7.7.5.7.7.7.7.7#e#e#e#e#e#e#e#e#e",
"#e#e#e#e#e#e#e#e#e#e#e#e#e#e.X.u.T.z.T.z.T.z.T.T.7.7.5.7.7.7.7.7.7.7.7.5.7.7.7#e#e#e#e#e#e#e#e#e",
"#e#e#e#e#e#e#e#e#e#e#e#e#e#e.d.Q.T.N.T.N.5.7.7.7.7.5.7.7.7.7.7.7.7.7.7.7.7.7.5.7#e#e#e#e#e#e#e#e",
"#e#e#e#e#e#e#e#e#e#e#e#e#e.e.K.N.N.z.T.N.7.7.7.5.7.7.7.7.7.7.7.7.7.5.5.7.7.5.7.5#e#e#e#e#e#e#e#e",
"#e#e#e#e#e#e#e#e#e#e#e#e#e.u.K.N.z.T.T.7.7.7.7.7.7.7.7.7#j.M.M.M.M.M.x#a.7.7.7.7.7#e#e#e#e#e#e#e",
"#e#e#e#e#e#e#e#e#e#e#e#e#e.d.Q.N.N.T.z.7.5.A.2.M.M.M.A#l.M#l.P.M.M.M.M#a.7.7.7.7.7#e#e#e#e#e#e#e",
"#e#e#e#e#e#e#e#e#e#e#e#e.K.d.T.T.T.T.7.7.7.M.M.M#l.M.P#l.M.M.M.P.P.M.M.S#a.7.7.7.7.7#e#e#e#e#e#e",
"#e#e#e#e#e#e#e#e#e#e#e#e.u.d.T.T.N.z.7.7.M.P.M.M.M.M.M.M#l.M.M#l.M.M#l.M#a.7.7.7.7.7#e#e#e#e#e#e",
"#e#e#e#e#e#e#e#e#e#e#e.d.d.T.z.z.z.4.7.7.D.B.P.M.D.B.........t.J.M.M.D.M.b#a.7.5.7.7.7#e#e#e#e#e",
"#e#e#e#e#e#e#e#e#e#e#e.u.K.v.T.z.T.7.5#l.M.M...........G.R.u.a.a.a.a.d.D.0#a.#.7.7.7.7.7#e#e#e#e",
"#e#e#e#e#e#e#e#e#e#e.u.d.N.z.z.N.v.7.7#l.M#l.....e.a.a.Q.T.v.T.N.T.T.T#m.M.J#a.7.7.7.5.7#e#e#e#e",
"#e#e#e#e#e.F.U.M#e#e.u.u.T.z.T.v.7.7.7#l.M.M.D.....y.T.T.T.T.N.z.N.N.z.T.M.M#.#a.7.7.7.5.7#e#e#e",
"#e#e#e#e#e.F#d.o#e#e.y.T.T.z.z.T.7.7.7.7.M.M.P.....e.T.N.N.T.T.T.z.N.z.N.8.D####.7.7.5.7.7#e#e#e",
"#e#e#e#e.U.F.M.M.D#e.e.G.N.T.z.z.N.7.7.7.M.M.D.M.....e.T.z.T.N.T.z.N.z.z.L...H.p.7.7.7.7#e#e#e#e",
"#e#e#e#e.F.U.M.P.o#e#e.e.N.z.T.N.z.7.5.7.7.M.o..###c.3.T#k.T.Q.N.Q.T.T.N.v####.7.5.7.7.7#e#e#e#e",
"#e#e#e.q.f.M.P.M.M.A#e#b.e.N.N.N.z.T.7.7.7.V.M#n##.7.7.7.7.7.s.K.T.z.z.N.N####.7.7.5.7#e#e#e#e#e",
"#e#e#e#e.S.o#l.P#l.M#e#e.e.T.N.N.N.T.7.7.5.7.k#n##.7.7.7.7.q.u.u.z.T.T.z####.7.7.7.7.7#e#e#e#e#e",
"#e#e#e#e#e.I.M.M#l.P#l#e#e.e.T.T.z.N.T.7.7.7..##.7.7.7.5.7.u.l.T.T.z.T.T####.7.7.7.7#e#e#e#e#e#e",
"#e#e#e#e#e.S.P.M#l.M#l.q#e.e.N.T.z.N.Z.7.7.7.7.p.7.7.7.7.x.u.Q.T.z.T.z#f##.7.7.7.7.5#e#e#e#e#e#e",
"#e#e#e#e#e#e.S.M.M.M.P.1#e#e.e.N.T.N.T.z.7.5.7.7.7.7.7.7.g.u.h.T.T.T.N####.7.7.7.7#e#e#e#e#e#e#e",
"#e#e#e#e#e#e.S.r.M.M.M.B.S#e.y.W.T.N.T.z#g.7.7.7.7.7.7...K.u.T.N.z.N..##.7.7.7.5.7#e#e#e#e#e#e#e",
"#e#e#e#e#e#e#e.I.M.M.P.M.M#e#e.e.z.T.N.z.T.7.5.7.7.5.5.L.W.N.z.z.T.T##.p.7.7.7.7#e#e#e#e#e#e#e#e",
"#e#e#e#e#e#e#e.i#i.M#l.M#l.J#e.e.a.T.T.T.T#k.7.5.7.7.7.u.u.T.N.T.N.x##.5.7.7.7.7#e#e#e#e#e#e#e#e",
"#e#e#e#e#e#e#e#e.t.A.M#l.M.M#e#e.y.T.z.N.N.T.7.7.5.7.f.K.Q.T.N.T.v####.7.7.7.7#e#e#e#e#e#e#e#e#e",
"#e#e#e#e#e#e#e#e.t.I#l.M.M#l.o#e.O.y.z.z.N.N.l.R.a.a.a.a.T.z.z.T.y####.7.7.7.7#e#e#e#e#e#e#e#e#e",
"#e#e#e#e#e#e#e#e#e.S.j.M.P#l.M#e#e.E.z.T.z.T.z.T.T.T.T.T.T.T.z.T####.7.7.7.7.7#e#e#e#e#e#e#e#e#e",
"#e#e#e#e#e#e#e#e#e#e.w#l.M#l.M.D#e.e.e.T.z.z.z.T.N.N.N.N.z.T.z.h##.p.7.7.5.7#e#e#e#e#e#e#e#e#e#e",
"#e#e#e#e#e#e#e#e#e#e.i.2.M.P.M.o#e#e.e.v.N.N.T.N.N.N.z.T.z.N.T####.7.7.7.7.7#e#e#e#e#e#e#e#e#e#e",
"#e#e#e#e#e#e#e#e#e#e.q.I.D#l#l.o#l.6.Y.e.v.z.N.N.N.T.z.T.T.T.Z##.p.5.7.7.5#e#e#e#e#e#e#e#e#e#e#e",
"#e#e#e#e#e#e#e#e#e#e#e.t.B.M.M.M.M.P.2.E.z.T.T.N.N.z.T#h.o.D.p##.5.7.7.7.7#e#e#e#e#e#e#e#e#e#e#e",
"#e#e#e#e#e#e#e#e#e#e#e#e.i.2.M.M.M#l#l.P.A.o.A.A#l.M.M.M.M.b####.7.7.7.7#e#e#e#e#e#e#e#e#e#e#e#e",
"#e#e#e#e#e#e#e#e#e#e#e#e.i.0.M.P#l#l.P.M.M.M.o#l.2.M.D.M#l####.7.7.7.7.7#e#e#e#e#e#e#e#e#e#e#e#e",
"#e#e#e#e#e#e#e#e#e#e#e#e#e.I.2.M.M.M.M.M.M.A.2.b#e#e#e#e#e#e##.7#e#e#e#e#e#e#e#e#e#e#e#e#e#e#e#e",
"#e#e#e#e#e#e#e#e#e#e#e#e#e#e.w.P.b#e#e#e#e#e#e#e#e#e#e#e#e#e#e#e#e#e#e#e#e#e#e#e#e#e#e#e#e#e#e#e",
"#e#e#e#e#e#e#e#e#e#e#e#e#e#e#e#e#e#e#e#e#e#e#e#e#e#e#e#e#e#e#e#e#e#e#e#e#e#e#e#e#e#e#e#e#e#e#e#e",
"#e#e#e#e#e#e#e#e#e#e#e#e#e#e#e#e#e#e#e#e#e#e#e#e#e#e#e#e#e#e#e#e#e#e#e#e#e#e#e#e#e#e#e#e#e#e#e#e",
"#e#e#e#e#e#e#e#e#e#e#e#e#e#e#e#e#e#e#e#e#e#e#e#e#e#e#e#e#e#e#e#e#e#e#e#e#e#e#e#e#e#e#e#e#e#e#e#e",
"#e#e#e#e#e#e#e#e#e#e#e#e#e#e#e#e#e#e#e#e#e#e#e#e#e#e#e#e#e#e#e#e#e#e#e#e#e#e#e#e#e#e#e#e#e#e#e#e"
};
