/* XPM */
static char * flip_xpm[] = {
"22 22 9 1",
" 	c None",
".	c #FFFFFF",
"+	c #000000",
"@	c #171717",
"#	c #676767",
"$	c #BCBCBC",
"%	c #090909",
"&	c #8F8F8F",
"*	c #F1F1F1",
"                      ",
"        ......        ",
"     ....++++....     ",
"    ..++@#$$#@++..    ",
"   ..+%&......&%+..   ",
"  ..+@*........*@+..  ",
"  .+%*..........*%+.  ",
"  .+&............&+.  ",
" ..@..............@.. ",
" .+#..+++++...++..#+. ",
" .+$.++..+++..++..++. ",
" .+$+++..++++....+++. ",
" .++++++++++++++++++. ",
" ..@+++++++++++++++.. ",
"  .++++++++++++++++.  ",
"  .+%++++++++++++++.  ",
"  ..++++++++++++++..  ",
"   ..+%++++++++%+..   ",
"    ..++@++++@++..    ",
"     ....++++....     ",
"        ......        ",
"                      "};
