/* XPM */
static char * flop_xpm[] = {
"22 22 9 1",
" 	c None",
".	c #FFFFFF",
"+	c #000000",
"@	c #171717",
"#	c #090909",
"$	c #BCBCBC",
"%	c #676767",
"&	c #8F8F8F",
"*	c #F1F1F1",
"                      ",
"        ......        ",
"     ....++++....     ",
"    ..++@++++@++..    ",
"   ..+#++++++++#+..   ",
"  ..++++++++++++++..  ",
"  .++++++++++++++#+.  ",
"  .++++++++++++++++.  ",
" ..+++++++++++++++@.. ",
" .++++++++++++++++++. ",
" .+++....++++..+++$+. ",
" .++..++..+++..++.$+. ",
" .+%..++...+++++..%+. ",
" ..@..............@.. ",
"  .+&............&+.  ",
"  .+#*..........*#+.  ",
"  ..+@*........*@+..  ",
"   ..+#&......&#+..   ",
"    ..++@%$$%@++..    ",
"     ....++++....     ",
"        ......        ",
"                      "};
