/* XPM */
static char * show_light_xpm[] = {
"16 16 67 1",
" 	c None",
".	c #EAB750",
"+	c #EBBB5A",
"@	c #ECBC5B",
"#	c #EBB853",
"$	c #E4BA66",
"%	c #EDD39D",
"&	c #F6E7C7",
"*	c #F9EDD6",
"=	c #F7E7C8",
"-	c #EDD39E",
";	c #E7BD67",
">	c #E8BE6C",
",	c #F6E3BF",
"'	c #FCF6E9",
")	c #FEFBF6",
"!	c #FEFDFA",
"~	c #E9BF6D",
"{	c #EAB956",
"]	c #EFD7A7",
"^	c #FCF7EC",
"/	c #FEFDFC",
"(	c #FEFDFB",
"_	c #F0D8A8",
":	c #EBB957",
"<	c #ECBD5D",
"[	c #F8EACE",
"}	c #FEFCF8",
"|	c #FFFEFD",
"1	c #FEFCF9",
"2	c #F8EACF",
"3	c #EDBC5D",
"4	c #EBBA57",
"5	c #EFD7A8",
"6	c #FDF7EC",
"7	c #FDF7ED",
"8	c #F0D9A8",
"9	c #EDBB58",
"0	c #E7BE6C",
"a	c #FCF6EA",
"b	c #FEFBF7",
"c	c #F6E4C0",
"d	c #E7BF6E",
"e	c #DBB363",
"f	c #ECD29D",
"g	c #FAEDD6",
"h	c #F7E8C9",
"i	c #D9B161",
"j	c #4E3B15",
"k	c #E1BB6C",
"l	c #E4B451",
"m	c #E4B34F",
"n	c #E1AF49",
"o	c #C89935",
"p	c #4D3B14",
"q	c #1C1606",
"r	c #DBC79A",
"s	c #AF7C0E",
"t	c #AE7C0D",
"u	c #191203",
"v	c #000000",
"w	c #CFB98B",
"x	c #B98718",
"y	c #BC850A",
"z	c #755306",
"A	c #080500",
"B	c #050300",
"                ",
"      .+@+#     ",
"     $%&*=-;    ",
"    >,')!)',~   ",
"   {]^!///(^_:  ",
"   <[}//||/123  ",
"   <21/||||123  ",
"   456(/||/789  ",
"    0,ab(bacd   ",
"     ef=gh%i    ",
"     jklmnop    ",
"      qrstuq    ",
"     vwxyyzv    ",
"      vABBv     ",
"       vvv      ",
"                "};
