/* XPM */
static char * no_icon_xpm[] = {
"24 25 2 1",
" 	c #FFFF00000000",
".	c None",
"     ..............     ",
"      ............      ",
"       ..........       ",
"        ........        ",
"         ......         ",
".         ....         .",
"..         ..         ..",
"...                  ...",
"....                ....",
".....              .....",
"......            ......",
".......          .......",
".......          .......",
"......            ......",
".....              .....",
"....                ....",
"...                  ...",
"..         ..         ..",
".         ....         .",
"         ......         ",
"        ........        ",
"       ..........       ",
"      ............      ",
"     ..............     ",
"    ................    "};
