/* XPM */
static char * show_colormap_xpm[] = {
"22 22 22 1",
" 	c None",
".	c #000000",
"+	c #FFFFFF",
"@	c #F6F6F6",
"#	c #D3D3D3",
"$	c #BAAEC1",
"%	c #A351CD",
"&	c #8A07DA",
"*	c #4B00EB",
"=	c #0908F3",
"-	c #00629B",
";	c #03E31A",
">	c #4BFE00",
",	c #D6FE00",
"'	c #FEEA00",
")	c #FFB700",
"!	c #FF8A00",
"~	c #FE3000",
"{	c #F00B02",
"]	c #B4360F",
"^	c #824F17",
"/	c #3F280B",
"   ...............+   ",
"   .+@@+@+@+@+....+   ",
"   .+########+.++++   ",
"   .+$$$$$$$$+.+      ",
"   .+%%%%%%%%+.+      ",
"   .+&&&&&&&&+.+      ",
"   .+********+.+      ",
"   .+========+.+      ",
"   .+--------+.+      ",
"   .+;;;;;;;;+.++++   ",
"   .+>>>>>>>>+....+   ",
"   .+,,,,,,,,+....+   ",
"   .+''''''''+....+   ",
"   .+))))))))+.++++   ",
"   .+!!!!!!!!+.+      ",
"   .+~~~~~~~~+.+      ",
"   .+{{{{{{{{+.+      ",
"   .+]]]]]]]]+.+      ",
"   .+^^^^^^^^+.+      ",
"   .+////////+.++++   ",
"   .++++++++++....+   ",
"   ...............+   "};
