/* XPM */
static char * smooth_colormap_xpm[] = {
"22 22 85 1",
" 	c #272727",
".	c #363636",
"+	c #454545",
"@	c #575757",
"#	c #6A6A6A",
"$	c #7D7D7D",
"%	c #909090",
"&	c #9A9A9A",
"*	c #9C9C9C",
"=	c #9F9F9F",
"-	c #A2A2A2",
";	c #A5A5A5",
">	c #ACACAC",
",	c #B2B2B2",
"'	c #B7B7B7",
")	c #BEBEBE",
"!	c #C4C4C4",
"~	c #CFCFCF",
"{	c #DADADA",
"]	c #FFFFFF",
"^	c #C5C5C5",
"/	c #D4D4D4",
"(	c #FCFCFC",
"_	c #EAEAEA",
":	c #BFBFBF",
"<	c #CACACA",
"[	c #E7E7E7",
"}	c #B9B9B9",
"|	c #FEFEFE",
"1	c #B4B4B4",
"2	c #FDFDFD",
"3	c #E8E8E8",
"4	c #AEAEAE",
"5	c #FBFBFB",
"6	c #C9C9C9",
"7	c #A7A7A7",
"8	c #C6C6C6",
"9	c #C2C2C2",
"0	c #E6E6E6",
"a	c #A4A4A4",
"b	c #FAFAFA",
"c	c #C1C1C1",
"d	c #A1A1A1",
"e	c #C0C0C0",
"f	c #9E9E9E",
"g	c #AAAAAA",
"h	c #F9F9F9",
"i	c #A8A8A8",
"j	c #AFAFAF",
"k	c #929292",
"l	c #ADADAD",
"m	c #7F7F7F",
"n	c #A6A6A6",
"o	c #6C6C6C",
"p	c #8C8C8C",
"q	c #595959",
"r	c #818181",
"s	c #F7F7F7",
"t	c #A3A3A3",
"u	c #484848",
"v	c #646464",
"w	c #F6F6F6",
"x	c #9B9B9B",
"y	c #383838",
"z	c #F4F4F4",
"A	c #999999",
"B	c #2E2E2E",
"C	c #545454",
"D	c #F1F1F1",
"E	c #989898",
"F	c #626262",
"G	c #EEEEEE",
"H	c #262626",
"I	c #979797",
"J	c #F8F8F8",
"K	c #F0F0F0",
"L	c #171717",
"M	c #080808",
"N	c #EFEFEF",
"O	c #1B1B1B",
"P	c #030303",
"Q	c #020202",
"R	c #2B2B2B",
"S	c #050505",
"T	c #000000",
" .+@#$%&*=-;>,')!~{]]]",
" .+@#$%&*=-;>,')^/(]]_",
" .+@#$%&*=-;>,':<(]]_[",
" .+@#$%&*=-;>,}!(]|_[[",
" .+@#$%&*=-;>1)(223[[[",
" .+@#$%&*=-;4}52(6[[[[",
" .+@#$%&*=-7152(890[[[",
" .+@#$%&*=a4b2(8cc[[[[",
" .+@#$%&*d>b2(8cee[[[[",
" .+@#$%&fgh2(^ceee[[[[",
" .+@#$%*ih2bjeceee[[[[",
" .+@#$k;h2bl7eceee[[[[",
" .+@#m*h2bln;eceee[[[[",
" .+@oph2b>n;;eceee[[[[",
" .+qrs5bt;;;;eceee[[[[",
" .uvw5bdxa;;;eceee[[[[",
" yqz5bd&Aa;;;eceee[[[[",
"BCDhwfAEAa;;;eceee[[[[",
"FGhDHIEEAa;;;eceee[[[[",
"JsKLMIEEAa;;;eceee[[[[",
"5NOPQAEEAa;;;eceee[[[[",
"sRSTTAEEAa;;;eceee[[[["};
