/* XPM */
static char * black_blue_white_xpm[] = {
"32 16 32 1",
" 	c #000004",
".	c #00000C",
"+	c #000014",
"@	c #00001C",
"#	c #000024",
"$	c #00002C",
"%	c #000034",
"&	c #00003C",
"*	c #000044",
"=	c #01014C",
"-	c #010155",
";	c #01015D",
">	c #020266",
",	c #03036F",
"'	c #050578",
")	c #070782",
"!	c #09098D",
"~	c #0C0C98",
"{	c #1010A4",
"]	c #1515B1",
"^	c #1C1CBF",
"/	c #2323CE",
"(	c #2C2CDF",
"_	c #3737F2",
":	c #4343FF",
"<	c #5252FF",
"[	c #6464FF",
"}	c #7878FF",
"|	c #8F8FFF",
"1	c #AAAAFF",
"2	c #C9C9FF",
"3	c #ECECFF",
" .+@#$%&*=-;>,')!~{]^/(_:<[}|123",
" .+@#$%&*=-;>,')!~{]^/(_:<[}|123",
" .+@#$%&*=-;>,')!~{]^/(_:<[}|123",
" .+@#$%&*=-;>,')!~{]^/(_:<[}|123",
" .+@#$%&*=-;>,')!~{]^/(_:<[}|123",
" .+@#$%&*=-;>,')!~{]^/(_:<[}|123",
" .+@#$%&*=-;>,')!~{]^/(_:<[}|123",
" .+@#$%&*=-;>,')!~{]^/(_:<[}|123",
" .+@#$%&*=-;>,')!~{]^/(_:<[}|123",
" .+@#$%&*=-;>,')!~{]^/(_:<[}|123",
" .+@#$%&*=-;>,')!~{]^/(_:<[}|123",
" .+@#$%&*=-;>,')!~{]^/(_:<[}|123",
" .+@#$%&*=-;>,')!~{]^/(_:<[}|123",
" .+@#$%&*=-;>,')!~{]^/(_:<[}|123",
" .+@#$%&*=-;>,')!~{]^/(_:<[}|123",
" .+@#$%&*=-;>,')!~{]^/(_:<[}|123"};
