/* XPM */
static char * black_blue_white_xpm[] = {
"256 16 250 2",
"  	c #000000",
". 	c #000002",
"+ 	c #000003",
"@ 	c #000005",
"# 	c #000006",
"$ 	c #000008",
"% 	c #000009",
"& 	c #00000A",
"* 	c #00000B",
"= 	c #00000C",
"- 	c #00000D",
"; 	c #00000E",
"> 	c #00000F",
", 	c #000010",
"' 	c #000011",
") 	c #000012",
"! 	c #000013",
"~ 	c #000014",
"{ 	c #000015",
"] 	c #000016",
"^ 	c #000017",
"/ 	c #000018",
"( 	c #000019",
"_ 	c #00001A",
": 	c #00001B",
"< 	c #00001C",
"[ 	c #00001D",
"} 	c #00001E",
"| 	c #00001F",
"1 	c #000020",
"2 	c #000021",
"3 	c #000022",
"4 	c #000023",
"5 	c #000024",
"6 	c #000025",
"7 	c #000026",
"8 	c #000027",
"9 	c #000028",
"0 	c #000029",
"a 	c #00002A",
"b 	c #00002B",
"c 	c #00002C",
"d 	c #00002D",
"e 	c #00002E",
"f 	c #00002F",
"g 	c #000030",
"h 	c #000031",
"i 	c #000032",
"j 	c #000033",
"k 	c #000034",
"l 	c #000035",
"m 	c #000036",
"n 	c #000037",
"o 	c #000038",
"p 	c #000039",
"q 	c #00003A",
"r 	c #00003B",
"s 	c #00003C",
"t 	c #00003D",
"u 	c #00003F",
"v 	c #000040",
"w 	c #000042",
"x 	c #000043",
"y 	c #000045",
"z 	c #000047",
"A 	c #000048",
"B 	c #000049",
"C 	c #00004A",
"D 	c #00004B",
"E 	c #01014C",
"F 	c #01014D",
"G 	c #01014E",
"H 	c #01014F",
"I 	c #010150",
"J 	c #010151",
"K 	c #010152",
"L 	c #010153",
"M 	c #010154",
"N 	c #010155",
"O 	c #010156",
"P 	c #010157",
"Q 	c #010158",
"R 	c #010159",
"S 	c #01015A",
"T 	c #01015C",
"U 	c #01015D",
"V 	c #02025E",
"W 	c #02025F",
"X 	c #020260",
"Y 	c #020261",
"Z 	c #020262",
"` 	c #020263",
" .	c #020264",
"..	c #020265",
"+.	c #020266",
"@.	c #020268",
"#.	c #030369",
"$.	c #03036A",
"%.	c #03036B",
"&.	c #03036C",
"*.	c #03036D",
"=.	c #03036E",
"-.	c #030370",
";.	c #040471",
">.	c #040472",
",.	c #040473",
"'.	c #040474",
").	c #040475",
"!.	c #050577",
"~.	c #050578",
"{.	c #050579",
"].	c #05057A",
"^.	c #05057C",
"/.	c #06067D",
"(.	c #06067E",
"_.	c #06067F",
":.	c #060680",
"<.	c #070782",
"[.	c #070783",
"}.	c #070784",
"|.	c #070785",
"1.	c #080887",
"2.	c #080888",
"3.	c #080889",
"4.	c #09098B",
"5.	c #09098C",
"6.	c #09098D",
"7.	c #0A0A8F",
"8.	c #0A0A90",
"9.	c #0B0B91",
"0.	c #0B0B93",
"a.	c #0B0B94",
"b.	c #0C0C96",
"c.	c #0C0C97",
"d.	c #0D0D99",
"e.	c #0D0D9A",
"f.	c #0E0E9C",
"g.	c #0E0E9D",
"h.	c #0F0F9F",
"i.	c #0F0FA0",
"j.	c #1010A2",
"k.	c #1010A3",
"l.	c #1111A5",
"m.	c #1111A6",
"n.	c #1212A8",
"o.	c #1212A9",
"p.	c #1313AB",
"q.	c #1414AD",
"r.	c #1414AE",
"s.	c #1515B0",
"t.	c #1616B2",
"u.	c #1616B3",
"v.	c #1717B5",
"w.	c #1818B7",
"x.	c #1919B9",
"y.	c #1919BA",
"z.	c #1A1ABC",
"A.	c #1B1BBE",
"B.	c #1C1CC0",
"C.	c #1D1DC2",
"D.	c #1E1EC3",
"E.	c #1F1FC5",
"F.	c #1F1FC7",
"G.	c #2020C9",
"H.	c #2121CB",
"I.	c #2222CD",
"J.	c #2323CF",
"K.	c #2424D1",
"L.	c #2525D3",
"M.	c #2727D5",
"N.	c #2828D8",
"O.	c #2929DA",
"P.	c #2A2ADC",
"Q.	c #2B2BDE",
"R.	c #2C2CE0",
"S.	c #2E2EE2",
"T.	c #2F2FE5",
"U.	c #3030E7",
"V.	c #3131E9",
"W.	c #3333EC",
"X.	c #3434EE",
"Y.	c #3636F0",
"Z.	c #3737F3",
"`.	c #3939F5",
" +	c #3A3AF8",
".+	c #3C3CFA",
"++	c #3D3DFD",
"@+	c #3F3FFF",
"#+	c #4141FF",
"$+	c #4242FF",
"%+	c #4444FF",
"&+	c #4646FF",
"*+	c #4848FF",
"=+	c #4949FF",
"-+	c #4B4BFF",
";+	c #4D4DFF",
">+	c #4F4FFF",
",+	c #5151FF",
"'+	c #5353FF",
")+	c #5555FF",
"!+	c #5757FF",
"~+	c #5959FF",
"{+	c #5B5BFF",
"]+	c #5E5EFF",
"^+	c #6060FF",
"/+	c #6262FF",
"(+	c #6464FF",
"_+	c #6767FF",
":+	c #6969FF",
"<+	c #6C6CFF",
"[+	c #6E6EFF",
"}+	c #7171FF",
"|+	c #7474FF",
"1+	c #7676FF",
"2+	c #7979FF",
"3+	c #7C7CFF",
"4+	c #7F7FFF",
"5+	c #8181FF",
"6+	c #8484FF",
"7+	c #8787FF",
"8+	c #8A8AFF",
"9+	c #8D8DFF",
"0+	c #9090FF",
"a+	c #9494FF",
"b+	c #9797FF",
"c+	c #9A9AFF",
"d+	c #9E9EFF",
"e+	c #A1A1FF",
"f+	c #A4A4FF",
"g+	c #A8A8FF",
"h+	c #ABABFF",
"i+	c #AFAFFF",
"j+	c #B3B3FF",
"k+	c #B7B7FF",
"l+	c #BBBBFF",
"m+	c #BFBFFF",
"n+	c #C2C2FF",
"o+	c #C6C6FF",
"p+	c #CBCBFF",
"q+	c #CFCFFF",
"r+	c #D3D3FF",
"s+	c #D7D7FF",
"t+	c #DCDCFF",
"u+	c #E0E0FF",
"v+	c #E5E5FF",
"w+	c #E9E9FF",
"x+	c #EEEEFF",
"y+	c #F3F3FF",
"z+	c #F8F8FF",
"A+	c #FDFDFF",
"  . . + @ @ # $ $ % & * = - ; > , ' ) ! ~ { ] ^ / ( _ : < [ } | 1 2 3 4 5 6 7 8 9 0 a b c d e f g h i j k l m n o p q r s t u u v w w x y y z A B C D E F G H I J K L M N O P Q R S T U V W X Y Z `  ...+.@.#.$.%.&.*.=.-.;.>.,.'.).!.~.{.].^./.(._.:.<.[.}.|.1.2.3.4.5.6.7.8.9.0.a.b.c.d.e.f.g.h.i.j.k.l.m.n.o.p.q.r.s.t.u.v.w.x.y.z.A.B.C.D.E.F.G.H.I.J.K.L.M.N.O.P.Q.R.S.T.U.V.W.X.Y.Z.`. +.+++@+#+$+%+&+*+=+-+;+>+,+'+)+!+~+{+]+^+/+(+_+:+<+[+}+|+1+2+3+4+5+6+7+8+9+0+a+b+c+d+e+f+g+h+i+j+k+l+m+n+o+p+q+r+s+t+u+v+w+x+y+z+A+",
"  . . + @ @ # $ $ % & * = - ; > , ' ) ! ~ { ] ^ / ( _ : < [ } | 1 2 3 4 5 6 7 8 9 0 a b c d e f g h i j k l m n o p q r s t u u v w w x y y z A B C D E F G H I J K L M N O P Q R S T U V W X Y Z `  ...+.@.#.$.%.&.*.=.-.;.>.,.'.).!.~.{.].^./.(._.:.<.[.}.|.1.2.3.4.5.6.7.8.9.0.a.b.c.d.e.f.g.h.i.j.k.l.m.n.o.p.q.r.s.t.u.v.w.x.y.z.A.B.C.D.E.F.G.H.I.J.K.L.M.N.O.P.Q.R.S.T.U.V.W.X.Y.Z.`. +.+++@+#+$+%+&+*+=+-+;+>+,+'+)+!+~+{+]+^+/+(+_+:+<+[+}+|+1+2+3+4+5+6+7+8+9+0+a+b+c+d+e+f+g+h+i+j+k+l+m+n+o+p+q+r+s+t+u+v+w+x+y+z+A+",
"  . . + @ @ # $ $ % & * = - ; > , ' ) ! ~ { ] ^ / ( _ : < [ } | 1 2 3 4 5 6 7 8 9 0 a b c d e f g h i j k l m n o p q r s t u u v w w x y y z A B C D E F G H I J K L M N O P Q R S T U V W X Y Z `  ...+.@.#.$.%.&.*.=.-.;.>.,.'.).!.~.{.].^./.(._.:.<.[.}.|.1.2.3.4.5.6.7.8.9.0.a.b.c.d.e.f.g.h.i.j.k.l.m.n.o.p.q.r.s.t.u.v.w.x.y.z.A.B.C.D.E.F.G.H.I.J.K.L.M.N.O.P.Q.R.S.T.U.V.W.X.Y.Z.`. +.+++@+#+$+%+&+*+=+-+;+>+,+'+)+!+~+{+]+^+/+(+_+:+<+[+}+|+1+2+3+4+5+6+7+8+9+0+a+b+c+d+e+f+g+h+i+j+k+l+m+n+o+p+q+r+s+t+u+v+w+x+y+z+A+",
"  . . + @ @ # $ $ % & * = - ; > , ' ) ! ~ { ] ^ / ( _ : < [ } | 1 2 3 4 5 6 7 8 9 0 a b c d e f g h i j k l m n o p q r s t u u v w w x y y z A B C D E F G H I J K L M N O P Q R S T U V W X Y Z `  ...+.@.#.$.%.&.*.=.-.;.>.,.'.).!.~.{.].^./.(._.:.<.[.}.|.1.2.3.4.5.6.7.8.9.0.a.b.c.d.e.f.g.h.i.j.k.l.m.n.o.p.q.r.s.t.u.v.w.x.y.z.A.B.C.D.E.F.G.H.I.J.K.L.M.N.O.P.Q.R.S.T.U.V.W.X.Y.Z.`. +.+++@+#+$+%+&+*+=+-+;+>+,+'+)+!+~+{+]+^+/+(+_+:+<+[+}+|+1+2+3+4+5+6+7+8+9+0+a+b+c+d+e+f+g+h+i+j+k+l+m+n+o+p+q+r+s+t+u+v+w+x+y+z+A+",
"  . . + @ @ # $ $ % & * = - ; > , ' ) ! ~ { ] ^ / ( _ : < [ } | 1 2 3 4 5 6 7 8 9 0 a b c d e f g h i j k l m n o p q r s t u u v w w x y y z A B C D E F G H I J K L M N O P Q R S T U V W X Y Z `  ...+.@.#.$.%.&.*.=.-.;.>.,.'.).!.~.{.].^./.(._.:.<.[.}.|.1.2.3.4.5.6.7.8.9.0.a.b.c.d.e.f.g.h.i.j.k.l.m.n.o.p.q.r.s.t.u.v.w.x.y.z.A.B.C.D.E.F.G.H.I.J.K.L.M.N.O.P.Q.R.S.T.U.V.W.X.Y.Z.`. +.+++@+#+$+%+&+*+=+-+;+>+,+'+)+!+~+{+]+^+/+(+_+:+<+[+}+|+1+2+3+4+5+6+7+8+9+0+a+b+c+d+e+f+g+h+i+j+k+l+m+n+o+p+q+r+s+t+u+v+w+x+y+z+A+",
"  . . + @ @ # $ $ % & * = - ; > , ' ) ! ~ { ] ^ / ( _ : < [ } | 1 2 3 4 5 6 7 8 9 0 a b c d e f g h i j k l m n o p q r s t u u v w w x y y z A B C D E F G H I J K L M N O P Q R S T U V W X Y Z `  ...+.@.#.$.%.&.*.=.-.;.>.,.'.).!.~.{.].^./.(._.:.<.[.}.|.1.2.3.4.5.6.7.8.9.0.a.b.c.d.e.f.g.h.i.j.k.l.m.n.o.p.q.r.s.t.u.v.w.x.y.z.A.B.C.D.E.F.G.H.I.J.K.L.M.N.O.P.Q.R.S.T.U.V.W.X.Y.Z.`. +.+++@+#+$+%+&+*+=+-+;+>+,+'+)+!+~+{+]+^+/+(+_+:+<+[+}+|+1+2+3+4+5+6+7+8+9+0+a+b+c+d+e+f+g+h+i+j+k+l+m+n+o+p+q+r+s+t+u+v+w+x+y+z+A+",
"  . . + @ @ # $ $ % & * = - ; > , ' ) ! ~ { ] ^ / ( _ : < [ } | 1 2 3 4 5 6 7 8 9 0 a b c d e f g h i j k l m n o p q r s t u u v w w x y y z A B C D E F G H I J K L M N O P Q R S T U V W X Y Z `  ...+.@.#.$.%.&.*.=.-.;.>.,.'.).!.~.{.].^./.(._.:.<.[.}.|.1.2.3.4.5.6.7.8.9.0.a.b.c.d.e.f.g.h.i.j.k.l.m.n.o.p.q.r.s.t.u.v.w.x.y.z.A.B.C.D.E.F.G.H.I.J.K.L.M.N.O.P.Q.R.S.T.U.V.W.X.Y.Z.`. +.+++@+#+$+%+&+*+=+-+;+>+,+'+)+!+~+{+]+^+/+(+_+:+<+[+}+|+1+2+3+4+5+6+7+8+9+0+a+b+c+d+e+f+g+h+i+j+k+l+m+n+o+p+q+r+s+t+u+v+w+x+y+z+A+",
"  . . + @ @ # $ $ % & * = - ; > , ' ) ! ~ { ] ^ / ( _ : < [ } | 1 2 3 4 5 6 7 8 9 0 a b c d e f g h i j k l m n o p q r s t u u v w w x y y z A B C D E F G H I J K L M N O P Q R S T U V W X Y Z `  ...+.@.#.$.%.&.*.=.-.;.>.,.'.).!.~.{.].^./.(._.:.<.[.}.|.1.2.3.4.5.6.7.8.9.0.a.b.c.d.e.f.g.h.i.j.k.l.m.n.o.p.q.r.s.t.u.v.w.x.y.z.A.B.C.D.E.F.G.H.I.J.K.L.M.N.O.P.Q.R.S.T.U.V.W.X.Y.Z.`. +.+++@+#+$+%+&+*+=+-+;+>+,+'+)+!+~+{+]+^+/+(+_+:+<+[+}+|+1+2+3+4+5+6+7+8+9+0+a+b+c+d+e+f+g+h+i+j+k+l+m+n+o+p+q+r+s+t+u+v+w+x+y+z+A+",
"  . . + @ @ # $ $ % & * = - ; > , ' ) ! ~ { ] ^ / ( _ : < [ } | 1 2 3 4 5 6 7 8 9 0 a b c d e f g h i j k l m n o p q r s t u u v w w x y y z A B C D E F G H I J K L M N O P Q R S T U V W X Y Z `  ...+.@.#.$.%.&.*.=.-.;.>.,.'.).!.~.{.].^./.(._.:.<.[.}.|.1.2.3.4.5.6.7.8.9.0.a.b.c.d.e.f.g.h.i.j.k.l.m.n.o.p.q.r.s.t.u.v.w.x.y.z.A.B.C.D.E.F.G.H.I.J.K.L.M.N.O.P.Q.R.S.T.U.V.W.X.Y.Z.`. +.+++@+#+$+%+&+*+=+-+;+>+,+'+)+!+~+{+]+^+/+(+_+:+<+[+}+|+1+2+3+4+5+6+7+8+9+0+a+b+c+d+e+f+g+h+i+j+k+l+m+n+o+p+q+r+s+t+u+v+w+x+y+z+A+",
"  . . + @ @ # $ $ % & * = - ; > , ' ) ! ~ { ] ^ / ( _ : < [ } | 1 2 3 4 5 6 7 8 9 0 a b c d e f g h i j k l m n o p q r s t u u v w w x y y z A B C D E F G H I J K L M N O P Q R S T U V W X Y Z `  ...+.@.#.$.%.&.*.=.-.;.>.,.'.).!.~.{.].^./.(._.:.<.[.}.|.1.2.3.4.5.6.7.8.9.0.a.b.c.d.e.f.g.h.i.j.k.l.m.n.o.p.q.r.s.t.u.v.w.x.y.z.A.B.C.D.E.F.G.H.I.J.K.L.M.N.O.P.Q.R.S.T.U.V.W.X.Y.Z.`. +.+++@+#+$+%+&+*+=+-+;+>+,+'+)+!+~+{+]+^+/+(+_+:+<+[+}+|+1+2+3+4+5+6+7+8+9+0+a+b+c+d+e+f+g+h+i+j+k+l+m+n+o+p+q+r+s+t+u+v+w+x+y+z+A+",
"  . . + @ @ # $ $ % & * = - ; > , ' ) ! ~ { ] ^ / ( _ : < [ } | 1 2 3 4 5 6 7 8 9 0 a b c d e f g h i j k l m n o p q r s t u u v w w x y y z A B C D E F G H I J K L M N O P Q R S T U V W X Y Z `  ...+.@.#.$.%.&.*.=.-.;.>.,.'.).!.~.{.].^./.(._.:.<.[.}.|.1.2.3.4.5.6.7.8.9.0.a.b.c.d.e.f.g.h.i.j.k.l.m.n.o.p.q.r.s.t.u.v.w.x.y.z.A.B.C.D.E.F.G.H.I.J.K.L.M.N.O.P.Q.R.S.T.U.V.W.X.Y.Z.`. +.+++@+#+$+%+&+*+=+-+;+>+,+'+)+!+~+{+]+^+/+(+_+:+<+[+}+|+1+2+3+4+5+6+7+8+9+0+a+b+c+d+e+f+g+h+i+j+k+l+m+n+o+p+q+r+s+t+u+v+w+x+y+z+A+",
"  . . + @ @ # $ $ % & * = - ; > , ' ) ! ~ { ] ^ / ( _ : < [ } | 1 2 3 4 5 6 7 8 9 0 a b c d e f g h i j k l m n o p q r s t u u v w w x y y z A B C D E F G H I J K L M N O P Q R S T U V W X Y Z `  ...+.@.#.$.%.&.*.=.-.;.>.,.'.).!.~.{.].^./.(._.:.<.[.}.|.1.2.3.4.5.6.7.8.9.0.a.b.c.d.e.f.g.h.i.j.k.l.m.n.o.p.q.r.s.t.u.v.w.x.y.z.A.B.C.D.E.F.G.H.I.J.K.L.M.N.O.P.Q.R.S.T.U.V.W.X.Y.Z.`. +.+++@+#+$+%+&+*+=+-+;+>+,+'+)+!+~+{+]+^+/+(+_+:+<+[+}+|+1+2+3+4+5+6+7+8+9+0+a+b+c+d+e+f+g+h+i+j+k+l+m+n+o+p+q+r+s+t+u+v+w+x+y+z+A+",
"  . . + @ @ # $ $ % & * = - ; > , ' ) ! ~ { ] ^ / ( _ : < [ } | 1 2 3 4 5 6 7 8 9 0 a b c d e f g h i j k l m n o p q r s t u u v w w x y y z A B C D E F G H I J K L M N O P Q R S T U V W X Y Z `  ...+.@.#.$.%.&.*.=.-.;.>.,.'.).!.~.{.].^./.(._.:.<.[.}.|.1.2.3.4.5.6.7.8.9.0.a.b.c.d.e.f.g.h.i.j.k.l.m.n.o.p.q.r.s.t.u.v.w.x.y.z.A.B.C.D.E.F.G.H.I.J.K.L.M.N.O.P.Q.R.S.T.U.V.W.X.Y.Z.`. +.+++@+#+$+%+&+*+=+-+;+>+,+'+)+!+~+{+]+^+/+(+_+:+<+[+}+|+1+2+3+4+5+6+7+8+9+0+a+b+c+d+e+f+g+h+i+j+k+l+m+n+o+p+q+r+s+t+u+v+w+x+y+z+A+",
"  . . + @ @ # $ $ % & * = - ; > , ' ) ! ~ { ] ^ / ( _ : < [ } | 1 2 3 4 5 6 7 8 9 0 a b c d e f g h i j k l m n o p q r s t u u v w w x y y z A B C D E F G H I J K L M N O P Q R S T U V W X Y Z `  ...+.@.#.$.%.&.*.=.-.;.>.,.'.).!.~.{.].^./.(._.:.<.[.}.|.1.2.3.4.5.6.7.8.9.0.a.b.c.d.e.f.g.h.i.j.k.l.m.n.o.p.q.r.s.t.u.v.w.x.y.z.A.B.C.D.E.F.G.H.I.J.K.L.M.N.O.P.Q.R.S.T.U.V.W.X.Y.Z.`. +.+++@+#+$+%+&+*+=+-+;+>+,+'+)+!+~+{+]+^+/+(+_+:+<+[+}+|+1+2+3+4+5+6+7+8+9+0+a+b+c+d+e+f+g+h+i+j+k+l+m+n+o+p+q+r+s+t+u+v+w+x+y+z+A+",
"  . . + @ @ # $ $ % & * = - ; > , ' ) ! ~ { ] ^ / ( _ : < [ } | 1 2 3 4 5 6 7 8 9 0 a b c d e f g h i j k l m n o p q r s t u u v w w x y y z A B C D E F G H I J K L M N O P Q R S T U V W X Y Z `  ...+.@.#.$.%.&.*.=.-.;.>.,.'.).!.~.{.].^./.(._.:.<.[.}.|.1.2.3.4.5.6.7.8.9.0.a.b.c.d.e.f.g.h.i.j.k.l.m.n.o.p.q.r.s.t.u.v.w.x.y.z.A.B.C.D.E.F.G.H.I.J.K.L.M.N.O.P.Q.R.S.T.U.V.W.X.Y.Z.`. +.+++@+#+$+%+&+*+=+-+;+>+,+'+)+!+~+{+]+^+/+(+_+:+<+[+}+|+1+2+3+4+5+6+7+8+9+0+a+b+c+d+e+f+g+h+i+j+k+l+m+n+o+p+q+r+s+t+u+v+w+x+y+z+A+",
"  . . + @ @ # $ $ % & * = - ; > , ' ) ! ~ { ] ^ / ( _ : < [ } | 1 2 3 4 5 6 7 8 9 0 a b c d e f g h i j k l m n o p q r s t u u v w w x y y z A B C D E F G H I J K L M N O P Q R S T U V W X Y Z `  ...+.@.#.$.%.&.*.=.-.;.>.,.'.).!.~.{.].^./.(._.:.<.[.}.|.1.2.3.4.5.6.7.8.9.0.a.b.c.d.e.f.g.h.i.j.k.l.m.n.o.p.q.r.s.t.u.v.w.x.y.z.A.B.C.D.E.F.G.H.I.J.K.L.M.N.O.P.Q.R.S.T.U.V.W.X.Y.Z.`. +.+++@+#+$+%+&+*+=+-+;+>+,+'+)+!+~+{+]+^+/+(+_+:+<+[+}+|+1+2+3+4+5+6+7+8+9+0+a+b+c+d+e+f+g+h+i+j+k+l+m+n+o+p+q+r+s+t+u+v+w+x+y+z+A+"};
