/* XPM */
static char * blue_red_xpm[] = {
"32 16 4 1",
" 	c None",
".	c #000000",
"+	c #000000",
"@	c #FFFFFF",
"...............+@@@@@@@@@@@@@@@@",
"...............+@@@@@@@@@@@@@@@@",
"...............+@@@@@@@@@@@@@@@@",
"...............+@@@@@@@@@@@@@@@@",
"...............+@@@@@@@@@@@@@@@@",
"...............+@@@@@@@@@@@@@@@@",
"...............+@@@@@@@@@@@@@@@@",
"...............+@@@@@@@@@@@@@@@@",
"...............+@@@@@@@@@@@@@@@@",
"...............+@@@@@@@@@@@@@@@@",
"...............+@@@@@@@@@@@@@@@@",
"...............+@@@@@@@@@@@@@@@@",
"...............+@@@@@@@@@@@@@@@@",
"...............+@@@@@@@@@@@@@@@@",
"...............+@@@@@@@@@@@@@@@@",
"...............+@@@@@@@@@@@@@@@@"};
