/* XPM */
static char * blue_white_xpm[] = {
"32 16 31 1",
" 	c None",
".	c #0803F8",
"+	c #0B0AF8",
"@	c #1115F8",
"#	c #1B1CF8",
"$	c #2525F8",
"%	c #2F2FF8",
"&	c #3A37F8",
"*	c #423FF8",
"=	c #4649F8",
"-	c #4E53F8",
";	c #595DF8",
">	c #6364F8",
",	c #6D6DF8",
"'	c #7777F8",
")	c #827FF8",
"!	c #8A87F8",
"~	c #8E91F8",
"{	c #9699F8",
"]	c #A1A1F8",
"^	c #ABABF8",
"/	c #B5B4F8",
"(	c #BFBBF8",
"_	c #C4C5F8",
":	c #CBCEF8",
"<	c #D5D6F8",
"[	c #DFDFF8",
"}	c #E9E9F8",
"|	c #EEF1F8",
"1	c #F3F7F8",
"2	c #F8FCF8",
".+@#$%&*=-;>,')!~{]^/(_:<[}|1222",
".+@#$%&*=-;>,')!~{]^/(_:<[}|1222",
".+@#$%&*=-;>,')!~{]^/(_:<[}|1222",
".+@#$%&*=-;>,')!~{]^/(_:<[}|1222",
".+@#$%&*=-;>,')!~{]^/(_:<[}|1222",
".+@#$%&*=-;>,')!~{]^/(_:<[}|1222",
".+@#$%&*=-;>,')!~{]^/(_:<[}|1222",
".+@#$%&*=-;>,')!~{]^/(_:<[}|1222",
".+@#$%&*=-;>,')!~{]^/(_:<[}|1222",
".+@#$%&*=-;>,')!~{]^/(_:<[}|1222",
".+@#$%&*=-;>,')!~{]^/(_:<[}|1222",
".+@#$%&*=-;>,')!~{]^/(_:<[}|1222",
".+@#$%&*=-;>,')!~{]^/(_:<[}|1222",
".+@#$%&*=-;>,')!~{]^/(_:<[}|1222",
".+@#$%&*=-;>,')!~{]^/(_:<[}|1222",
".+@#$%&*=-;>,')!~{]^/(_:<[}|1222"};
