/* XPM */
static char * grayscale_xpm[] = {
"32 16 32 1",
" 	c #060606",
".	c #0E0E0E",
"+	c #171717",
"@	c #212121",
"#	c #2A2A2A",
"$	c #363636",
"%	c #414141",
"&	c #4C4C4C",
"*	c #565656",
"=	c #5E5E5E",
"-	c #676767",
";	c #6F6F6F",
">	c #777777",
",	c #808080",
"'	c #888888",
")	c #919191",
"!	c #9B9B9B",
"~	c #A5A5A5",
"{	c #AEAEAE",
"]	c #B8B8B8",
"^	c #C0C0C0",
"/	c #C7C7C7",
"(	c #CECECE",
"_	c #D5D5D5",
":	c #DCDCDC",
"<	c #E2E2E2",
"[	c #E7E7E7",
"}	c #EDEDED",
"|	c #F2F2F2",
"1	c #F6F6F6",
"2	c #F9F9F9",
"3	c #FDFDFD",
" .+@#$%&*=-;>,')!~{]^/(_:<[}|123",
" .+@#$%&*=-;>,')!~{]^/(_:<[}|123",
" .+@#$%&*=-;>,')!~{]^/(_:<[}|123",
" .+@#$%&*=-;>,')!~{]^/(_:<[}|123",
" .+@#$%&*=-;>,')!~{]^/(_:<[}|123",
" .+@#$%&*=-;>,')!~{]^/(_:<[}|123",
" .+@#$%&*=-;>,')!~{]^/(_:<[}|123",
" .+@#$%&*=-;>,')!~{]^/(_:<[}|123",
" .+@#$%&*=-;>,')!~{]^/(_:<[}|123",
" .+@#$%&*=-;>,')!~{]^/(_:<[}|123",
" .+@#$%&*=-;>,')!~{]^/(_:<[}|123",
" .+@#$%&*=-;>,')!~{]^/(_:<[}|123",
" .+@#$%&*=-;>,')!~{]^/(_:<[}|123",
" .+@#$%&*=-;>,')!~{]^/(_:<[}|123",
" .+@#$%&*=-;>,')!~{]^/(_:<[}|123",
" .+@#$%&*=-;>,')!~{]^/(_:<[}|123"};
