/* XPM */
static char * inferno_hr_xpm[] = {
"256 16 260 2",
"  	c #000001",
". 	c #000006",
"+ 	c #000007",
"@ 	c #010008",
"# 	c #01000B",
"$ 	c #01010E",
"% 	c #020210",
"& 	c #030212",
"* 	c #030213",
"= 	c #040315",
"- 	c #050317",
"; 	c #06041A",
"> 	c #07051C",
", 	c #08051E",
"' 	c #090520",
") 	c #0A0723",
"! 	c #0A0725",
"~ 	c #0C0727",
"{ 	c #0D0829",
"] 	c #0E082C",
"^ 	c #0F082E",
"/ 	c #110931",
"( 	c #120A33",
"_ 	c #130A35",
": 	c #150B38",
"< 	c #160A3A",
"[ 	c #180B3C",
"} 	c #190A3F",
"| 	c #1A0B41",
"1 	c #1C0C44",
"2 	c #1E0B46",
"3 	c #200C48",
"4 	c #210B4B",
"5 	c #230A4D",
"6 	c #250B4F",
"7 	c #260A51",
"8 	c #280B53",
"9 	c #2A0A55",
"0 	c #2C0957",
"a 	c #2D0959",
"b 	c #2E0A5B",
"c 	c #30095C",
"d 	c #32085D",
"e 	c #34095F",
"f 	c #360961",
"g 	c #370962",
"h 	c #3A0963",
"i 	c #3C0965",
"j 	c #3D0965",
"k 	c #3F0965",
"l 	c #400866",
"m 	c #420967",
"n 	c #440967",
"o 	c #450A68",
"p 	c #470A69",
"q 	c #490A69",
"r 	c #4A0B6A",
"s 	c #4B0B6A",
"t 	c #4D0C6B",
"u 	c #4F0D6C",
"v 	c #500D6B",
"w 	c #520D6C",
"x 	c #540E6D",
"y 	c #550E6C",
"z 	c #570F6D",
"A 	c #59106C",
"B 	c #5A106D",
"C 	c #5B116E",
"D 	c #5E126D",
"E 	c #5F126E",
"F 	c #60136E",
"G 	c #62136E",
"H 	c #63146E",
"I 	c #64156E",
"J 	c #66156E",
"K 	c #68166E",
"L 	c #6A176E",
"M 	c #6B176E",
"N 	c #6C176D",
"O 	c #6E176E",
"P 	c #70196E",
"Q 	c #71196C",
"R 	c #73196C",
"S 	c #751A6D",
"T 	c #761A6D",
"U 	c #781B6C",
"V 	c #791C6D",
"W 	c #7A1C6C",
"X 	c #7C1D6B",
"Y 	c #7D1D6C",
"Z 	c #7F1E6B",
"` 	c #801F6A",
" .	c #821F6B",
"..	c #85206A",
"+.	c #862169",
"@.	c #87206A",
"#.	c #882169",
"$.	c #8A2268",
"%.	c #8C2269",
"&.	c #8D2368",
"*.	c #8F2467",
"=.	c #912467",
"-.	c #932566",
";.	c #942566",
">.	c #952665",
",.	c #972764",
"'.	c #992764",
").	c #9A2863",
"!.	c #9C2962",
"~.	c #9D2863",
"{.	c #9F2962",
"].	c #A12B60",
"^.	c #A32B61",
"/.	c #A32B60",
"(.	c #A52C5E",
"_.	c #A62C5E",
":.	c #A82D5E",
"<.	c #AA2E5D",
"[.	c #AB2E5C",
"}.	c #AC2F5B",
"|.	c #AE305A",
"1.	c #B0315A",
"2.	c #B13159",
"3.	c #B33258",
"4.	c #B43357",
"5.	c #B53356",
"6.	c #B73455",
"7.	c #B93555",
"8.	c #BA3654",
"9.	c #BC3753",
"0.	c #BD3752",
"a.	c #BE3851",
"b.	c #C03950",
"c.	c #C13A4F",
"d.	c #C33B4E",
"e.	c #C43C4D",
"f.	c #C63D4C",
"g.	c #C73E4B",
"h.	c #C83E4A",
"i.	c #C93F49",
"j.	c #CB4048",
"k.	c #CC4147",
"l.	c #CE4347",
"m.	c #D04545",
"n.	c #D04543",
"o.	c #D04643",
"p.	c #D24841",
"q.	c #D34840",
"r.	c #D4483F",
"s.	c #D64A3E",
"t.	c #D74B3D",
"u.	c #D84C3C",
"v.	c #DA4E3A",
"w.	c #DB4F39",
"x.	c #DC5038",
"y.	c #DD5237",
"z.	c #DE5336",
"A.	c #DF5435",
"B.	c #E05633",
"C.	c #E25732",
"D.	c #E35831",
"E.	c #E45A30",
"F.	c #E55B2F",
"G.	c #E55C2D",
"H.	c #E65D2C",
"I.	c #E75F2B",
"J.	c #E8612A",
"K.	c #E96328",
"L.	c #EA6427",
"M.	c #EB6526",
"N.	c #EC6625",
"O.	c #EC6824",
"P.	c #ED6A23",
"Q.	c #EE6C21",
"R.	c #EF6C21",
"S.	c #F06E1F",
"T.	c #F06F1D",
"U.	c #F0711D",
"V.	c #F1741B",
"W.	c #F2751A",
"X.	c #F27719",
"Y.	c #F27817",
"Z.	c #F37A16",
"`.	c #F47C15",
" +	c #F57D14",
".+	c #F57F12",
"++	c #F58111",
"@+	c #F68210",
"#+	c #F7840E",
"$+	c #F7860D",
"%+	c #F8870C",
"&+	c #F7890A",
"*+	c #F88C08",
"=+	c #F98D07",
"-+	c #F88F08",
";+	c #F99006",
">+	c #FA9205",
",+	c #F99506",
"'+	c #FA9606",
")+	c #FB9706",
"!+	c #FA9A05",
"~+	c #FB9C06",
"{+	c #FB9D06",
"]+	c #FB9F07",
"^+	c #FBA108",
"/+	c #FBA309",
"(+	c #FBA50B",
"_+	c #FBA70C",
":+	c #FBA90D",
"<+	c #FBAB0F",
"[+	c #FBAD11",
"}+	c #FBAF13",
"|+	c #FBB015",
"1+	c #FBB217",
"2+	c #FBB419",
"3+	c #FAB61B",
"4+	c #FBB81D",
"5+	c #FABA1F",
"6+	c #F9BB21",
"7+	c #F9BD23",
"8+	c #FAC026",
"9+	c #F9C128",
"0+	c #F8C42B",
"a+	c #F9C62D",
"b+	c #F8C72F",
"c+	c #F7CA32",
"d+	c #F8CB36",
"e+	c #F7CE38",
"f+	c #F6D03B",
"g+	c #F6D23D",
"h+	c #F6D440",
"i+	c #F5D643",
"j+	c #F5D745",
"k+	c #F4D949",
"l+	c #F3DB4C",
"m+	c #F3DC50",
"n+	c #F2DE54",
"o+	c #F3E057",
"p+	c #F3E25A",
"q+	c #F1E45D",
"r+	c #F1E661",
"s+	c #F1E865",
"t+	c #F0E969",
"u+	c #F1EB6D",
"v+	c #F1EC70",
"w+	c #F1EE75",
"x+	c #F1F07A",
"y+	c #F0F17E",
"z+	c #F1F282",
"A+	c #F2F486",
"B+	c #F2F589",
"C+	c #F4F68E",
"D+	c #F5F891",
"E+	c #F6FA95",
"F+	c #F6FA99",
"G+	c #FCFFA0",
"H+	c #B83555",
"I+	c #F9C52D",
"J+	c #B43356",
"K+	c #F8C62F",
"  . + @ # $ % & * = - ; > , ' ) ! ~ { ] ^ / ( _ : < [ } | 1 2 3 4 5 6 7 8 9 0 a b c d e f g h i j k l m n o p q r s t u v w x y z A B C D E F G H I J K L M N O P Q R S T U V W X Y Z `  ...+.@.#.$.%.&.*.=.-.;.>.,.'.).!.~.{.].^./.(._.:.<.[.}.|.1.2.3.4.5.6.7.8.9.0.a.b.c.d.e.f.g.h.i.j.k.l.m.n.o.p.q.r.s.t.u.v.w.x.y.z.A.B.C.D.E.F.G.H.I.J.K.L.M.N.O.P.Q.R.S.T.U.V.W.X.Y.Z.`. +.+++@+#+$+%+&+*+=+-+;+>+,+'+)+!+~+{+]+^+/+(+_+:+<+[+}+|+1+2+3+4+5+6+7+8+9+0+a+b+c+d+e+f+g+h+i+j+k+l+m+n+o+p+q+r+s+t+u+v+w+x+y+z+A+B+C+D+E+F+G+",
"  . + @ # $ % & * = - ; > , ' ) ! ~ { ] ^ / ( _ : < [ } | 1 2 3 4 5 6 7 8 9 0 a b c d e f g h i j k l m n o p q r s t u v w x y z A B C D E F G H I J K L M N O P Q R S T U V W X Y Z `  ...+.@.#.$.%.&.*.=.-.;.>.,.'.).!.~.{.].^./.(._.:.<.[.}.|.1.2.3.4.5.6.H+8.9.0.a.b.c.d.e.f.g.h.i.j.k.l.m.n.o.p.q.r.s.t.u.v.w.x.y.z.A.B.C.D.E.F.G.H.I.J.K.L.M.N.O.P.Q.R.S.T.U.V.W.X.Y.Z.`. +.+++@+#+$+%+&+*+=+-+;+>+,+'+)+!+~+{+]+^+/+(+_+:+<+[+}+|+1+2+3+4+5+6+7+8+9+0+I+b+c+d+e+f+g+h+i+j+k+l+m+n+o+p+q+r+s+t+u+v+w+x+y+z+A+B+C+D+E+F+G+",
"  . + @ # $ % & * = - ; > , ' ) ! ~ { ] ^ / ( _ : < [ } | 1 2 3 4 5 6 7 8 9 0 a b c d e f g h i j k l m n o p q r s t u v w x y z A B C D E F G H I J K L M N O P Q R S T U V W X Y Z `  ...+.@.#.$.%.&.*.=.-.;.>.,.'.).!.~.{.].^./.(._.:.<.[.}.|.1.2.3.4.5.6.7.8.9.0.a.b.c.d.e.f.g.h.i.j.k.l.m.n.o.p.q.r.s.t.u.v.w.x.y.z.A.B.C.D.E.F.G.H.I.J.K.L.M.N.O.P.Q.R.S.T.U.V.W.X.Y.Z.`. +.+++@+#+$+%+&+*+=+-+;+>+,+'+)+!+~+{+]+^+/+(+_+:+<+[+}+|+1+2+3+4+5+6+7+8+9+0+a+b+c+d+e+f+g+h+i+j+k+l+m+n+o+p+q+r+s+t+u+v+w+x+y+z+A+B+C+D+E+F+G+",
"  . + @ # $ % & * = - ; > , ' ) ! ~ { ] ^ / ( _ : < [ } | 1 2 3 4 5 6 7 8 9 0 a b c d e f g h i j k l m n o p q r s t u v w x y z A B C D E F G H I J K L M N O P Q R S T U V W X Y Z `  ...+.@.#.$.%.&.*.=.-.;.>.,.'.).!.~.{.].^./.(._.:.<.[.}.|.1.2.3.4.5.6.7.8.9.0.a.b.c.d.e.f.g.h.i.j.k.l.m.n.o.p.q.r.s.t.u.v.w.x.y.z.A.B.C.D.E.F.G.H.I.J.K.L.M.N.O.P.Q.R.S.T.U.V.W.X.Y.Z.`. +.+++@+#+$+%+&+*+=+-+;+>+,+'+)+!+~+{+]+^+/+(+_+:+<+[+}+|+1+2+3+4+5+6+7+8+9+0+a+b+c+d+e+f+g+h+i+j+k+l+m+n+o+p+q+r+s+t+u+v+w+x+y+z+A+B+C+D+E+F+G+",
"  . + @ # $ % & * = - ; > , ' ) ! ~ { ] ^ / ( _ : < [ } | 1 2 3 4 5 6 7 8 9 0 a b c d e f g h i j k l m n o p q r s t u v w x y z A B C D E F G H I J K L M N O P Q R S T U V W X Y Z `  ...+.@.#.$.%.&.*.=.-.;.>.,.'.).!.~.{.].^./.(._.:.<.[.}.|.1.2.3.4.5.6.H+8.9.0.a.b.c.d.e.f.g.h.i.j.k.l.m.n.o.p.q.r.s.t.u.v.w.x.y.z.A.B.C.D.E.F.G.H.I.J.K.L.M.N.O.P.Q.R.S.T.U.V.W.X.Y.Z.`. +.+++@+#+$+%+&+*+=+-+;+>+,+'+)+!+~+{+]+^+/+(+_+:+<+[+}+|+1+2+3+4+5+6+7+8+9+0+I+b+c+d+e+f+g+h+i+j+k+l+m+n+o+p+q+r+s+t+u+v+w+x+y+z+A+B+C+D+E+F+G+",
"  . + @ # $ % & * = - ; > , ' ) ! ~ { ] ^ / ( _ : < [ } | 1 2 3 4 5 6 7 8 9 0 a b c d e f g h i j k l m n o p q r s t u v w x y z A B C D E F G H I J K L M N O P Q R S T U V W X Y Z `  ...+.@.#.$.%.&.*.=.-.;.>.,.'.).!.~.{.].^./.(._.:.<.[.}.|.1.2.3.4.5.6.H+8.9.0.a.b.c.d.e.f.g.h.i.j.k.l.m.n.o.p.q.r.s.t.u.v.w.x.y.z.A.B.C.D.E.F.G.H.I.J.K.L.M.N.O.P.Q.R.S.T.U.V.W.X.Y.Z.`. +.+++@+#+$+%+&+*+=+-+;+>+,+'+)+!+~+{+]+^+/+(+_+:+<+[+}+|+1+2+3+4+5+6+7+8+9+0+I+b+c+d+e+f+g+h+i+j+k+l+m+n+o+p+q+r+s+t+u+v+w+x+y+z+A+B+C+D+E+F+G+",
"  . + @ # $ % & * = - ; > , ' ) ! ~ { ] ^ / ( _ : < [ } | 1 2 3 4 5 6 7 8 9 0 a b c d e f g h i j k l m n o p q r s t u v w x y z A B C D E F G H I J K L M N O P Q R S T U V W X Y Z `  ...+.@.#.$.%.&.*.=.-.;.>.,.'.).!.~.{.].^./.(._.:.<.[.}.|.1.2.3.4.5.6.H+8.9.0.a.b.c.d.e.f.g.h.i.j.k.l.m.n.o.p.q.r.s.t.u.v.w.x.y.z.A.B.C.D.E.F.G.H.I.J.K.L.M.N.O.P.Q.R.S.T.U.V.W.X.Y.Z.`. +.+++@+#+$+%+&+*+=+-+;+>+,+'+)+!+~+{+]+^+/+(+_+:+<+[+}+|+1+2+3+4+5+6+7+8+9+0+I+b+c+d+e+f+g+h+i+j+k+l+m+n+o+p+q+r+s+t+u+v+w+x+y+z+A+B+C+D+E+F+G+",
"  . + @ # $ % & * = - ; > , ' ) ! ~ { ] ^ / ( _ : < [ } | 1 2 3 4 5 6 7 8 9 0 a b c d e f g h i j k l m n o p q r s t u v w x y z A B C D E F G H I J K L M N O P Q R S T U V W X Y Z `  ...+.@.#.$.%.&.*.=.-.;.>.,.'.).!.~.{.].^./.(._.:.<.[.}.|.1.2.3.4.5.6.H+8.9.0.a.b.c.d.e.f.g.h.i.j.k.l.m.n.o.p.q.r.s.t.u.v.w.x.y.z.A.B.C.D.E.F.G.H.I.J.K.L.M.N.O.P.Q.R.S.T.U.V.W.X.Y.Z.`. +.+++@+#+$+%+&+*+=+-+;+>+,+'+)+!+~+{+]+^+/+(+_+:+<+[+}+|+1+2+3+4+5+6+7+8+9+0+I+b+c+d+e+f+g+h+i+j+k+l+m+n+o+p+q+r+s+t+u+v+w+x+y+z+A+B+C+D+E+F+G+",
"  . + @ # $ % & * = - ; > , ' ) ! ~ { ] ^ / ( _ : < [ } | 1 2 3 4 5 6 7 8 9 0 a b c d e f g h i j k l m n o p q r s t u v w x y z A B C D E F G H I J K L M N O P Q R S T U V W X Y Z `  ...+.@.#.$.%.&.*.=.-.;.>.,.'.).!.~.{.].^./.(._.:.<.[.}.|.1.2.3.4.5.6.H+8.9.0.a.b.c.d.e.f.g.h.i.j.k.l.m.n.o.p.q.r.s.t.u.v.w.x.y.z.A.B.C.D.E.F.G.H.I.J.K.L.M.N.O.P.Q.R.S.T.U.V.W.X.Y.Z.`. +.+++@+#+$+%+&+*+=+-+;+>+,+'+)+!+~+{+]+^+/+(+_+:+<+[+}+|+1+2+3+4+5+6+7+8+9+0+I+b+c+d+e+f+g+h+i+j+k+l+m+n+o+p+q+r+s+t+u+v+w+x+y+z+A+B+C+D+E+F+G+",
"  . + @ # $ % & * = - ; > , ' ) ! ~ { ] ^ / ( _ : < [ } | 1 2 3 4 5 6 7 8 9 0 a b c d e f g h i j k l m n o p q r s t u v w x y z A B C D E F G H I J K L M N O P Q R S T U V W X Y Z `  ...+.@.#.$.%.&.*.=.-.;.>.,.'.).!.~.{.].^./.(._.:.<.[.}.|.1.2.3.4.J+6.7.8.9.0.a.b.c.d.e.f.g.h.i.j.k.l.m.n.o.p.q.r.s.t.u.v.w.x.y.z.A.B.C.D.E.F.G.H.I.J.K.L.M.N.O.P.Q.R.S.T.U.V.W.X.Y.Z.`. +.+++@+#+$+%+&+*+=+-+;+>+,+'+)+!+~+{+]+^+/+(+_+:+<+[+}+|+1+2+3+4+5+6+7+8+9+0+a+K+c+d+e+f+g+h+i+j+k+l+m+n+o+p+q+r+s+t+u+v+w+x+y+z+A+B+C+D+E+F+G+",
"  . + @ # $ % & * = - ; > , ' ) ! ~ { ] ^ / ( _ : < [ } | 1 2 3 4 5 6 7 8 9 0 a b c d e f g h i j k l m n o p q r s t u v w x y z A B C D E F G H I J K L M N O P Q R S T U V W X Y Z `  ...+.@.#.$.%.&.*.=.-.;.>.,.'.).!.~.{.].^./.(._.:.<.[.}.|.1.2.3.4.5.6.H+8.9.0.a.b.c.d.e.f.g.h.i.j.k.l.m.n.o.p.q.r.s.t.u.v.w.x.y.z.A.B.C.D.E.F.G.H.I.J.K.L.M.N.O.P.Q.R.S.T.U.V.W.X.Y.Z.`. +.+++@+#+$+%+&+*+=+-+;+>+,+'+)+!+~+{+]+^+/+(+_+:+<+[+}+|+1+2+3+4+5+6+7+8+9+0+I+b+c+d+e+f+g+h+i+j+k+l+m+n+o+p+q+r+s+t+u+v+w+x+y+z+A+B+C+D+E+F+G+",
"  . + @ # $ % & * = - ; > , ' ) ! ~ { ] ^ / ( _ : < [ } | 1 2 3 4 5 6 7 8 9 0 a b c d e f g h i j k l m n o p q r s t u v w x y z A B C D E F G H I J K L M N O P Q R S T U V W X Y Z `  ...+.@.#.$.%.&.*.=.-.;.>.,.'.).!.~.{.].^./.(._.:.<.[.}.|.1.2.3.4.5.6.H+8.9.0.a.b.c.d.e.f.g.h.i.j.k.l.m.n.o.p.q.r.s.t.u.v.w.x.y.z.A.B.C.D.E.F.G.H.I.J.K.L.M.N.O.P.Q.R.S.T.U.V.W.X.Y.Z.`. +.+++@+#+$+%+&+*+=+-+;+>+,+'+)+!+~+{+]+^+/+(+_+:+<+[+}+|+1+2+3+4+5+6+7+8+9+0+I+b+c+d+e+f+g+h+i+j+k+l+m+n+o+p+q+r+s+t+u+v+w+x+y+z+A+B+C+D+E+F+G+",
"  . + @ # $ % & * = - ; > , ' ) ! ~ { ] ^ / ( _ : < [ } | 1 2 3 4 5 6 7 8 9 0 a b c d e f g h i j k l m n o p q r s t u v w x y z A B C D E F G H I J K L M N O P Q R S T U V W X Y Z `  ...+.@.#.$.%.&.*.=.-.;.>.,.'.).!.~.{.].^./.(._.:.<.[.}.|.1.2.3.4.5.6.7.8.9.0.a.b.c.d.e.f.g.h.i.j.k.l.m.n.o.p.q.r.s.t.u.v.w.x.y.z.A.B.C.D.E.F.G.H.I.J.K.L.M.N.O.P.Q.R.S.T.U.V.W.X.Y.Z.`. +.+++@+#+$+%+&+*+=+-+;+>+,+'+)+!+~+{+]+^+/+(+_+:+<+[+}+|+1+2+3+4+5+6+7+8+9+0+a+b+c+d+e+f+g+h+i+j+k+l+m+n+o+p+q+r+s+t+u+v+w+x+y+z+A+B+C+D+E+F+G+",
"  . + @ # $ % & * = - ; > , ' ) ! ~ { ] ^ / ( _ : < [ } | 1 2 3 4 5 6 7 8 9 0 a b c d e f g h i j k l m n o p q r s t u v w x y z A B C D E F G H I J K L M N O P Q R S T U V W X Y Z `  ...+.@.#.$.%.&.*.=.-.;.>.,.'.).!.~.{.].^./.(._.:.<.[.}.|.1.2.3.4.5.6.7.8.9.0.a.b.c.d.e.f.g.h.i.j.k.l.m.n.o.p.q.r.s.t.u.v.w.x.y.z.A.B.C.D.E.F.G.H.I.J.K.L.M.N.O.P.Q.R.S.T.U.V.W.X.Y.Z.`. +.+++@+#+$+%+&+*+=+-+;+>+,+'+)+!+~+{+]+^+/+(+_+:+<+[+}+|+1+2+3+4+5+6+7+8+9+0+a+b+c+d+e+f+g+h+i+j+k+l+m+n+o+p+q+r+s+t+u+v+w+x+y+z+A+B+C+D+E+F+G+",
"  . + @ # $ % & * = - ; > , ' ) ! ~ { ] ^ / ( _ : < [ } | 1 2 3 4 5 6 7 8 9 0 a b c d e f g h i j k l m n o p q r s t u v w x y z A B C D E F G H I J K L M N O P Q R S T U V W X Y Z `  ...+.@.#.$.%.&.*.=.-.;.>.,.'.).!.~.{.].^./.(._.:.<.[.}.|.1.2.3.4.5.6.H+8.9.0.a.b.c.d.e.f.g.h.i.j.k.l.m.n.o.p.q.r.s.t.u.v.w.x.y.z.A.B.C.D.E.F.G.H.I.J.K.L.M.N.O.P.Q.R.S.T.U.V.W.X.Y.Z.`. +.+++@+#+$+%+&+*+=+-+;+>+,+'+)+!+~+{+]+^+/+(+_+:+<+[+}+|+1+2+3+4+5+6+7+8+9+0+I+b+c+d+e+f+g+h+i+j+k+l+m+n+o+p+q+r+s+t+u+v+w+x+y+z+A+B+C+D+E+F+G+",
"  . + @ # $ % & * = - ; > , ' ) ! ~ { ] ^ / ( _ : < [ } | 1 2 3 4 5 6 7 8 9 0 a b c d e f g h i j k l m n o p q r s t u v w x y z A B C D E F G H I J K L M N O P Q R S T U V W X Y Z `  ...+.@.#.$.%.&.*.=.-.;.>.,.'.).!.~.{.].^./.(._.:.<.[.}.|.1.2.3.4.5.6.7.8.9.0.a.b.c.d.e.f.g.h.i.j.k.l.m.n.o.p.q.r.s.t.u.v.w.x.y.z.A.B.C.D.E.F.G.H.I.J.K.L.M.N.O.P.Q.R.S.T.U.V.W.X.Y.Z.`. +.+++@+#+$+%+&+*+=+-+;+>+,+'+)+!+~+{+]+^+/+(+_+:+<+[+}+|+1+2+3+4+5+6+7+8+9+0+a+b+c+d+e+f+g+h+i+j+k+l+m+n+o+p+q+r+s+t+u+v+w+x+y+z+A+B+C+D+E+F+G+"};
