/* XPM */
static char * iso1_xpm[] = {
"32 16 3 1",
" 	c None",
".	c #FFFFFF",
"+	c #323232",
"...+.......+.......+.......+....",
"...+.......+.......+.......+....",
"...+.......+.......+.......+....",
"...+.......+.......+.......+....",
"...+.......+.......+.......+....",
"...+.......+.......+.......+....",
"...+.......+.......+.......+....",
"...+.......+.......+.......+....",
"...+.......+.......+.......+....",
"...+.......+.......+.......+....",
"...+.......+.......+.......+....",
"...+.......+.......+.......+....",
"...+.......+.......+.......+....",
"...+.......+.......+.......+....",
"...+.......+.......+.......+....",
"...+.......+.......+.......+...."};
