/* XPM */
static char * iso1_xpm[] = {
"32 16 2 1",
" 	c #FFFFFF",
".	c #323232",
"                              ..",
"                              ..",
"                              ..",
"                              ..",
"                              ..",
"                              ..",
"                              ..",
"                              ..",
"                              ..",
"                              ..",
"                              ..",
"                              ..",
"                              ..",
"                              ..",
"                              ..",
"                              .."};
