/* XPM */
static char * iso2_xpm[] = {
"32 16 2 1",
" 	c #8C8C8C",
".	c #FFFFFF",
"                              ..",
"                              ..",
"                              ..",
"                              ..",
"                              ..",
"                              ..",
"                              ..",
"                              ..",
"                              ..",
"                              ..",
"                              ..",
"                              ..",
"                              ..",
"                              ..",
"                              ..",
"                              .."};
