/* XPM */
static char * iso2_xpm[] = {
"32 16 3 1",
" 	c None",
".	c #8C8C8C",
"+	c #FFFFFF",
"...+.......+.......+.......+....",
"...+.......+.......+.......+....",
"...+.......+.......+.......+....",
"...+.......+.......+.......+....",
"...+.......+.......+.......+....",
"...+.......+.......+.......+....",
"...+.......+.......+.......+....",
"...+.......+.......+.......+....",
"...+.......+.......+.......+....",
"...+.......+.......+.......+....",
"...+.......+.......+.......+....",
"...+.......+.......+.......+....",
"...+.......+.......+.......+....",
"...+.......+.......+.......+....",
"...+.......+.......+.......+....",
"...+.......+.......+.......+...."};
