/* XPM */
static char * magma_hr_xpm[] = {
"256 16 326 2",
"  	c #000001",
". 	c #000006",
"+ 	c #000007",
"@ 	c #010008",
"# 	c #01010B",
"$ 	c #01010D",
"% 	c #02020F",
"& 	c #030211",
"* 	c #030312",
"= 	c #040414",
"- 	c #050416",
"; 	c #060418",
"> 	c #07051A",
", 	c #08061C",
"' 	c #09071E",
") 	c #0A0721",
"! 	c #0A0723",
"~ 	c #0B0825",
"{ 	c #0C0927",
"] 	c #0D0A29",
"^ 	c #0E0A2B",
"/ 	c #0F0B2E",
"( 	c #100B30",
"_ 	c #110C32",
": 	c #130D35",
"< 	c #140D37",
"[ 	c #150D39",
"} 	c #160E3B",
"| 	c #170F3D",
"1 	c #190F40",
"2 	c #1A1042",
"3 	c #1B1045",
"4 	c #1D0F48",
"5 	c #1E104A",
"6 	c #1F114C",
"7 	c #21104F",
"8 	c #221151",
"9 	c #241154",
"0 	c #251156",
"a 	c #271057",
"b 	c #29115A",
"c 	c #2A105C",
"d 	c #2B105E",
"e 	c #2E0F61",
"f 	c #2F0F63",
"g 	c #301065",
"h 	c #331067",
"i 	c #350E68",
"j 	c #360E6B",
"k 	c #380F6D",
"l 	c #390F6E",
"m 	c #3B0F6F",
"n 	c #3C0F71",
"o 	c #3E0F72",
"p 	c #410F73",
"q 	c #420F74",
"r 	c #430F75",
"s 	c #450E76",
"t 	c #470F77",
"u 	c #481078",
"v 	c #4A0F78",
"w 	c #4B1079",
"x 	c #4D117A",
"y 	c #4F117A",
"z 	c #50127B",
"A 	c #52127C",
"B 	c #53127C",
"C 	c #55137D",
"D 	c #57147D",
"E 	c #58147E",
"F 	c #5A157E",
"G 	c #5C167D",
"H 	c #5D167E",
"I 	c #5E177F",
"J 	c #60187F",
"K 	c #61187E",
"L 	c #63197F",
"M 	c #651A80",
"N 	c #661A7F",
"O 	c #681A7F",
"P 	c #681C80",
"Q 	c #6A1C80",
"R 	c #6C1C7F",
"S 	c #6E1D80",
"T 	c #6F1D81",
"U 	c #711E80",
"V 	c #721F81",
"W 	c #731F81",
"X 	c #752081",
"Y 	c #762181",
"Z 	c #782181",
"` 	c #792281",
" .	c #7B2281",
"..	c #7E2381",
"+.	c #7F2481",
"@.	c #802481",
"#.	c #822581",
"$.	c #832681",
"%.	c #852581",
"&.	c #872781",
"*.	c #882880",
"=.	c #8A2781",
"-.	c #8C2880",
";.	c #8D297F",
">.	c #8E2980",
",.	c #902A80",
"'.	c #922A7F",
").	c #932B80",
"!.	c #952C7F",
"~.	c #962C7E",
"{.	c #982C7F",
"].	c #9A2D7F",
"^.	c #9B2D7F",
"/.	c #9D2D7E",
"(.	c #9F2E7E",
"_.	c #A02F7D",
":.	c #A12F7E",
"<.	c #A3307D",
"[.	c #A5307C",
"}.	c #A6307D",
"|.	c #A8317C",
"1.	c #AA327C",
"2.	c #AB327B",
"3.	c #AD337A",
"4.	c #AF347B",
"5.	c #B0347A",
"6.	c #B23579",
"7.	c #B43579",
"8.	c #B53579",
"9.	c #B73678",
"0.	c #B93778",
"a.	c #BA3777",
"b.	c #BC3876",
"c.	c #BE3876",
"d.	c #BF3975",
"e.	c #C13A74",
"f.	c #C23A74",
"g.	c #C33B73",
"h.	c #C53C73",
"i.	c #C63C72",
"j.	c #C83D71",
"k.	c #CA3D71",
"l.	c #CC3D71",
"m.	c #CE3F6F",
"n.	c #CE406F",
"o.	c #D0406E",
"p.	c #D1416C",
"q.	c #D3426C",
"r.	c #D5436D",
"s.	c #D6446B",
"t.	c #D7456A",
"u.	c #D8456A",
"v.	c #D94769",
"w.	c #DB4868",
"x.	c #DD4967",
"y.	c #DE4A66",
"z.	c #E04B66",
"A.	c #E14C65",
"B.	c #E24D64",
"C.	c #E44E64",
"D.	c #E55062",
"E.	c #E65161",
"F.	c #E75262",
"G.	c #E85460",
"H.	c #EA555F",
"I.	c #EB565F",
"J.	c #EC585E",
"K.	c #ED5A5E",
"L.	c #ED5B5D",
"M.	c #EE5C5C",
"N.	c #EF5E5D",
"O.	c #F0605C",
"P.	c #F1615B",
"Q.	c #F2635C",
"R.	c #F2655C",
"S.	c #F2665A",
"T.	c #F4675A",
"U.	c #F4695B",
"V.	c #F46C5B",
"W.	c #F56D5B",
"X.	c #F66F5B",
"Y.	c #F6715A",
"Z.	c #F7735B",
"`.	c #F7755C",
" +	c #F8765B",
".+	c #F8785B",
"++	c #F97A5C",
"@+	c #F97C5D",
"#+	c #F97E5D",
"$+	c #FA805D",
"%+	c #FA815E",
"&+	c #FA835F",
"*+	c #FB8660",
"=+	c #FB8761",
"-+	c #FA8961",
";+	c #FB8C62",
">+	c #FC8D63",
",+	c #FB9063",
"'+	c #FB9265",
")+	c #FC9366",
"!+	c #FC9566",
"~+	c #FD9667",
"{+	c #FC9869",
"]+	c #FD9A6A",
"^+	c #FD9C6B",
"/+	c #FD9E6C",
"(+	c #FDA06D",
"_+	c #FCA26F",
":+	c #FCA36F",
"<+	c #FDA570",
"[+	c #FDA772",
"}+	c #FEA973",
"|+	c #FDAB74",
"1+	c #FEAD76",
"2+	c #FEAE77",
"3+	c #FEAF78",
"4+	c #FEB279",
"5+	c #FEB47B",
"6+	c #FEB57C",
"7+	c #FEB77D",
"8+	c #FEBA7F",
"9+	c #FEBB80",
"0+	c #FEBD82",
"a+	c #FEBE84",
"b+	c #FEC085",
"c+	c #FEC387",
"d+	c #FEC588",
"e+	c #FEC68A",
"f+	c #FDC88C",
"g+	c #FECA8D",
"h+	c #FDCC8F",
"i+	c #FCCE91",
"j+	c #FDD093",
"k+	c #FDD194",
"l+	c #FDD295",
"m+	c #FDD497",
"n+	c #FDD699",
"o+	c #FDD89A",
"p+	c #FDDA9C",
"q+	c #FDDC9E",
"r+	c #FCDD9F",
"s+	c #FCDFA1",
"t+	c #FDE2A4",
"u+	c #FCE3A5",
"v+	c #FBE4A6",
"w+	c #FCE6A8",
"x+	c #FCE8AA",
"y+	c #FCEAAD",
"z+	c #FCEBAE",
"A+	c #FCEDAF",
"B+	c #FCEFB1",
"C+	c #FBF0B2",
"D+	c #FBF3B5",
"E+	c #FBF5B7",
"F+	c #FAF6B8",
"G+	c #FEFCBE",
"H+	c #681A80",
"I+	c #6A1C7F",
"J+	c #D4436D",
"K+	c #FEC488",
"L+	c #6E1D81",
"M+	c #FEBF85",
"N+	c #FEFBBD",
"O+	c #360E6A",
"P+	c #380F6C",
"Q+	c #3C0F70",
"R+	c #5D167D",
"S+	c #63197E",
"T+	c #641A7F",
"U+	c #671A7F",
"V+	c #681C7F",
"W+	c #6F1D80",
"X+	c #701E80",
"Y+	c #892781",
"Z+	c #8B2880",
"`+	c #8C297F",
" @	c #912A7F",
".@	c #932B7F",
"+@	c #942C7F",
"@@	c #982C7E",
"#@	c #9B2D7E",
"$@	c #9F2E7D",
"%@	c #A3307C",
"&@	c #A7317C",
"*@	c #BB3876",
"=@	c #BD3876",
"-@	c #C03A74",
";@	c #C43C73",
">@	c #CC3D70",
",@	c #CD3F6F",
"'@	c #ED5C5C",
")@	c #EE5E5D",
"!@	c #EF605C",
"~@	c #F0615B",
"{@	c #F1635C",
"]@	c #F2645C",
"^@	c #F3675A",
"/@	c #F66E5B",
"(@	c #F6705A",
"_@	c #F7725B",
":@	c #F7745C",
"<@	c #FB8F63",
"[@	c #FB9164",
"}@	c #FC9266",
"|@	c #FC9466",
"1@	c #FD9567",
"2@	c #FC9868",
"3@	c #FC9A69",
"4@	c #FD9C6A",
"5@	c #FD9E6B",
"6@	c #FCA16E",
"7@	c #FDA973",
"8@	c #FDAA74",
"9@	c #FEAC75",
"0@	c #FEB179",
"a@	c #FDC78C",
"b@	c #FEC98D",
"c@	c #FDCB8E",
"d@	c #FCCD90",
"e@	c #FDCF92",
"f@	c #FDD698",
"g@	c #FDDB9D",
"h@	c #FCE1A3",
"i@	c #FBE3A5",
"j@	c #FCE5A7",
"k@	c #FCEAAC",
"  . + @ # $ % & * = - ; > , ' ) ! ~ { ] ^ / ( _ : < [ } | 1 2 3 4 5 6 7 8 9 0 a b c d e f g h i j k l m n o p q r s t u v w x y z A B C D E F G H I J K L M N O P Q R S T U V W X Y Z `  ...+.@.#.$.%.&.*.=.-.;.>.,.'.).!.~.{.].^./.(._.:.<.[.}.|.1.2.3.4.5.6.7.8.9.0.a.b.c.d.e.f.g.h.i.j.k.l.m.n.o.p.q.r.s.t.u.v.w.x.y.z.A.B.C.D.E.F.G.H.I.J.K.L.M.N.O.P.Q.R.S.T.U.V.W.X.Y.Z.`. +.+++@+#+$+%+&+*+=+-+;+>+,+'+)+!+~+{+]+^+/+(+_+:+<+[+}+|+1+2+3+4+5+6+7+8+9+0+a+b+c+d+e+f+g+h+i+j+k+l+m+n+o+p+q+r+s+t+u+v+w+x+y+z+A+B+C+D+E+F+G+",
"  . + @ # $ % & * = - ; > , ' ) ! ~ { ] ^ / ( _ : < [ } | 1 2 3 4 5 6 7 8 9 0 a b c d e f g h i j k l m n o p q r s t u v w x y z A B C D E F G H I J K L M N H+P I+R S T U V W X Y Z `  ...+.@.#.$.%.&.*.=.-.;.>.,.'.).!.~.{.].^./.(._.:.<.[.}.|.1.2.3.4.5.6.7.8.9.0.a.b.c.d.e.f.g.h.i.j.k.l.m.n.o.p.q.J+s.t.u.v.w.x.y.z.A.B.C.D.E.F.G.H.I.J.K.L.M.N.O.P.Q.R.S.T.U.V.W.X.Y.Z.`. +.+++@+#+$+%+&+*+=+-+;+>+,+'+)+!+~+{+]+^+/+(+_+:+<+[+}+|+1+2+3+4+5+6+7+8+9+0+a+b+c+K+e+f+g+h+i+j+k+l+m+n+o+p+q+r+s+t+u+v+w+x+y+z+A+B+C+D+E+F+G+",
"  . + @ # $ % & * = - ; > , ' ) ! ~ { ] ^ / ( _ : < [ } | 1 2 3 4 5 6 7 8 9 0 a b c d e f g h i j k l m n o p q r s t u v w x y z A B C D E F G H I J K L M N O P I+R S T U V W X Y Z `  ...+.@.#.$.%.&.*.=.-.;.>.,.'.).!.~.{.].^./.(._.:.<.[.}.|.1.2.3.4.5.6.7.8.9.0.a.b.c.d.e.f.g.h.i.j.k.l.m.n.o.p.q.r.s.t.u.v.w.x.y.z.A.B.C.D.E.F.G.H.I.J.K.L.M.N.O.P.Q.R.S.T.U.V.W.X.Y.Z.`. +.+++@+#+$+%+&+*+=+-+;+>+,+'+)+!+~+{+]+^+/+(+_+:+<+[+}+|+1+2+3+4+5+6+7+8+9+0+a+b+c+d+e+f+g+h+i+j+k+l+m+n+o+p+q+r+s+t+u+v+w+x+y+z+A+B+C+D+E+F+G+",
"  . + @ # $ % & * = - ; > , ' ) ! ~ { ] ^ / ( _ : < [ } | 1 2 3 4 5 6 7 8 9 0 a b c d e f g h i j k l m n o p q r s t u v w x y z A B C D E F G H I J K L M N O P I+R S T U V W X Y Z `  ...+.@.#.$.%.&.*.=.-.;.>.,.'.).!.~.{.].^./.(._.:.<.[.}.|.1.2.3.4.5.6.7.8.9.0.a.b.c.d.e.f.g.h.i.j.k.l.m.n.o.p.q.r.s.t.u.v.w.x.y.z.A.B.C.D.E.F.G.H.I.J.K.L.M.N.O.P.Q.R.S.T.U.V.W.X.Y.Z.`. +.+++@+#+$+%+&+*+=+-+;+>+,+'+)+!+~+{+]+^+/+(+_+:+<+[+}+|+1+2+3+4+5+6+7+8+9+0+a+b+c+d+e+f+g+h+i+j+k+l+m+n+o+p+q+r+s+t+u+v+w+x+y+z+A+B+C+D+E+F+G+",
"  . + @ # $ % & * = - ; > , ' ) ! ~ { ] ^ / ( _ : < [ } | 1 2 3 4 5 6 7 8 9 0 a b c d e f g h i j k l m n o p q r s t u v w x y z A B C D E F G H I J K L M N H+P I+R S T U V W X Y Z `  ...+.@.#.$.%.&.*.=.-.;.>.,.'.).!.~.{.].^./.(._.:.<.[.}.|.1.2.3.4.5.6.7.8.9.0.a.b.c.d.e.f.g.h.i.j.k.l.m.n.o.p.q.J+s.t.u.v.w.x.y.z.A.B.C.D.E.F.G.H.I.J.K.L.M.N.O.P.Q.R.S.T.U.V.W.X.Y.Z.`. +.+++@+#+$+%+&+*+=+-+;+>+,+'+)+!+~+{+]+^+/+(+_+:+<+[+}+|+1+2+3+4+5+6+7+8+9+0+a+b+c+K+e+f+g+h+i+j+k+l+m+n+o+p+q+r+s+t+u+v+w+x+y+z+A+B+C+D+E+F+G+",
"  . + @ # $ % & * = - ; > , ' ) ! ~ { ] ^ / ( _ : < [ } | 1 2 3 4 5 6 7 8 9 0 a b c d e f g h i j k l m n o p q r s t u v w x y z A B C D E F G H I J K L M N O P I+R S T U V W X Y Z `  ...+.@.#.$.%.&.*.=.-.;.>.,.'.).!.~.{.].^./.(._.:.<.[.}.|.1.2.3.4.5.6.7.8.9.0.a.b.c.d.e.f.g.h.i.j.k.l.m.n.o.p.q.r.s.t.u.v.w.x.y.z.A.B.C.D.E.F.G.H.I.J.K.L.M.N.O.P.Q.R.S.T.U.V.W.X.Y.Z.`. +.+++@+#+$+%+&+*+=+-+;+>+,+'+)+!+~+{+]+^+/+(+_+:+<+[+}+|+1+2+3+4+5+6+7+8+9+0+a+b+c+K+e+f+g+h+i+j+k+l+m+n+o+p+q+r+s+t+u+v+w+x+y+z+A+B+C+D+E+F+G+",
"  . + @ # $ % & * = - ; > , ' ) ! ~ { ] ^ / ( _ : < [ } | 1 2 3 4 5 6 7 8 9 0 a b c d e f g h i j k l m n o p q r s t u v w x y z A B C D E F G H I J K L M N H+P I+R S T U V W X Y Z `  ...+.@.#.$.%.&.*.=.-.;.>.,.'.).!.~.{.].^./.(._.:.<.[.}.|.1.2.3.4.5.6.7.8.9.0.a.b.c.d.e.f.g.h.i.j.k.l.m.n.o.p.q.J+s.t.u.v.w.x.y.z.A.B.C.D.E.F.G.H.I.J.K.L.M.N.O.P.Q.R.S.T.U.V.W.X.Y.Z.`. +.+++@+#+$+%+&+*+=+-+;+>+,+'+)+!+~+{+]+^+/+(+_+:+<+[+}+|+1+2+3+4+5+6+7+8+9+0+a+b+c+K+e+f+g+h+i+j+k+l+m+n+o+p+q+r+s+t+u+v+w+x+y+z+A+B+C+D+E+F+G+",
"  . + @ # $ % & * = - ; > , ' ) ! ~ { ] ^ / ( _ : < [ } | 1 2 3 4 5 6 7 8 9 0 a b c d e f g h i j k l m n o p q r s t u v w x y z A B C D E F G H I J K L M N H+P I+R S T U V W X Y Z `  ...+.@.#.$.%.&.*.=.-.;.>.,.'.).!.~.{.].^./.(._.:.<.[.}.|.1.2.3.4.5.6.7.8.9.0.a.b.c.d.e.f.g.h.i.j.k.l.m.n.o.p.q.J+s.t.u.v.w.x.y.z.A.B.C.D.E.F.G.H.I.J.K.L.M.N.O.P.Q.R.S.T.U.V.W.X.Y.Z.`. +.+++@+#+$+%+&+*+=+-+;+>+,+'+)+!+~+{+]+^+/+(+_+:+<+[+}+|+1+2+3+4+5+6+7+8+9+0+a+b+c+K+e+f+g+h+i+j+k+l+m+n+o+p+q+r+s+t+u+v+w+x+y+z+A+B+C+D+E+F+G+",
"  . + @ # $ % & * = - ; > , ' ) ! ~ { ] ^ / ( _ : < [ } | 1 2 3 4 5 6 7 8 9 0 a b c d e f g h i j k l m n o p q r s t u v w x y z A B C D E F G H I J K L M N O P I+R L+T U V W X Y Z `  ...+.@.#.$.%.&.*.=.-.;.>.,.'.).!.~.{.].^./.(._.:.<.[.}.|.1.2.3.4.5.6.7.8.9.0.a.b.c.d.e.f.g.h.i.j.k.l.m.n.o.p.q.r.s.t.u.v.w.x.y.z.A.B.C.D.E.F.G.H.I.J.K.L.M.N.O.P.Q.R.S.T.U.V.W.X.Y.Z.`. +.+++@+#+$+%+&+*+=+-+;+>+,+'+)+!+~+{+]+^+/+(+_+:+<+[+}+|+1+2+3+4+5+6+7+8+9+0+a+M+c+d+e+f+g+h+i+j+k+l+m+n+o+p+q+r+s+t+u+v+w+x+y+z+A+B+C+D+E+F+N+",
"  . + @ # $ % & * = - ; > , ' ) ! ~ { ] ^ / ( _ : < [ } | 1 2 3 4 5 6 7 8 9 0 a b c d e f g h i j k l m n o p q r s t u v w x y z A B C D E F G H I J K L M N O P I+R L+T U V W X Y Z `  ...+.@.#.$.%.&.*.=.-.;.>.,.'.).!.~.{.].^./.(._.:.<.[.}.|.1.2.3.4.5.6.7.8.9.0.a.b.c.d.e.f.g.h.i.j.k.l.m.n.o.p.q.r.s.t.u.v.w.x.y.z.A.B.C.D.E.F.G.H.I.J.K.L.M.N.O.P.Q.R.S.T.U.V.W.X.Y.Z.`. +.+++@+#+$+%+&+*+=+-+;+>+,+'+)+!+~+{+]+^+/+(+_+:+<+[+}+|+1+2+3+4+5+6+7+8+9+0+a+b+c+K+e+f+g+h+i+j+k+l+m+n+o+p+q+r+s+t+u+v+w+x+y+z+A+B+C+D+E+F+G+",
"  . + @ # $ % & * = - ; > , ' ) ! ~ { ] ^ / ( _ : < [ } | 1 2 3 4 5 6 7 8 9 0 a b c d e f g h i j k l m n o p q r s t u v w x y z A B C D E F G H I J K L M N H+P I+R S T U V W X Y Z `  ...+.@.#.$.%.&.*.=.-.;.>.,.'.).!.~.{.].^./.(._.:.<.[.}.|.1.2.3.4.5.6.7.8.9.0.a.b.c.d.e.f.g.h.i.j.k.l.m.n.o.p.q.J+s.t.u.v.w.x.y.z.A.B.C.D.E.F.G.H.I.J.K.L.M.N.O.P.Q.R.S.T.U.V.W.X.Y.Z.`. +.+++@+#+$+%+&+*+=+-+;+>+,+'+)+!+~+{+]+^+/+(+_+:+<+[+}+|+1+2+3+4+5+6+7+8+9+0+a+b+c+K+e+f+g+h+i+j+k+l+m+n+o+p+q+r+s+t+u+v+w+x+y+z+A+B+C+D+E+F+G+",
"  . + @ # $ % & * = - ; > , ' ) ! ~ { ] ^ / ( _ : < [ } | 1 2 3 4 5 6 7 8 9 0 a b c d e f g h i j k l m n o p q r s t u v w x y z A B C D E F G H I J K L M N O P I+R S T U V W X Y Z `  ...+.@.#.$.%.&.*.=.-.;.>.,.'.).!.~.{.].^./.(._.:.<.[.}.|.1.2.3.4.5.6.7.8.9.0.a.b.c.d.e.f.g.h.i.j.k.l.m.n.o.p.q.r.s.t.u.v.w.x.y.z.A.B.C.D.E.F.G.H.I.J.K.L.M.N.O.P.Q.R.S.T.U.V.W.X.Y.Z.`. +.+++@+#+$+%+&+*+=+-+;+>+,+'+)+!+~+{+]+^+/+(+_+:+<+[+}+|+1+2+3+4+5+6+7+8+9+0+a+b+c+K+e+f+g+h+i+j+k+l+m+n+o+p+q+r+s+t+u+v+w+x+y+z+A+B+C+D+E+F+G+",
"  . + @ # $ % & * = - ; > , ' ) ! ~ { ] ^ / ( _ : < [ } | 1 2 3 4 5 6 7 8 9 0 a b c d e f g h i j k l m n o p q r s t u v w x y z A B C D E F G H I J K L M N H+P I+R S T U V W X Y Z `  ...+.@.#.$.%.&.*.=.-.;.>.,.'.).!.~.{.].^./.(._.:.<.[.}.|.1.2.3.4.5.6.7.8.9.0.a.b.c.d.e.f.g.h.i.j.k.l.m.n.o.p.q.J+s.t.u.v.w.x.y.z.A.B.C.D.E.F.G.H.I.J.K.L.M.N.O.P.Q.R.S.T.U.V.W.X.Y.Z.`. +.+++@+#+$+%+&+*+=+-+;+>+,+'+)+!+~+{+]+^+/+(+_+:+<+[+}+|+1+2+3+4+5+6+7+8+9+0+a+b+c+K+e+f+g+h+i+j+k+l+m+n+o+p+q+r+s+t+u+v+w+x+y+z+A+B+C+D+E+F+G+",
"  . + @ # $ % & * = - ; > , ' ) ! ~ { ] ^ / ( _ : < [ } | 1 2 3 4 5 6 7 8 9 0 a b c d e f g h i j k l m n o p q r s t u v w x y z A B C D E F G H I J K L M N O P I+R S T U V W X Y Z `  ...+.@.#.$.%.&.*.=.-.;.>.,.'.).!.~.{.].^./.(._.:.<.[.}.|.1.2.3.4.5.6.7.8.9.0.a.b.c.d.e.f.g.h.i.j.k.l.m.n.o.p.q.r.s.t.u.v.w.x.y.z.A.B.C.D.E.F.G.H.I.J.K.L.M.N.O.P.Q.R.S.T.U.V.W.X.Y.Z.`. +.+++@+#+$+%+&+*+=+-+;+>+,+'+)+!+~+{+]+^+/+(+_+:+<+[+}+|+1+2+3+4+5+6+7+8+9+0+a+b+c+d+e+f+g+h+i+j+k+l+m+n+o+p+q+r+s+t+u+v+w+x+y+z+A+B+C+D+E+F+G+",
"  . + @ # $ % & * = - ; > , ' ) ! ~ { ] ^ / ( _ : < [ } | 1 2 3 4 5 6 7 8 9 0 a b c d e f g h i j k l m n o p q r s t u v w x y z A B C D E F G H I J K L M N O P I+R S T U V W X Y Z `  ...+.@.#.$.%.&.*.=.-.;.>.,.'.).!.~.{.].^./.(._.:.<.[.}.|.1.2.3.4.5.6.7.8.9.0.a.b.c.d.e.f.g.h.i.j.k.l.m.n.o.p.q.r.s.t.u.v.w.x.y.z.A.B.C.D.E.F.G.H.I.J.K.L.M.N.O.P.Q.R.S.T.U.V.W.X.Y.Z.`. +.+++@+#+$+%+&+*+=+-+;+>+,+'+)+!+~+{+]+^+/+(+_+:+<+[+}+|+1+2+3+4+5+6+7+8+9+0+a+b+c+d+e+f+g+h+i+j+k+l+m+n+o+p+q+r+s+t+u+v+w+x+y+z+A+B+C+D+E+F+G+",
"  . + @ # $ % & * = - ; > , ' ) ! ~ { ] ^ / ( _ : < [ } | 1 2 3 4 5 6 7 8 9 0 a b c d e f g h i O+P+l m Q+o p q r s t u v w x y z A B C D E F G R+I J K S+T+N U+V+I+R S W+X+V W X Y Z `  ...+.@.#.$.%.&.*.Y+Z+`+>.,. @.@+@~.@@].#@/.$@_.:.%@[.}.&@1.2.3.4.5.6.7.8.9.0.a.*@=@d.-@e.g.;@i.j.k.>@,@n.o.p.q.J+s.t.u.v.w.x.y.z.A.B.C.D.E.F.G.H.I.J.K.L.'@)@!@~@{@]@S.^@U.V.W./@(@_@:@ +.+++@+#+$+%+&+*+=+-+;+>+<@[@}@|@1@2@3@4@5@(+6@:+<+[+7@8@9@2+3+0@5+6+7+8+9+0+a+b+c+K+e+a@b@c@d@e@j+l+m+f@o+p+g@r+s+h@i@v+j@x+k@z+A+B+C+D+E+F+G+"};
