/* XPM */
static char * misc_xpm[] = {
"32 16 109 2",
"  	c #91F443",
". 	c #73E856",
"+ 	c #54DA6C",
"@ 	c #42CD73",
"# 	c #33C077",
"$ 	c #27B07E",
"% 	c #26A381",
"& 	c #2E9382",
"* 	c #298583",
"= 	c #297683",
"- 	c #1D6B82",
"; 	c #125F80",
"> 	c #0C537A",
", 	c #144476",
"' 	c #1E366B",
") 	c #212959",
"! 	c #1E1F42",
"~ 	c #17152C",
"{ 	c #0C0B17",
"] 	c #040307",
"^ 	c #0C0409",
"/ 	c #270E21",
"( 	c #471236",
"_ 	c #671048",
": 	c #87134B",
"< 	c #A42146",
"[ 	c #B9393A",
"} 	c #CF5330",
"| 	c #E16E26",
"1 	c #ED8B14",
"2 	c #F3AD08",
"3 	c #F4CD21",
"4 	c #2E9282",
"5 	c #34C077",
"6 	c #86134B",
"7 	c #EC8B14",
"8 	c #28B07E",
"9 	c #115F80",
"0 	c #0B537A",
"a 	c #E06E26",
"b 	c #EC8B15",
"c 	c #F2AD08",
"d 	c #55DA6C",
"e 	c #27A381",
"f 	c #0C040A",
"g 	c #671148",
"h 	c #A32146",
"i 	c #CE5331",
"j 	c #F2AD09",
"k 	c #F4CD22",
"l 	c #91F444",
"m 	c #74E857",
"n 	c #43CD73",
"o 	c #29B07E",
"p 	c #0B537B",
"q 	c #86144B",
"r 	c #A32246",
"s 	c #B9393B",
"t 	c #35C077",
"u 	c #27A281",
"v 	c #2F9282",
"w 	c #2A8583",
"x 	c #2A7683",
"y 	c #B93A3B",
"z 	c #E06E27",
"A 	c #EC8C15",
"B 	c #F3CD22",
"C 	c #91F344",
"D 	c #74E757",
"E 	c #56DA6C",
"F 	c #44CD73",
"G 	c #2AB07E",
"H 	c #28A281",
"I 	c #105F80",
"J 	c #16152C",
"K 	c #B83A3B",
"L 	c #DF6E27",
"M 	c #EB8C16",
"N 	c #56D96D",
"O 	c #44CC73",
"P 	c #36C077",
"Q 	c #16152B",
"R 	c #85144B",
"S 	c #CE5431",
"T 	c #F2AD0A",
"U 	c #91F345",
"V 	c #75E757",
"W 	c #45CC74",
"X 	c #2BB07E",
"Y 	c #2A7684",
"Z 	c #CD5432",
"` 	c #92F345",
" .	c #75E758",
"..	c #57D96D",
"+.	c #29A281",
"@.	c #309282",
"#.	c #2B8583",
"$.	c #2B7684",
"%.	c #A32346",
"&.	c #DF6E28",
"*.	c #EB8C17",
"=.	c #2CB07E",
"-.	c #0F5F80",
";.	c #37C077",
">.	c #2CAF7E",
",.	c #B73A3B",
"'.	c #0A537B",
").	c #16142B",
"!.	c #F1AD0A",
"  . + @ # $ % & * = - ; > , ' ) ! ~ { ] ^ / ( _ : < [ } | 1 2 3 ",
"  . + @ # $ % & * = - ; > , ' ) ! ~ { ] ^ / ( _ : < [ } | 1 2 3 ",
"  . + @ # $ % 4 * = - ; > , ' ) ! ~ { ] ^ / ( _ : < [ } | 1 2 3 ",
"  . + @ 5 $ % 4 * = - ; > , ' ) ! ~ { ] ^ / ( _ 6 < [ } | 7 2 3 ",
"  . + @ 5 8 % 4 * = - 9 0 , ' ) ! ~ { ] ^ / ( _ 6 < [ } a b c 3 ",
"  . d @ 5 8 e 4 * = - 9 0 , ' ) ! ~ { ] f / ( g 6 h [ i a b j k ",
"l m d n 5 o e 4 * = - 9 p , ' ) ! ~ { ] f / ( g q r s i a b j k ",
"l m d n t o u v w x - 9 p , ' ) ! ~ { ] f / ( g q r y i z A j B ",
"C D E F t G H v w x - I p , ' ) ! J { ] f / ( g q r K i L M j B ",
"C D N O P G H v w x - I p , ' ) ! Q { ] f / ( g R r K S L M T B ",
"U V N W P X H v w Y - I p , ' ) ! Q { ] f / ( g R r K Z L M T B ",
"`  ...W P X +.@.#.$.- I p , ' ) ! Q { ] f / ( g R %.K Z &.*.T B ",
"`  ...W P =.+.@.#.$.- -.p , ' ) ! Q { ] f / ( g R %.K Z &.*.T B ",
"`  ...W ;.>.+.@.#.$.- -.p , ' ) ! Q { ] f / ( g R %.,.Z &.*.T B ",
"`  ...W ;.>.+.@.#.$.- -.'., ' ) ! Q { ] f / ( g R %.,.Z &.*.T B ",
"`  ...W ;.>.+.@.#.$.- -.'., ' ) ! ).{ ] f / ( g R %.,.Z &.*.!.B "};
