/* XPM */
static char * parula_hr_xpm[] = {
"256 16 503 2",
"  	c #34298A",
". 	c #352D8C",
"+ 	c #342E8E",
"@ 	c #353091",
"# 	c #363195",
"$ 	c #353398",
"% 	c #36349B",
"& 	c #35369E",
"* 	c #3537A0",
"= 	c #3438A4",
"- 	c #353AA7",
"; 	c #343CAA",
"> 	c #333DAE",
", 	c #323FB1",
"' 	c #3240B4",
") 	c #3242B7",
"! 	c #3043BB",
"~ 	c #2F45BE",
"{ 	c #2D47C0",
"] 	c #2B49C3",
"^ 	c #294BC7",
"/ 	c #264DCA",
"( 	c #234FCD",
"_ 	c #2051D0",
": 	c #1C53D3",
"< 	c #1854D5",
"[ 	c #1457D8",
"} 	c #1059DA",
"| 	c #0D5BDB",
"1 	c #0B5DDC",
"2 	c #085FDD",
"3 	c #0460DE",
"4 	c #0262DF",
"5 	c #0163DE",
"6 	c #0263DF",
"7 	c #0165E0",
"8 	c #0067DF",
"9 	c #0167DE",
"0 	c #0269DE",
"a 	c #036ADF",
"b 	c #036BDF",
"c 	c #046CDD",
"d 	c #056DDD",
"e 	c #066EDD",
"f 	c #0870DD",
"g 	c #0970DC",
"h 	c #0A71DC",
"i 	c #0C73DB",
"j 	c #0C74DB",
"k 	c #0D76DA",
"l 	c #0E76D9",
"m 	c #0E77D9",
"n 	c #0F79D8",
"o 	c #1079D7",
"p 	c #1179D7",
"q 	c #127AD6",
"r 	c #117BD6",
"s 	c #127CD5",
"t 	c #137DD4",
"u 	c #127ED4",
"v 	c #127FD4",
"w 	c #1380D3",
"x 	c #1481D3",
"y 	c #1482D2",
"z 	c #1383D1",
"A 	c #1284D2",
"B 	c #1386D1",
"C 	c #1287D0",
"D 	c #1288D1",
"E 	c #1189D1",
"F 	c #108AD1",
"G 	c #108BD0",
"H 	c #0F8DD1",
"I 	c #0E8ED1",
"J 	c #0D90CF",
"K 	c #0C91D0",
"L 	c #0B92D0",
"M 	c #0A93D0",
"N 	c #0994D0",
"O 	c #0895D0",
"P 	c #0897D0",
"Q 	c #0898CF",
"R 	c #0799CE",
"S 	c #079ACE",
"T 	c #069BCD",
"U 	c #059CCD",
"V 	c #069DCD",
"W 	c #069DCC",
"X 	c #059ECA",
"Y 	c #069FCB",
"Z 	c #05A0CA",
"` 	c #04A0C9",
" .	c #05A2C8",
"..	c #05A3C6",
"+.	c #05A3C7",
"@.	c #04A4C6",
"#.	c #05A5C4",
"$.	c #06A6C2",
"%.	c #06A7C1",
"&.	c #05A7C1",
"*.	c #07A8C1",
"=.	c #08A9BF",
"-.	c #08A9BD",
";.	c #09AABC",
">.	c #0AAABB",
",.	c #0BABBA",
"'.	c #0DACB9",
").	c #0EACB8",
"!.	c #0FADB7",
"~.	c #11AEB5",
"{.	c #13AEB4",
"].	c #13AFB3",
"^.	c #15AFB1",
"/.	c #17B0B0",
"(.	c #19B1AF",
"_.	c #1BB1AE",
":.	c #1DB1AD",
"<.	c #1EB1AC",
"[.	c #21B2AA",
"}.	c #23B3A9",
"|.	c #24B3A8",
"1.	c #27B4A6",
"2.	c #29B4A4",
"3.	c #2AB4A3",
"4.	c #2DB5A2",
"5.	c #30B6A1",
"6.	c #32B69F",
"7.	c #34B79D",
"8.	c #37B79C",
"9.	c #3AB89A",
"0.	c #3CB799",
"a.	c #3EB898",
"b.	c #41B997",
"c.	c #44B995",
"d.	c #45BA94",
"e.	c #49BA92",
"f.	c #4CBA91",
"g.	c #4FBB8F",
"h.	c #51BB8E",
"i.	c #54BB8C",
"j.	c #57BC8A",
"k.	c #5ABC89",
"l.	c #5CBC87",
"m.	c #60BC85",
"n.	c #63BD84",
"o.	c #65BD83",
"p.	c #68BC82",
"q.	c #6ABD80",
"r.	c #6EBD7F",
"s.	c #71BD7E",
"t.	c #73BD7C",
"u.	c #77BC7B",
"v.	c #79BD7A",
"w.	c #7CBE79",
"x.	c #7FBD78",
"y.	c #81BD76",
"z.	c #83BE75",
"A.	c #86BD74",
"B.	c #89BD73",
"C.	c #8CBC72",
"D.	c #8EBD71",
"E.	c #90BD70",
"F.	c #93BD6F",
"G.	c #96BD6E",
"H.	c #98BD6D",
"I.	c #9BBD6C",
"J.	c #9DBD6C",
"K.	c #9FBC6B",
"L.	c #A1BD6A",
"M.	c #A3BD69",
"N.	c #A6BB68",
"O.	c #A8BC67",
"P.	c #AABC67",
"Q.	c #ADBC67",
"R.	c #AFBC65",
"S.	c #B1BC64",
"T.	c #B3BC63",
"U.	c #B5BC63",
"V.	c #B7BB62",
"W.	c #BABA61",
"X.	c #BCBB60",
"Y.	c #BEBB60",
"Z.	c #C0BA5F",
"`.	c #C2BA5E",
" +	c #C4B95D",
".+	c #C6BA5C",
"++	c #C8B95A",
"@+	c #CABA5B",
"#+	c #CCB95A",
"$+	c #CEB959",
"%+	c #D1B858",
"&+	c #D2B956",
"*+	c #D4B856",
"=+	c #D7B955",
"-+	c #D8B854",
";+	c #DBB854",
">+	c #DCB752",
",+	c #DEB851",
"'+	c #E1B851",
")+	c #E2B850",
"!+	c #E4B84E",
"~+	c #E7B84D",
"{+	c #E8B84C",
"]+	c #EAB84B",
"^+	c #ECB84A",
"/+	c #EEB84A",
"(+	c #F0B848",
"_+	c #F2B847",
":+	c #F3B945",
"<+	c #F5B944",
"[+	c #F7B843",
"}+	c #F8BA41",
"|+	c #FABB3F",
"1+	c #FBBC3E",
"2+	c #FBBC3D",
"3+	c #FBBD3B",
"4+	c #FCBF3A",
"5+	c #FDC038",
"6+	c #FCC136",
"7+	c #FCC235",
"8+	c #FDC434",
"9+	c #FCC532",
"0+	c #FBC631",
"a+	c #FCC830",
"b+	c #FBC92F",
"c+	c #FBCA2E",
"d+	c #FACC2D",
"e+	c #FACD2C",
"f+	c #F9CE2B",
"g+	c #F8CF2A",
"h+	c #F8D029",
"i+	c #F8D228",
"j+	c #F6D327",
"k+	c #F6D526",
"l+	c #F6D625",
"m+	c #F5D724",
"n+	c #F5D923",
"o+	c #F5DA22",
"p+	c #F4DB22",
"q+	c #F4DD21",
"r+	c #F4DF1F",
"s+	c #F3E01E",
"t+	c #F2E21D",
"u+	c #F3E41B",
"v+	c #F3E51A",
"w+	c #F3E71A",
"x+	c #F2E819",
"y+	c #F3EA17",
"z+	c #F3EB16",
"A+	c #F4ED14",
"B+	c #F3F013",
"C+	c #F5F112",
"D+	c #F5F210",
"E+	c #F9F912",
"F+	c #34298B",
"G+	c #352D8D",
"H+	c #342E8F",
"I+	c #353092",
"J+	c #353399",
"K+	c #3537A1",
"L+	c #3438A5",
"M+	c #353AA8",
"N+	c #343CAB",
"O+	c #323FB2",
"P+	c #3240B5",
"Q+	c #3242B8",
"R+	c #2D47C1",
"S+	c #264DCB",
"T+	c #234FCE",
"U+	c #2051D1",
"V+	c #1C53D4",
"W+	c #1854D6",
"X+	c #1457D9",
"Y+	c #1059DB",
"Z+	c #0D5BDC",
"`+	c #0B5DDD",
" @	c #085FDE",
".@	c #0460DF",
"+@	c #0262E0",
"@@	c #0163DF",
"#@	c #0264E0",
"$@	c #0166E1",
"%@	c #0067E0",
"&@	c #0168DF",
"*@	c #026ADF",
"=@	c #036BE0",
"-@	c #036CDF",
";@	c #046DDE",
">@	c #056EDE",
",@	c #066FDE",
"'@	c #0971DD",
")@	c #0A72DD",
"!@	c #0C75DC",
"~@	c #0D77DB",
"{@	c #0E77DA",
"]@	c #0E78DA",
"^@	c #0F79D9",
"/@	c #107AD8",
"(@	c #117AD8",
"_@	c #127BD7",
":@	c #117CD7",
"<@	c #127DD6",
"[@	c #137ED5",
"}@	c #127FD5",
"|@	c #1280D5",
"1@	c #1381D4",
"2@	c #1482D4",
"3@	c #1483D3",
"4@	c #1384D2",
"5@	c #1285D3",
"6@	c #1387D2",
"7@	c #1289D2",
"8@	c #118AD2",
"9@	c #108BD2",
"0@	c #108CD1",
"a@	c #0F8DD2",
"b@	c #0E8FD1",
"c@	c #0D90D0",
"d@	c #0C92D1",
"e@	c #0B93D1",
"f@	c #0A94D1",
"g@	c #0896D0",
"h@	c #0897D1",
"i@	c #0898D0",
"j@	c #0799CF",
"k@	c #079ACF",
"l@	c #069BCE",
"m@	c #059CCE",
"n@	c #069DCE",
"o@	c #069ECD",
"p@	c #059FCB",
"q@	c #06A0CC",
"r@	c #05A1CB",
"s@	c #04A1CA",
"t@	c #05A3C9",
"u@	c #05A4C6",
"v@	c #05A4C8",
"w@	c #04A5C7",
"x@	c #05A6C5",
"y@	c #06A7C3",
"z@	c #06A8C2",
"A@	c #05A8C2",
"B@	c #07A9C1",
"C@	c #08AAC0",
"D@	c #08AABD",
"E@	c #09ABBC",
"F@	c #0AABBB",
"G@	c #0BACBA",
"H@	c #0DADB9",
"I@	c #0EADB8",
"J@	c #0FAEB8",
"K@	c #11AFB6",
"L@	c #13AFB4",
"M@	c #15B0B2",
"N@	c #17B0B1",
"O@	c #19B1B0",
"P@	c #1BB2AF",
"Q@	c #1DB2AE",
"R@	c #1EB2AD",
"S@	c #21B3AB",
"T@	c #23B4AA",
"U@	c #24B4A9",
"V@	c #27B5A7",
"W@	c #29B5A5",
"X@	c #2AB5A4",
"Y@	c #2DB6A3",
"Z@	c #30B7A2",
"`@	c #32B7A0",
" #	c #34B89E",
".#	c #37B89C",
"+#	c #3AB99B",
"@#	c #3CB89A",
"##	c #3EB999",
"$#	c #41BA97",
"%#	c #44BA95",
"&#	c #45BB94",
"*#	c #49BB93",
"=#	c #4CBB91",
"-#	c #4FBC90",
";#	c #51BC8E",
">#	c #54BC8D",
",#	c #57BD8B",
"'#	c #5ABD89",
")#	c #5CBC88",
"!#	c #60BC86",
"~#	c #63BE85",
"{#	c #66BE84",
"]#	c #68BD82",
"^#	c #6BBE81",
"/#	c #6FBE80",
"(#	c #72BE7F",
"_#	c #74BE7D",
":#	c #78BD7C",
"<#	c #79BE7B",
"[#	c #7CBF7A",
"}#	c #7FBE79",
"|#	c #82BE77",
"1#	c #84BF76",
"2#	c #87BE75",
"3#	c #8ABE74",
"4#	c #8DBD73",
"5#	c #8FBE72",
"6#	c #91BE71",
"7#	c #94BE70",
"8#	c #97BE6F",
"9#	c #99BE6E",
"0#	c #9BBE6D",
"a#	c #9EBE6C",
"b#	c #9FBD6B",
"c#	c #A2BE6A",
"d#	c #A4BD69",
"e#	c #A7BC68",
"f#	c #A9BD68",
"g#	c #ABBD68",
"h#	c #AEBD66",
"i#	c #B0BD66",
"j#	c #B1BD65",
"k#	c #B4BC64",
"l#	c #B6BD63",
"m#	c #B8BC62",
"n#	c #BBBB61",
"o#	c #BDBC60",
"p#	c #BFBC60",
"q#	c #C0BB5F",
"r#	c #C2BB5E",
"s#	c #C4BA5D",
"t#	c #C6BB5C",
"u#	c #C9BA5A",
"v#	c #CBBB5B",
"w#	c #CDBA5A",
"x#	c #CFBA59",
"y#	c #D2B958",
"z#	c #D3BA55",
"A#	c #D5B956",
"B#	c #D8BA55",
"C#	c #D9B954",
"D#	c #DCB954",
"E#	c #DDB852",
"F#	c #DEB951",
"G#	c #E1B951",
"H#	c #E3B950",
"I#	c #E5B94E",
"J#	c #E7B94D",
"K#	c #E9B94C",
"L#	c #EBB94B",
"M#	c #EDB94A",
"N#	c #EFB94A",
"O#	c #F1B848",
"P#	c #F4BA45",
"Q#	c #F6BA44",
"R#	c #F7B943",
"S#	c #F9BA41",
"T#	c #FCBD3D",
"U#	c #FCBE3B",
"V#	c #FDBF3A",
"W#	c #FEC138",
"X#	c #FDC236",
"Y#	c #FDC335",
"Z#	c #FEC534",
"`#	c #FDC632",
" $	c #FCC731",
".$	c #FDC930",
"+$	c #FCCA2F",
"@$	c #FCCB2E",
"#$	c #FBCD2D",
"$$	c #FBCE2C",
"%$	c #FACF2B",
"&$	c #F9D02A",
"*$	c #F9D129",
"=$	c #F7D427",
"-$	c #F7D526",
";$	c #F6D725",
">$	c #F6D824",
",$	c #F6DA23",
"'$	c #F6DA22",
")$	c #F4DC22",
"!$	c #F4DE21",
"~$	c #F5DF1F",
"{$	c #F4E11E",
"]$	c #F3E31D",
"^$	c #F4E41B",
"/$	c #F4E61A",
"($	c #F4E71A",
"_$	c #F3E819",
":$	c #F4EA17",
"<$	c #F4EC16",
"[$	c #F5ED14",
"}$	c #F4F013",
"|$	c #F6F212",
"1$	c #F6F310",
"2$	c #FAFA12",
"3$	c #0995D0",
"4$	c #0899D0",
"5$	c #04A1C9",
"6$	c #05A4C7",
"7$	c #08AABF",
"8$	c #0FADB8",
"9$	c #9DBE6C",
"0$	c #AFBD66",
"a$	c #CFBA58",
"b$	c #D3BA56",
"c$	c #3043BC",
"d$	c #0898D1",
"  . + @ # $ % & * = - ; > , ' ) ! ~ { ] ^ / ( _ : < [ } | 1 2 3 4 5 6 7 8 9 0 a b c d e f g h i i j k l m n o p q r s t u v w x y z A B C D E F G H I J K L M N O P Q R S T U V W X Y Z `  ...+.@.#.#.$.%.&.*.=.-.;.>.,.'.).!.~.{.].^./.(._.:.<.[.}.|.1.2.3.4.5.6.7.8.9.0.a.b.c.d.e.f.g.h.i.j.k.l.m.n.o.p.q.r.s.t.u.v.w.x.y.z.A.B.C.D.E.F.G.H.I.J.K.L.M.N.O.P.Q.R.S.T.U.V.W.X.Y.Z.`. +.+++@+#+$+%+&+*+=+-+;+>+,+'+)+!+~+{+]+^+/+(+_+:+<+[+}+|+1+2+3+4+5+6+7+8+9+0+a+b+c+d+e+f+g+h+i+j+k+l+m+n+o+p+q+r+s+t+u+v+w+x+y+z+A+B+C+D+E+",
"F+G+H+I+# J+% & K+L+M+N+> O+P+Q+! ~ R+] ^ S+T+U+V+W+X+Y+Z+`+ @.@+@@@#@$@%@&@*@=@-@;@>@,@f '@)@j j !@~@{@]@^@/@(@_@:@<@[@}@|@1@2@3@4@5@6@D 7@8@9@0@a@b@c@d@e@f@N g@h@i@j@k@l@m@n@o@p@q@r@s@t@u@v@w@x@x@y@z@A@B@C@D@E@F@G@H@I@J@K@L@L@M@N@O@P@Q@R@S@T@U@V@W@X@Y@Z@`@ #.#+#@###$#%#&#*#=#-#;#>#,#'#)#!#~#{#]#^#/#(#_#:#<#[#}#|#1#2#3#4#5#6#7#8#9#0#a#b#c#d#e#f#g#h#i#j#k#l#m#n#o#p#q#r#s#t#u#v#w#x#y#z#A#B#C#D#E#F#G#H#I#J#K#L#M#N#O#_+P#Q#R#S#|+1+T#U#V#W#X#Y#Z#`# $.$+$@$#$$$%$&$*$i+=$-$;$>$,$'$)$!$~${$]$^$/$($_$:$<$[$}$|$1$2$",
"F+G+H+I+# $ % & K+L+M+N+> O+P+) ! ~ R+] ^ S+T+U+V+W+X+Y+Z+`+ @.@+@@@#@$@%@&@*@=@-@;@>@,@f '@)@j j !@~@{@]@^@/@(@_@:@<@[@}@|@1@2@3@4@5@6@D 7@8@9@0@a@b@c@d@e@f@3$O h@4$j@k@l@m@n@o@p@q@r@5$t@6$v@w@x@x@y@z@A@B@7$D@E@F@G@H@I@8$K@L@L@M@N@O@P@Q@R@S@T@U@V@W@X@Y@Z@`@ #.#+#@###$#%#&#*#=#-#;#>#,#'#)#!#~#{#]#^#/#(#_#:#<#[#}#|#1#2#3#4#5#6#7#8#9#0#9$b#c#d#e#f#g#h#0$j#k#l#m#n#o#p#q#r#s#t#u#v#w#a$y#b$A#B#C#D#E#F#G#H#I#J#K#L#M#N#O#_+P#Q#R#S#|+1+T#U#V#W#X#Y#Z#`# $.$+$@$#$$$%$&$*$i+=$-$;$>$,$'$)$!$~${$]$^$/$($_$:$<$[$}$|$1$2$",
"F+G+H+I+# $ % & K+L+M+N+> O+P+Q+c$~ R+] ^ S+T+U+V+W+X+Y+Z+`+ @.@+@@@#@$@%@&@*@=@-@;@>@,@f '@)@j j !@~@{@]@^@/@(@_@:@<@[@}@|@1@2@3@4@5@6@D 7@8@9@0@a@b@c@d@e@f@N g@d$i@j@k@l@m@n@o@p@q@r@s@t@6$v@w@x@x@y@z@A@B@7$D@E@F@G@H@I@8$K@L@L@M@N@O@P@Q@R@S@T@U@V@W@X@Y@Z@`@ #.#+#@###$#%#&#*#=#-#;#>#,#'#)#!#~#{#]#^#/#(#_#:#<#[#}#|#1#2#3#4#5#6#7#8#9#0#9$b#c#d#e#f#g#h#0$j#k#l#m#n#o#p#q#r#s#t#u#v#w#x#y#b$A#B#C#D#E#F#G#H#I#J#K#L#M#N#O#_+P#Q#R#S#|+1+T#U#V#W#X#Y#Z#`# $.$+$@$#$$$%$&$*$i+=$-$;$>$,$'$)$!$~${$]$^$/$($_$:$<$[$}$|$1$2$",
"F+G+H+I+# $ % & K+L+M+N+> O+P+Q+! ~ R+] ^ S+T+U+V+W+X+Y+Z+`+ @.@+@@@#@$@%@&@*@=@-@;@>@,@f '@)@j j !@~@{@]@^@/@(@_@:@<@[@}@|@1@2@3@4@5@6@D 7@8@9@0@a@b@c@d@e@f@N g@h@i@j@k@l@m@n@o@p@q@r@5$t@6$v@w@x@x@y@z@A@B@7$D@E@F@G@H@I@8$K@L@L@M@N@O@P@Q@R@S@T@U@V@W@X@Y@Z@`@ #.#+#@###$#%#&#*#=#-#;#>#,#'#)#!#~#{#]#^#/#(#_#:#<#[#}#|#1#2#3#4#5#6#7#8#9#0#9$b#c#d#e#f#g#h#0$j#k#l#m#n#o#p#q#r#s#t#u#v#w#x#y#b$A#B#C#D#E#F#G#H#I#J#K#L#M#N#O#_+P#Q#R#S#|+1+T#U#V#W#X#Y#Z#`# $.$+$@$#$$$%$&$*$i+=$-$;$>$,$'$)$!$~${$]$^$/$($_$:$<$[$}$|$1$2$",
"F+G+H+I+# $ % & K+L+M+N+> O+P+) ! ~ R+] ^ S+T+U+V+W+X+Y+Z+`+ @.@+@@@#@$@%@&@*@=@-@;@>@,@f '@)@j j !@~@{@]@^@/@(@_@:@<@[@}@|@1@2@3@4@5@6@D 7@8@9@0@a@b@c@d@e@f@3$O h@i@j@k@l@m@n@o@p@q@r@5$t@6$v@w@x@x@y@z@A@B@7$D@E@F@G@H@I@8$K@L@L@M@N@O@P@Q@R@S@T@U@V@W@X@Y@Z@`@ #.#+#@###$#%#&#*#=#-#;#>#,#'#)#!#~#{#]#^#/#(#_#:#<#[#}#|#1#2#3#4#5#6#7#8#9#0#9$b#c#d#e#f#g#h#0$j#k#l#m#n#o#p#q#r#s#t#u#v#w#a$y#b$A#B#C#D#E#F#G#H#I#J#K#L#M#N#O#_+P#Q#R#S#|+1+T#U#V#W#X#Y#Z#`# $.$+$@$#$$$%$&$*$i+=$-$;$>$,$'$)$!$~${$]$^$/$($_$:$<$[$}$|$1$2$",
"F+G+H+I+# $ % & K+L+M+N+> O+P+Q+! ~ R+] ^ S+T+U+V+W+X+Y+Z+`+ @.@+@@@#@$@%@&@*@=@-@;@>@,@f '@)@j j !@~@{@]@^@/@(@_@:@<@[@}@|@1@2@3@4@5@6@D 7@8@9@0@a@b@c@d@e@f@N g@h@i@j@k@l@m@n@o@p@q@r@5$t@6$v@w@x@x@y@z@A@B@7$D@E@F@G@H@I@8$K@L@L@M@N@O@P@Q@R@S@T@U@V@W@X@Y@Z@`@ #.#+#@###$#%#&#*#=#-#;#>#,#'#)#!#~#{#]#^#/#(#_#:#<#[#}#|#1#2#3#4#5#6#7#8#9#0#9$b#c#d#e#f#g#h#0$j#k#l#m#n#o#p#q#r#s#t#u#v#w#a$y#b$A#B#C#D#E#F#G#H#I#J#K#L#M#N#O#_+P#Q#R#S#|+1+T#U#V#W#X#Y#Z#`# $.$+$@$#$$$%$&$*$i+=$-$;$>$,$'$)$!$~${$]$^$/$($_$:$<$[$}$|$1$2$",
"F+G+H+I+# $ % & K+L+M+N+> O+P+) ! ~ R+] ^ S+T+U+V+W+X+Y+Z+`+ @.@+@@@#@$@%@&@*@=@-@;@>@,@f '@)@j j !@~@{@]@^@/@(@_@:@<@[@}@|@1@2@3@4@5@6@D 7@8@9@0@a@b@c@d@e@f@3$O h@i@j@k@l@m@n@o@p@q@r@5$t@6$v@w@x@x@y@z@A@B@7$D@E@F@G@H@I@8$K@L@L@M@N@O@P@Q@R@S@T@U@V@W@X@Y@Z@`@ #.#+#@###$#%#&#*#=#-#;#>#,#'#)#!#~#{#]#^#/#(#_#:#<#[#}#|#1#2#3#4#5#6#7#8#9#0#9$b#c#d#e#f#g#h#0$j#k#l#m#n#o#p#q#r#s#t#u#v#w#a$y#b$A#B#C#D#E#F#G#H#I#J#K#L#M#N#O#_+P#Q#R#S#|+1+T#U#V#W#X#Y#Z#`# $.$+$@$#$$$%$&$*$i+=$-$;$>$,$'$)$!$~${$]$^$/$($_$:$<$[$}$|$1$2$",
"F+G+H+I+# $ % & K+L+M+N+> O+P+Q+! ~ R+] ^ S+T+U+V+W+X+Y+Z+`+ @.@+@@@#@$@%@&@*@=@-@;@>@,@f '@)@j j !@~@{@]@^@/@(@_@:@<@[@}@|@1@2@3@4@5@6@D 7@8@9@0@a@b@c@d@e@f@N g@h@i@j@k@l@m@n@o@p@q@r@s@t@6$v@w@x@x@y@z@A@B@7$D@E@F@G@H@I@8$K@L@L@M@N@O@P@Q@R@S@T@U@V@W@X@Y@Z@`@ #.#+#@###$#%#&#*#=#-#;#>#,#'#)#!#~#{#]#^#/#(#_#:#<#[#}#|#1#2#3#4#5#6#7#8#9#0#9$b#c#d#e#f#g#h#0$j#k#l#m#n#o#p#q#r#s#t#u#v#w#x#y#b$A#B#C#D#E#F#G#H#I#J#K#L#M#N#O#_+P#Q#R#S#|+1+T#U#V#W#X#Y#Z#`# $.$+$@$#$$$%$&$*$i+=$-$;$>$,$'$)$!$~${$]$^$/$($_$:$<$[$}$|$1$2$",
"F+G+H+I+# $ % & K+L+M+N+> O+P+Q+c$~ R+] ^ S+T+U+V+W+X+Y+Z+`+ @.@+@@@#@$@%@&@*@=@-@;@>@,@f '@)@j j !@~@{@]@^@/@(@_@:@<@[@}@|@1@2@3@4@5@6@D 7@8@9@0@a@b@c@d@e@f@N g@d$i@j@k@l@m@n@o@p@q@r@s@t@6$v@w@x@x@y@z@A@B@7$D@E@F@G@H@I@8$K@L@L@M@N@O@P@Q@R@S@T@U@V@W@X@Y@Z@`@ #.#+#@###$#%#&#*#=#-#;#>#,#'#)#!#~#{#]#^#/#(#_#:#<#[#}#|#1#2#3#4#5#6#7#8#9#0#9$b#c#d#e#f#g#h#0$j#k#l#m#n#o#p#q#r#s#t#u#v#w#x#y#b$A#B#C#D#E#F#G#H#I#J#K#L#M#N#O#_+P#Q#R#S#|+1+T#U#V#W#X#Y#Z#`# $.$+$@$#$$$%$&$*$i+=$-$;$>$,$'$)$!$~${$]$^$/$($_$:$<$[$}$|$1$2$",
"F+G+H+I+# $ % & K+L+M+N+> O+P+Q+c$~ R+] ^ S+T+U+V+W+X+Y+Z+`+ @.@+@@@#@$@%@&@*@=@-@;@>@,@f '@)@j j !@~@{@]@^@/@(@_@:@<@[@}@|@1@2@3@4@5@6@D 7@8@9@0@a@b@c@d@e@f@N g@d$i@j@k@l@m@n@o@p@q@r@s@t@6$v@w@x@x@y@z@A@B@7$D@E@F@G@H@I@8$K@L@L@M@N@O@P@Q@R@S@T@U@V@W@X@Y@Z@`@ #.#+#@###$#%#&#*#=#-#;#>#,#'#)#!#~#{#]#^#/#(#_#:#<#[#}#|#1#2#3#4#5#6#7#8#9#0#9$b#c#d#e#f#g#h#0$j#k#l#m#n#o#p#q#r#s#t#u#v#w#x#y#b$A#B#C#D#E#F#G#H#I#J#K#L#M#N#O#_+P#Q#R#S#|+1+T#U#V#W#X#Y#Z#`# $.$+$@$#$$$%$&$*$i+=$-$;$>$,$'$)$!$~${$]$^$/$($_$:$<$[$}$|$1$2$",
"F+G+H+I+# $ % & K+L+M+N+> O+P+Q+! ~ R+] ^ S+T+U+V+W+X+Y+Z+`+ @.@+@@@#@$@%@&@*@=@-@;@>@,@f '@)@j j !@~@{@]@^@/@(@_@:@<@[@}@|@1@2@3@4@5@6@D 7@8@9@0@a@b@c@d@e@f@N g@h@i@j@k@l@m@n@o@p@q@r@5$t@6$v@w@x@x@y@z@A@B@7$D@E@F@G@H@I@8$K@L@L@M@N@O@P@Q@R@S@T@U@V@W@X@Y@Z@`@ #.#+#@###$#%#&#*#=#-#;#>#,#'#)#!#~#{#]#^#/#(#_#:#<#[#}#|#1#2#3#4#5#6#7#8#9#0#9$b#c#d#e#f#g#h#0$j#k#l#m#n#o#p#q#r#s#t#u#v#w#a$y#b$A#B#C#D#E#F#G#H#I#J#K#L#M#N#O#_+P#Q#R#S#|+1+T#U#V#W#X#Y#Z#`# $.$+$@$#$$$%$&$*$i+=$-$;$>$,$'$)$!$~${$]$^$/$($_$:$<$[$}$|$1$2$",
"F+G+H+I+# $ % & K+L+M+N+> O+P+) ! ~ R+] ^ S+T+U+V+W+X+Y+Z+`+ @.@+@@@#@$@%@&@*@=@-@;@>@,@f '@)@j j !@~@{@]@^@/@(@_@:@<@[@}@|@1@2@3@4@5@6@D 7@8@9@0@a@b@c@d@e@f@3$O h@i@j@k@l@m@n@o@p@q@r@5$t@6$v@w@x@x@y@z@A@B@7$D@E@F@G@H@I@8$K@L@L@M@N@O@P@Q@R@S@T@U@V@W@X@Y@Z@`@ #.#+#@###$#%#&#*#=#-#;#>#,#'#)#!#~#{#]#^#/#(#_#:#<#[#}#|#1#2#3#4#5#6#7#8#9#0#9$b#c#d#e#f#g#h#0$j#k#l#m#n#o#p#q#r#s#t#u#v#w#a$y#b$A#B#C#D#E#F#G#H#I#J#K#L#M#N#O#_+P#Q#R#S#|+1+T#U#V#W#X#Y#Z#`# $.$+$@$#$$$%$&$*$i+=$-$;$>$,$'$)$!$~${$]$^$/$($_$:$<$[$}$|$1$2$",
"F+G+H+I+# $ % & K+L+M+N+> O+P+Q+! ~ R+] ^ S+T+U+V+W+X+Y+Z+`+ @.@+@@@#@$@%@&@*@=@-@;@>@,@f '@)@j j !@~@{@]@^@/@(@_@:@<@[@}@|@1@2@3@4@5@6@D 7@8@9@0@a@b@c@d@e@f@N g@h@i@j@k@l@m@n@o@p@q@r@5$t@6$v@w@x@x@y@z@A@B@7$D@E@F@G@H@I@8$K@L@L@M@N@O@P@Q@R@S@T@U@V@W@X@Y@Z@`@ #.#+#@###$#%#&#*#=#-#;#>#,#'#)#!#~#{#]#^#/#(#_#:#<#[#}#|#1#2#3#4#5#6#7#8#9#0#9$b#c#d#e#f#g#h#0$j#k#l#m#n#o#p#q#r#s#t#u#v#w#a$y#b$A#B#C#D#E#F#G#H#I#J#K#L#M#N#O#_+P#Q#R#S#|+1+T#U#V#W#X#Y#Z#`# $.$+$@$#$$$%$&$*$i+=$-$;$>$,$'$)$!$~${$]$^$/$($_$:$<$[$}$|$1$2$",
"F+G+H+I+# J+% & K+L+M+N+> O+P+Q+! ~ R+] ^ S+T+U+V+W+X+Y+Z+`+ @.@+@@@#@$@%@&@*@=@-@;@>@,@f '@)@j j !@~@{@]@^@/@(@_@:@<@[@}@|@1@2@3@4@5@6@D 7@8@9@0@a@b@c@d@e@f@N g@h@i@j@k@l@m@n@o@p@q@r@s@t@6$v@w@x@x@y@z@A@B@C@D@E@F@G@H@I@J@K@L@L@M@N@O@P@Q@R@S@T@U@V@W@X@Y@Z@`@ #.#+#@###$#%#&#*#=#-#;#>#,#'#)#!#~#{#]#^#/#(#_#:#<#[#}#|#1#2#3#4#5#6#7#8#9#0#a#b#c#d#e#f#g#h#i#j#k#l#m#n#o#p#q#r#s#t#u#v#w#x#y#b$A#B#C#D#E#F#G#H#I#J#K#L#M#N#O#_+P#Q#R#S#|+1+T#U#V#W#X#Y#Z#`# $.$+$@$#$$$%$&$*$i+=$-$;$>$,$'$)$!$~${$]$^$/$($_$:$<$[$}$|$1$2$",
"  . + @ # $ % & * = - ; > , ' ) ! ~ { ] ^ / ( _ : < [ } | 1 2 3 4 5 6 7 8 9 0 a b c d e f g h i i j k l m n o p q r s t u v w x y z A B C D E F G H I J K L M N O P Q R S T U V W X Y Z `  .+.+.@.#.#.$.%.&.*.=.-.;.>.,.'.).!.~.{.].^./.(._.:.<.[.}.|.1.2.3.4.5.6.7.8.9.0.a.b.c.d.e.f.g.h.i.j.k.l.m.n.o.p.q.r.s.t.u.v.w.x.y.z.A.B.C.D.E.F.G.H.I.J.K.L.M.N.O.P.Q.R.S.T.U.V.W.X.Y.Z.`. +.+++@+#+$+%+&+*+=+-+;+>+,+'+)+!+~+{+]+^+/+(+_+:+<+[+}+|+1+2+3+4+5+6+7+8+9+0+a+b+c+d+e+f+g+h+i+j+k+l+m+n+o+p+q+r+s+t+u+v+w+x+y+z+A+B+C+D+E+"};
