/* XPM */
static char * plasma_hr_xpm[] = {
"256 16 264 2",
"  	c #0E0488",
". 	c #130688",
"+ 	c #150589",
"@ 	c #17058B",
"# 	c #1A068C",
"$ 	c #1D058D",
"% 	c #1F048E",
"& 	c #20058F",
"* 	c #220590",
"= 	c #240591",
"- 	c #260491",
"; 	c #280592",
"> 	c #2A0594",
", 	c #2C0394",
"' 	c #2E0394",
") 	c #300495",
"! 	c #320496",
"~ 	c #330497",
"{ 	c #350498",
"] 	c #370398",
"^ 	c #380499",
"/ 	c #3B039A",
"( 	c #3C029A",
"_ 	c #3D039B",
": 	c #3F039C",
"< 	c #40039C",
"[ 	c #43029D",
"} 	c #44039E",
"| 	c #45029E",
"1 	c #48019E",
"2 	c #49029F",
"3 	c #4B02A0",
"4 	c #4D01A0",
"5 	c #4E02A1",
"6 	c #4F01A1",
"7 	c #5000A2",
"8 	c #5201A3",
"9 	c #5401A2",
"0 	c #5600A3",
"a 	c #5701A4",
"b 	c #5900A4",
"c 	c #5B00A5",
"d 	c #5C00A4",
"e 	c #5E00A4",
"f 	c #5F00A6",
"g 	c #6100A6",
"h 	c #6300A5",
"i 	c #6400A6",
"j 	c #6500A7",
"k 	c #6600A6",
"l 	c #6800A6",
"m 	c #6A00A7",
"n 	c #6C00A7",
"o 	c #6C00A8",
"p 	c #6E00A7",
"q 	c #7000A8",
"r 	c #7200A8",
"s 	c #7300A8",
"t 	c #7500A8",
"u 	c #7601A8",
"v 	c #7800A7",
"w 	c #7901A8",
"x 	c #7B02A7",
"y 	c #7C02A6",
"z 	c #7D03A7",
"A 	c #7F03A6",
"B 	c #8103A7",
"C 	c #8204A6",
"D 	c #8305A5",
"E 	c #8506A6",
"F 	c #8507A6",
"G 	c #8707A5",
"H 	c #8807A5",
"I 	c #8A08A3",
"J 	c #8C0AA3",
"K 	c #8D0BA4",
"L 	c #8E0CA3",
"M 	c #8F0DA2",
"N 	c #900EA2",
"O 	c #920FA1",
"P 	c #9410A0",
"Q 	c #9511A0",
"R 	c #9612A0",
"S 	c #98139F",
"T 	c #99149E",
"U 	c #9A169D",
"V 	c #9C179D",
"W 	c #9D189C",
"X 	c #9E199B",
"Y 	c #9F1A9A",
"Z 	c #A11B9A",
"` 	c #A21C99",
" .	c #A31D98",
"..	c #A41E97",
"+.	c #A51F96",
"@.	c #A72196",
"#.	c #A82295",
"$.	c #A92393",
"%.	c #AB2493",
"&.	c #AC2592",
"*.	c #AE2790",
"=.	c #AF2990",
"-.	c #B02A8F",
";.	c #B12B8E",
">.	c #B32C8D",
",.	c #B42D8C",
"'.	c #B52E8B",
").	c #B62F8A",
"!.	c #B73089",
"~.	c #B83288",
"{.	c #B93387",
"].	c #BA3486",
"^.	c #BB3585",
"/.	c #BC3684",
"(.	c #BD3783",
"_.	c #BE3882",
":.	c #BF3981",
"<.	c #C03B80",
"[.	c #C13C80",
"}.	c #C23D7F",
"|.	c #C33E7E",
"1.	c #C43F7D",
"2.	c #C5407C",
"3.	c #C6417B",
"4.	c #C7427A",
"5.	c #C84379",
"6.	c #C94578",
"7.	c #CA4677",
"8.	c #CB4776",
"9.	c #CC4875",
"0.	c #CD4975",
"a.	c #CE4A74",
"b.	c #CF4B73",
"c.	c #D04D72",
"d.	c #D14E71",
"e.	c #D14F70",
"f.	c #D2506F",
"g.	c #D3516E",
"h.	c #D4526D",
"i.	c #D5546C",
"j.	c #D6556C",
"k.	c #D7566A",
"l.	c #D85869",
"m.	c #DA5967",
"n.	c #DB5B66",
"o.	c #DB5C66",
"p.	c #DC5E65",
"q.	c #DD5F64",
"r.	c #DE6063",
"s.	c #DF6161",
"t.	c #E06360",
"u.	c #E1655F",
"v.	c #E26560",
"w.	c #E2665F",
"x.	c #E2675E",
"y.	c #E3695D",
"z.	c #E46A5C",
"A.	c #E46B5B",
"B.	c #E56C5A",
"C.	c #E66D5A",
"D.	c #E76E59",
"E.	c #E87058",
"F.	c #E87157",
"G.	c #E97256",
"H.	c #EA7355",
"I.	c #EA7454",
"J.	c #EB7653",
"K.	c #EB7753",
"L.	c #EC7852",
"M.	c #ED7A51",
"N.	c #ED7B50",
"O.	c #EE7C4F",
"P.	c #EF7D4E",
"Q.	c #EF7F4D",
"R.	c #EF804D",
"S.	c #F0814C",
"T.	c #F1824B",
"U.	c #F1844A",
"V.	c #F28549",
"W.	c #F28548",
"X.	c #F28747",
"Y.	c #F48946",
"Z.	c #F48B46",
"`.	c #F58C45",
" +	c #F58D44",
".+	c #F68F43",
"++	c #F69041",
"@+	c #F69140",
"#+	c #F79240",
"$+	c #F8943F",
"%+	c #F7963F",
"&+	c #F8983D",
"*+	c #F9993C",
"=+	c #F89A3C",
"-+	c #F99C3A",
";+	c #FA9D39",
">+	c #F99E3A",
",+	c #FA9F38",
"'+	c #FBA137",
")+	c #FAA336",
"!+	c #FBA435",
"~+	c #FCA635",
"{+	c #FBA734",
"]+	c #FCA833",
"^+	c #FCAA33",
"/+	c #FBAB32",
"(+	c #FBAD30",
"_+	c #FDAF31",
":+	c #FDAF30",
"<+	c #FCB02E",
"[+	c #FDB22E",
"}+	c #FDB42D",
"|+	c #FDB62C",
"1+	c #FDB72C",
"2+	c #FDB82B",
"3+	c #FDB92A",
"4+	c #FDBB2A",
"5+	c #FDBC29",
"6+	c #FDBF28",
"7+	c #FDC028",
"8+	c #FDC128",
"9+	c #FCC327",
"0+	c #FDC426",
"a+	c #FCC625",
"b+	c #FBC826",
"c+	c #FCCA25",
"d+	c #FBCB24",
"e+	c #FCCD25",
"f+	c #FBCF24",
"g+	c #FAD023",
"h+	c #FBD124",
"i+	c #FAD324",
"j+	c #F9D524",
"k+	c #FAD624",
"l+	c #FAD824",
"m+	c #F8DA24",
"n+	c #F8DB24",
"o+	c #F8DE23",
"p+	c #F8DF23",
"q+	c #F7E024",
"r+	c #F6E224",
"s+	c #F6E425",
"t+	c #F5E625",
"u+	c #F5E825",
"v+	c #F4E926",
"w+	c #F3EA25",
"x+	c #F3EC26",
"y+	c #F2EE26",
"z+	c #F1EF25",
"A+	c #F1F126",
"B+	c #EFF225",
"C+	c #F38747",
"D+	c #F38946",
"E+	c #F69042",
"F+	c #F69141",
"G+	c #FCB12E",
"H+	c #FDC526",
"I+	c #F38548",
"J+	c #C7417A",
"K+	c #F0844A",
"L+	c #F18549",
"M+	c #F7923F",
"N+	c #F8943E",
"O+	c #F8983C",
"  . + @ # $ % & * = - ; > , ' ) ! ~ { ] ^ / ( _ : < [ } | 1 2 3 4 5 6 7 8 9 0 a b c d e f g h i j k l m n o p q r s t u v w x y z A B C D E F G H I J K L M N O P Q R S T U V W X Y Z `  ...+.@.#.$.%.&.*.*.=.-.;.>.,.'.).!.~.{.].^./.(._.:.<.[.}.|.1.2.3.4.5.6.6.7.8.9.0.a.b.c.d.e.f.g.h.i.j.k.l.l.m.n.o.p.q.q.r.s.t.u.v.w.x.y.z.A.B.C.D.E.F.G.H.I.J.K.L.M.N.O.P.Q.R.S.T.U.V.W.X.Y.Y.Z.`. +.+++@+#+$+%+&+*+=+-+;+>+,+'+)+!+~+{+]+^+/+(+_+:+<+[+}+|+1+2+3+4+5+6+7+8+9+0+a+b+c+d+e+f+g+h+i+j+k+l+m+n+o+p+q+r+s+t+u+v+w+x+y+z+A+B+",
"  . + @ # $ % & * = - ; > , ' ) ! ~ { ] ^ / ( _ : < [ } | 1 2 3 4 5 6 7 8 9 0 a b c d e f g h i j k l m n o p q r s t u v w x y z A B C D E F G H I J K L M N O P Q R S T U V W X Y Z `  ...+.@.#.$.%.&.*.*.=.-.;.>.,.'.).!.~.{.].^./.(._.:.<.[.}.|.1.2.3.4.5.6.6.7.8.9.0.a.b.c.d.e.f.g.h.i.j.k.l.l.m.n.o.p.q.q.r.s.t.u.v.w.x.y.z.A.B.C.D.E.F.G.H.I.J.K.L.M.N.O.P.Q.R.S.T.U.V.W.C+D+Y.Z.`. +.+E+F+#+$+%+&+*+=+-+;+>+,+'+)+!+~+{+]+^+/+(+_+:+G+[+}+|+1+2+3+4+5+6+7+8+9+H+a+b+c+d+e+f+g+h+i+j+k+l+m+n+o+p+q+r+s+t+u+v+w+x+y+z+A+B+",
"  . + @ # $ % & * = - ; > , ' ) ! ~ { ] ^ / ( _ : < [ } | 1 2 3 4 5 6 7 8 9 0 a b c d e f g h i j k l m n o p q r s t u v w x y z A B C D E F G H I J K L M N O P Q R S T U V W X Y Z `  ...+.@.#.$.%.&.*.*.=.-.;.>.,.'.).!.~.{.].^./.(._.:.<.[.}.|.1.2.3.4.5.6.6.7.8.9.0.a.b.c.d.e.f.g.h.i.j.k.l.l.m.n.o.p.q.q.r.s.t.u.v.w.x.y.z.A.B.C.D.E.F.G.H.I.J.K.L.M.N.O.P.Q.R.S.T.U.V.W.C+Y.Y.Z.`. +.+E+@+#+$+%+&+*+=+-+;+>+,+'+)+!+~+{+]+^+/+(+_+:+G+[+}+|+1+2+3+4+5+6+7+8+9+0+a+b+c+d+e+f+g+h+i+j+k+l+m+n+o+p+q+r+s+t+u+v+w+x+y+z+A+B+",
"  . + @ # $ % & * = - ; > , ' ) ! ~ { ] ^ / ( _ : < [ } | 1 2 3 4 5 6 7 8 9 0 a b c d e f g h i j k l m n o p q r s t u v w x y z A B C D E F G H I J K L M N O P Q R S T U V W X Y Z `  ...+.@.#.$.%.&.*.*.=.-.;.>.,.'.).!.~.{.].^./.(._.:.<.[.}.|.1.2.3.4.5.6.6.7.8.9.0.a.b.c.d.e.f.g.h.i.j.k.l.l.m.n.o.p.q.q.r.s.t.u.v.w.x.y.z.A.B.C.D.E.F.G.H.I.J.K.L.M.N.O.P.Q.R.S.T.U.V.W.C+Y.Y.Z.`. +.+E+@+#+$+%+&+*+=+-+;+>+,+'+)+!+~+{+]+^+/+(+_+:+G+[+}+|+1+2+3+4+5+6+7+8+9+0+a+b+c+d+e+f+g+h+i+j+k+l+m+n+o+p+q+r+s+t+u+v+w+x+y+z+A+B+",
"  . + @ # $ % & * = - ; > , ' ) ! ~ { ] ^ / ( _ : < [ } | 1 2 3 4 5 6 7 8 9 0 a b c d e f g h i j k l m n o p q r s t u v w x y z A B C D E F G H I J K L M N O P Q R S T U V W X Y Z `  ...+.@.#.$.%.&.*.*.=.-.;.>.,.'.).!.~.{.].^./.(._.:.<.[.}.|.1.2.3.4.5.6.6.7.8.9.0.a.b.c.d.e.f.g.h.i.j.k.l.l.m.n.o.p.q.q.r.s.t.u.v.w.x.y.z.A.B.C.D.E.F.G.H.I.J.K.L.M.N.O.P.Q.R.S.T.U.V.I+C+D+Y.Z.`. +.+E+F+#+$+%+&+*+=+-+;+>+,+'+)+!+~+{+]+^+/+(+_+:+G+[+}+|+1+2+3+4+5+6+7+8+9+H+a+b+c+d+e+f+g+h+i+j+k+l+m+n+o+p+q+r+s+t+u+v+w+x+y+z+A+B+",
"  . + @ # $ % & * = - ; > , ' ) ! ~ { ] ^ / ( _ : < [ } | 1 2 3 4 5 6 7 8 9 0 a b c d e f g h i j k l m n o p q r s t u v w x y z A B C D E F G H I J K L M N O P Q R S T U V W X Y Z `  ...+.@.#.$.%.&.*.*.=.-.;.>.,.'.).!.~.{.].^./.(._.:.<.[.}.|.1.2.3.4.5.6.6.7.8.9.0.a.b.c.d.e.f.g.h.i.j.k.l.l.m.n.o.p.q.q.r.s.t.u.v.w.x.y.z.A.B.C.D.E.F.G.H.I.J.K.L.M.N.O.P.Q.R.S.T.U.V.W.X.Y.Y.Z.`. +.+++@+#+$+%+&+*+=+-+;+>+,+'+)+!+~+{+]+^+/+(+_+:+<+[+}+|+1+2+3+4+5+6+7+8+9+0+a+b+c+d+e+f+g+h+i+j+k+l+m+n+o+p+q+r+s+t+u+v+w+x+y+z+A+B+",
"  . + @ # $ % & * = - ; > , ' ) ! ~ { ] ^ / ( _ : < [ } | 1 2 3 4 5 6 7 8 9 0 a b c d e f g h i j k l m n o p q r s t u v w x y z A B C D E F G H I J K L M N O P Q R S T U V W X Y Z `  ...+.@.#.$.%.&.*.*.=.-.;.>.,.'.).!.~.{.].^./.(._.:.<.[.}.|.1.2.3.4.5.6.6.7.8.9.0.a.b.c.d.e.f.g.h.i.j.k.l.l.m.n.o.p.q.q.r.s.t.u.v.w.x.y.z.A.B.C.D.E.F.G.H.I.J.K.L.M.N.O.P.Q.R.S.T.U.V.W.X.Y.Y.Z.`. +.+++@+#+$+%+&+*+=+-+;+>+,+'+)+!+~+{+]+^+/+(+_+:+<+[+}+|+1+2+3+4+5+6+7+8+9+0+a+b+c+d+e+f+g+h+i+j+k+l+m+n+o+p+q+r+s+t+u+v+w+x+y+z+A+B+",
"  . + @ # $ % & * = - ; > , ' ) ! ~ { ] ^ / ( _ : < [ } | 1 2 3 4 5 6 7 8 9 0 a b c d e f g h i j k l m n o p q r s t u v w x y z A B C D E F G H I J K L M N O P Q R S T U V W X Y Z `  ...+.@.#.$.%.&.*.*.=.-.;.>.,.'.).!.~.{.].^./.(._.:.<.[.}.|.1.2.3.4.5.6.6.7.8.9.0.a.b.c.d.e.f.g.h.i.j.k.l.l.m.n.o.p.q.q.r.s.t.u.v.w.x.y.z.A.B.C.D.E.F.G.H.I.J.K.L.M.N.O.P.Q.R.S.T.U.V.W.X.Y.Y.Z.`. +.+++@+#+$+%+&+*+=+-+;+>+,+'+)+!+~+{+]+^+/+(+_+:+<+[+}+|+1+2+3+4+5+6+7+8+9+0+a+b+c+d+e+f+g+h+i+j+k+l+m+n+o+p+q+r+s+t+u+v+w+x+y+z+A+B+",
"  . + @ # $ % & * = - ; > , ' ) ! ~ { ] ^ / ( _ : < [ } | 1 2 3 4 5 6 7 8 9 0 a b c d e f g h i j k l m n o p q r s t u v w x y z A B C D E F G H I J K L M N O P Q R S T U V W X Y Z `  ...+.@.#.$.%.&.*.*.=.-.;.>.,.'.).!.~.{.].^./.(._.:.<.[.}.|.1.2.3.J+5.6.6.7.8.9.0.a.b.c.d.e.f.g.h.i.j.k.l.l.m.n.o.p.q.q.r.s.t.u.v.w.x.y.z.A.B.C.D.E.F.G.H.I.J.K.L.M.N.O.P.Q.R.S.T.K+L+W.C+D+Y.Z.`. +.+E+@+M+N+%+O+*+=+-+;+>+,+'+)+!+~+{+]+^+/+(+_+:+G+[+}+|+1+2+3+4+5+6+7+7+9+H+a+b+c+d+e+f+g+h+i+j+k+l+m+n+o+p+q+r+s+t+u+v+w+x+y+z+A+B+",
"  . + @ # $ % & * = - ; > , ' ) ! ~ { ] ^ / ( _ : < [ } | 1 2 3 4 5 6 7 8 9 0 a b c d e f g h i j k l m n o p q r s t u v w x y z A B C D E F G H I J K L M N O P Q R S T U V W X Y Z `  ...+.@.#.$.%.&.*.*.=.-.;.>.,.'.).!.~.{.].^./.(._.:.<.[.}.|.1.2.3.J+5.6.6.7.8.9.0.a.b.c.d.e.f.g.h.i.j.k.l.l.m.n.o.p.q.q.r.s.t.u.v.w.x.y.z.A.B.C.D.E.F.G.H.I.J.K.L.M.N.O.P.Q.R.S.T.U.V.W.C+Y.Y.Z.`. +.+E+@+#+$+%+&+*+=+-+;+>+,+'+)+!+~+{+]+^+/+(+_+:+<+[+}+|+1+2+3+4+5+6+7+8+9+0+a+b+c+d+e+f+g+h+i+j+k+l+m+n+o+p+q+r+s+t+u+v+w+x+y+z+A+B+",
"  . + @ # $ % & * = - ; > , ' ) ! ~ { ] ^ / ( _ : < [ } | 1 2 3 4 5 6 7 8 9 0 a b c d e f g h i j k l m n o p q r s t u v w x y z A B C D E F G H I J K L M N O P Q R S T U V W X Y Z `  ...+.@.#.$.%.&.*.*.=.-.;.>.,.'.).!.~.{.].^./.(._.:.<.[.}.|.1.2.3.J+5.6.6.7.8.9.0.a.b.c.d.e.f.g.h.i.j.k.l.l.m.n.o.p.q.q.r.s.t.u.v.w.x.y.z.A.B.C.D.E.F.G.H.I.J.K.L.M.N.O.P.Q.R.S.T.K+L+I+C+D+Y.Z.`. +.+E+F+M+N+%+O+*+=+-+;+>+,+'+)+!+~+{+]+^+/+(+_+:+G+[+}+|+1+2+3+4+5+6+7+7+9+H+a+b+c+d+e+f+g+h+i+j+k+l+m+n+o+p+q+r+s+t+u+v+w+x+y+z+A+B+",
"  . + @ # $ % & * = - ; > , ' ) ! ~ { ] ^ / ( _ : < [ } | 1 2 3 4 5 6 7 8 9 0 a b c d e f g h i j k l m n o p q r s t u v w x y z A B C D E F G H I J K L M N O P Q R S T U V W X Y Z `  ...+.@.#.$.%.&.*.*.=.-.;.>.,.'.).!.~.{.].^./.(._.:.<.[.}.|.1.2.3.4.5.6.6.7.8.9.0.a.b.c.d.e.f.g.h.i.j.k.l.l.m.n.o.p.q.q.r.s.t.u.v.w.x.y.z.A.B.C.D.E.F.G.H.I.J.K.L.M.N.O.P.Q.R.S.T.U.V.W.X.Y.Y.Z.`. +.+++@+#+$+%+&+*+=+-+;+>+,+'+)+!+~+{+]+^+/+(+_+:+<+[+}+|+1+2+3+4+5+6+7+8+9+0+a+b+c+d+e+f+g+h+i+j+k+l+m+n+o+p+q+r+s+t+u+v+w+x+y+z+A+B+",
"  . + @ # $ % & * = - ; > , ' ) ! ~ { ] ^ / ( _ : < [ } | 1 2 3 4 5 6 7 8 9 0 a b c d e f g h i j k l m n o p q r s t u v w x y z A B C D E F G H I J K L M N O P Q R S T U V W X Y Z `  ...+.@.#.$.%.&.*.*.=.-.;.>.,.'.).!.~.{.].^./.(._.:.<.[.}.|.1.2.3.4.5.6.6.7.8.9.0.a.b.c.d.e.f.g.h.i.j.k.l.l.m.n.o.p.q.q.r.s.t.u.v.w.x.y.z.A.B.C.D.E.F.G.H.I.J.K.L.M.N.O.P.Q.R.S.T.U.V.W.C+Y.Y.Z.`. +.+E+@+#+$+%+&+*+=+-+;+>+,+'+)+!+~+{+]+^+/+(+_+:+G+[+}+|+1+2+3+4+5+6+7+8+9+0+a+b+c+d+e+f+g+h+i+j+k+l+m+n+o+p+q+r+s+t+u+v+w+x+y+z+A+B+",
"  . + @ # $ % & * = - ; > , ' ) ! ~ { ] ^ / ( _ : < [ } | 1 2 3 4 5 6 7 8 9 0 a b c d e f g h i j k l m n o p q r s t u v w x y z A B C D E F G H I J K L M N O P Q R S T U V W X Y Z `  ...+.@.#.$.%.&.*.*.=.-.;.>.,.'.).!.~.{.].^./.(._.:.<.[.}.|.1.2.3.4.5.6.6.7.8.9.0.a.b.c.d.e.f.g.h.i.j.k.l.l.m.n.o.p.q.q.r.s.t.u.v.w.x.y.z.A.B.C.D.E.F.G.H.I.J.K.L.M.N.O.P.Q.R.S.T.U.V.W.C+Y.Y.Z.`. +.+E+@+#+$+%+&+*+=+-+;+>+,+'+)+!+~+{+]+^+/+(+_+:+G+[+}+|+1+2+3+4+5+6+7+8+9+0+a+b+c+d+e+f+g+h+i+j+k+l+m+n+o+p+q+r+s+t+u+v+w+x+y+z+A+B+",
"  . + @ # $ % & * = - ; > , ' ) ! ~ { ] ^ / ( _ : < [ } | 1 2 3 4 5 6 7 8 9 0 a b c d e f g h i j k l m n o p q r s t u v w x y z A B C D E F G H I J K L M N O P Q R S T U V W X Y Z `  ...+.@.#.$.%.&.*.*.=.-.;.>.,.'.).!.~.{.].^./.(._.:.<.[.}.|.1.2.3.4.5.6.6.7.8.9.0.a.b.c.d.e.f.g.h.i.j.k.l.l.m.n.o.p.q.q.r.s.t.u.v.w.x.y.z.A.B.C.D.E.F.G.H.I.J.K.L.M.N.O.P.Q.R.S.T.U.V.W.C+D+Y.Z.`. +.+E+F+#+$+%+&+*+=+-+;+>+,+'+)+!+~+{+]+^+/+(+_+:+G+[+}+|+1+2+3+4+5+6+7+8+9+H+a+b+c+d+e+f+g+h+i+j+k+l+m+n+o+p+q+r+s+t+u+v+w+x+y+z+A+B+",
"  . + @ # $ % & * = - ; > , ' ) ! ~ { ] ^ / ( _ : < [ } | 1 2 3 4 5 6 7 8 9 0 a b c d e f g h i j k l m n o p q r s t u v w x y z A B C D E F G H I J K L M N O P Q R S T U V W X Y Z `  ...+.@.#.$.%.&.*.*.=.-.;.>.,.'.).!.~.{.].^./.(._.:.<.[.}.|.1.2.3.4.5.6.6.7.8.9.0.a.b.c.d.e.f.g.h.i.j.k.l.l.m.n.o.p.q.q.r.s.t.u.v.w.x.y.z.A.B.C.D.E.F.G.H.I.J.K.L.M.N.O.P.Q.R.S.T.U.V.W.X.Y.Y.Z.`. +.+++@+#+$+%+&+*+=+-+;+>+,+'+)+!+~+{+]+^+/+(+_+:+<+[+}+|+1+2+3+4+5+6+7+8+9+0+a+b+c+d+e+f+g+h+i+j+k+l+m+n+o+p+q+r+s+t+u+v+w+x+y+z+A+B+"};
