/* XPM */
static char * rainbow2_xpm[] = {
"32 16 32 1",
" 	c #00003C",
".	c #000052",
"+	c #000064",
"@	c #01007A",
"#	c #00157F",
"$	c #00277E",
"%	c #A20001",
"&	c #C00001",
"*	c #01397F",
"=	c #DB0300",
"-	c #E60000",
";	c #005081",
">	c #034F85",
",	c #FD1600",
"'	c #086C90",
")	c #007293",
"!	c #FD4300",
"~	c #0095A3",
"{	c #FD6100",
"]	c #00BDB6",
"^	c #FD8100",
"/	c #14D8B6",
"(	c #FDA100",
"_	c #36EAAB",
":	c #FDC000",
"<	c #5BF694",
"[	c #7DFA7B",
"}	c #FEDF00",
"|	c #A0FC5A",
"1	c #BEFD3B",
"2	c #DFFD18",
"3	c #F9F902",
" .+@@@#$*;'~]/_<[|123}:(^{!,,=&%",
" .++@@#$*;'~]/_<<|123}:(^{!--=%%",
"  +@@@#**;'~]/_<[|123}:(^{!,,-&%",
" .++@@+$*;'~]/_<<|123}:(^{!,,-%%",
" .+@@@#$*>'~]/_<[|123}:(^{!,,-&%",
" .+@@@#$*>'~]/_<[|123}:(^{!,,-&%",
" .+@@@#$*>'~]/_<[|123}:(^{!,,=&%",
" .+@@@#$*;'~]/_<[|123}:(^{!,--&%",
" .+@@@#$*;'~]/_<[||23}:(^{!,,=&%",
" .+@@@#$*>)~]/_<[|123}:(^{!,,=&%",
" .+@@@#$*>'~]/_<[|123}:(^{!,,=&%",
" .+@@@#$*;'~]/_<[||23}:(^{!,,-&%",
" ..+@@#$*;'~]/_<[|123}:(^{{,--&%",
" .+@@@#$*>'~]/_<[|123}:(^{!,,=&%",
" .+@@@#$*;'~]/_<[|123}:(^{!,,-&%",
" .+@@@#$*;'~]/_<[|123}:(^{!,,=&%"};
