/* XPM */
static char * rainbow_hr_xpm[] = {
"256 16 256 2",
". 	c #00008E",
"+ 	c #000093",
"@ 	c #000096",
"# 	c #00009A",
"$ 	c #00009E",
"% 	c #0000A2",
"& 	c #0000A6",
"* 	c #0000AA",
"= 	c #0000AE",
"- 	c #0000B2",
"; 	c #0000B5",
"> 	c #0000BA",
", 	c #0000BE",
"' 	c #0000C1",
") 	c #0000C5",
"! 	c #0000C9",
"~ 	c #0000CD",
"{ 	c #0000D1",
"] 	c #0000D5",
"^ 	c #0000D9",
"/ 	c #0000DD",
"( 	c #0000E1",
"_ 	c #0000E4",
": 	c #0000E9",
"< 	c #0000ED",
"[ 	c #0000F0",
"} 	c #0000F5",
"| 	c #0000F8",
"1 	c #0000FC",
"2 	c #0001FF",
"3 	c #0004FF",
"4 	c #0008FF",
"5 	c #000CFF",
"6 	c #0010FF",
"7 	c #0014FF",
"8 	c #0017FF",
"9 	c #001CFF",
"0 	c #0020FF",
"a 	c #0023FF",
"b 	c #0027FF",
"c 	c #002BFF",
"d 	c #002FFF",
"e 	c #0033FF",
"f 	c #0037FF",
"g 	c #003CFF",
"h 	c #003FFF",
"i 	c #0043FF",
"j 	c #0046FF",
"k 	c #004BFF",
"l 	c #004FFF",
"m 	c #0052FF",
"n 	c #0057FF",
"o 	c #005AFF",
"p 	c #005EFF",
"q 	c #0063FF",
"r 	c #0066FF",
"s 	c #006AFF",
"t 	c #006EFF",
"u 	c #0072FF",
"v 	c #0076FF",
"w 	c #007AFF",
"x 	c #007EFF",
"y 	c #0082FF",
"z 	c #0086FF",
"A 	c #008AFF",
"B 	c #008DFF",
"C 	c #0092FF",
"D 	c #0095FF",
"E 	c #0099FF",
"F 	c #009EFF",
"G 	c #00A1FF",
"H 	c #00A5FF",
"I 	c #00A9FF",
"J 	c #00ADFF",
"K 	c #00B1FF",
"L 	c #00B4FF",
"M 	c #00B9FF",
"N 	c #00BDFF",
"O 	c #00C0FF",
"P 	c #00C5FF",
"Q 	c #00C8FF",
"R 	c #00CCFF",
"S 	c #00D0FF",
"T 	c #00D4FF",
"U 	c #00D8FF",
"V 	c #00DCFF",
"W 	c #00E0FF",
"X 	c #00E4FF",
"Y 	c #00E8FF",
"Z 	c #00ECFF",
"` 	c #00EFFF",
" .	c #00F4FF",
"..	c #00F7FF",
"+.	c #00FBFF",
"@.	c #00FEFC",
"#.	c #04FFF9",
"$.	c #07FFF5",
"%.	c #0BFFF1",
"&.	c #0FFFED",
"*.	c #13FFE9",
"=.	c #17FFE5",
"-.	c #1BFFE1",
";.	c #1FFFDE",
">.	c #23FFD9",
",.	c #27FFD5",
"'.	c #2AFFD2",
").	c #2FFFCD",
"!.	c #32FFCA",
"~.	c #36FFC6",
"{.	c #3AFFC2",
"].	c #3EFFBE",
"^.	c #42FFBA",
"/.	c #46FFB6",
"(.	c #4AFFB2",
"_.	c #4EFFAE",
":.	c #51FFAB",
"<.	c #56FFA6",
"[.	c #59FFA3",
"}.	c #5DFF9F",
"|.	c #62FF9A",
"1.	c #65FF97",
"2.	c #69FF93",
"3.	c #6DFF8F",
"4.	c #71FF8B",
"5.	c #75FF87",
"6.	c #79FF83",
"7.	c #7DFF7F",
"8.	c #81FF7C",
"9.	c #85FF77",
"0.	c #89FF73",
"a.	c #8CFF70",
"b.	c #91FF6B",
"c.	c #94FF68",
"d.	c #98FF64",
"e.	c #9CFF60",
"f.	c #A0FF5C",
"g.	c #A4FF58",
"h.	c #A8FF54",
"i.	c #ACFF50",
"j.	c #B0FF4C",
"k.	c #B4FF48",
"l.	c #B8FF44",
"m.	c #BBFF41",
"n.	c #C0FF3C",
"o.	c #C4FF38",
"p.	c #C7FF35",
"q.	c #CCFF30",
"r.	c #CFFF2D",
"s.	c #D3FF29",
"t.	c #D7FF25",
"u.	c #DBFF21",
"v.	c #DFFF1D",
"w.	c #E3FF19",
"x.	c #E7FF15",
"y.	c #EBFF11",
"z.	c #EEFF0E",
"A.	c #F3FF09",
"B.	c #F7FF05",
"C.	c #FAFF03",
"D.	c #FEFE00",
"E.	c #FFFA00",
"F.	c #FFF600",
"G.	c #FFF200",
"H.	c #FFEE00",
"I.	c #FFEA00",
"J.	c #FFE600",
"K.	c #FFE200",
"L.	c #FFDF00",
"M.	c #FFDA00",
"N.	c #FFD600",
"O.	c #FFD300",
"P.	c #FFCE00",
"Q.	c #FFCB00",
"R.	c #FFC700",
"S.	c #FFC200",
"T.	c #FFBF00",
"U.	c #FFBB00",
"V.	c #FFB700",
"W.	c #FFB300",
"X.	c #FFAF00",
"Y.	c #FFAC00",
"Z.	c #FFA700",
"`.	c #FFA300",
" +	c #FFA000",
".+	c #FF9C00",
"++	c #FF9800",
"@+	c #FF9300",
"#+	c #FF9000",
"$+	c #FF8C00",
"%+	c #FF8700",
"&+	c #FF8400",
"*+	c #FF8000",
"=+	c #FF7D00",
"-+	c #FF7800",
";+	c #FF7400",
">+	c #FF7100",
",+	c #FF6C00",
"'+	c #FF6900",
")+	c #FF6500",
"!+	c #FF6000",
"~+	c #FF5D00",
"{+	c #FF5900",
"]+	c #FF5500",
"^+	c #FF5100",
"/+	c #FF4D00",
"(+	c #FF4900",
"_+	c #FF4500",
":+	c #FF4100",
"<+	c #FF3D00",
"[+	c #FF3A00",
"}+	c #FF3600",
"|+	c #FF3100",
"1+	c #FF2E00",
"2+	c #FF2A00",
"3+	c #FF2500",
"4+	c #FF2200",
"5+	c #FF1E00",
"6+	c #FF1A00",
"7+	c #FF1600",
"8+	c #FF1200",
"9+	c #FF0F00",
"0+	c #FF0A00",
"a+	c #FF0700",
"b+	c #FF0300",
"c+	c #FE0000",
"d+	c #FB0000",
"e+	c #F70000",
"f+	c #F30000",
"g+	c #EF0000",
"h+	c #EB0000",
"i+	c #E70000",
"j+	c #E30000",
"k+	c #DF0000",
"l+	c #DB0000",
"m+	c #D70000",
"n+	c #D40000",
"o+	c #CF0000",
"p+	c #CC0000",
"q+	c #C80000",
"r+	c #C30000",
"s+	c #C00000",
"t+	c #BC0000",
"u+	c #B80000",
"v+	c #B40000",
"w+	c #B00000",
"x+	c #AC0000",
"y+	c #A80000",
"z+	c #A50000",
"A+	c #A00000",
"B+	c #9C0000",
"C+	c #990000",
"D+	c #940000",
"E+	c #910000",
"F+	c #8D0000",
"G+	c #890000",
"H+	c #850000",
". + @ # $ % & * = - ; > , ' ) ! ~ { ] ^ / ( _ : < [ } | 1 2 3 4 5 6 7 8 9 0 a b c d e f g h i j k l m n o p q r s t u v w x y z A B C D E F G H I J K L M N O P Q R S T U V W X Y Z `  ...+.@.#.$.%.&.*.=.-.;.>.,.'.).!.~.{.].^./.(._.:.<.[.}.|.1.2.3.4.5.6.7.8.9.0.a.b.c.d.e.f.g.h.i.j.k.l.m.n.o.p.q.r.s.t.u.v.w.x.y.z.A.B.C.D.E.F.G.H.I.J.K.L.M.N.O.P.Q.R.S.T.U.V.W.X.Y.Z.`. +.+++@+#+$+%+&+*+=+-+;+>+,+'+)+!+~+{+]+^+/+(+_+:+<+[+}+|+1+2+3+4+5+6+7+8+9+0+a+b+c+d+e+f+g+h+i+j+k+l+m+n+o+p+q+r+s+t+u+v+w+x+y+z+A+B+C+D+E+F+G+H+",
". + @ # $ % & * = - ; > , ' ) ! ~ { ] ^ / ( _ : < [ } | 1 2 3 4 5 6 7 8 9 0 a b c d e f g h i j k l m n o p q r s t u v w x y z A B C D E F G H I J K L M N O P Q R S T U V W X Y Z `  ...+.@.#.$.%.&.*.=.-.;.>.,.'.).!.~.{.].^./.(._.:.<.[.}.|.1.2.3.4.5.6.7.8.9.0.a.b.c.d.e.f.g.h.i.j.k.l.m.n.o.p.q.r.s.t.u.v.w.x.y.z.A.B.C.D.E.F.G.H.I.J.K.L.M.N.O.P.Q.R.S.T.U.V.W.X.Y.Z.`. +.+++@+#+$+%+&+*+=+-+;+>+,+'+)+!+~+{+]+^+/+(+_+:+<+[+}+|+1+2+3+4+5+6+7+8+9+0+a+b+c+d+e+f+g+h+i+j+k+l+m+n+o+p+q+r+s+t+u+v+w+x+y+z+A+B+C+D+E+F+G+H+",
". + @ # $ % & * = - ; > , ' ) ! ~ { ] ^ / ( _ : < [ } | 1 2 3 4 5 6 7 8 9 0 a b c d e f g h i j k l m n o p q r s t u v w x y z A B C D E F G H I J K L M N O P Q R S T U V W X Y Z `  ...+.@.#.$.%.&.*.=.-.;.>.,.'.).!.~.{.].^./.(._.:.<.[.}.|.1.2.3.4.5.6.7.8.9.0.a.b.c.d.e.f.g.h.i.j.k.l.m.n.o.p.q.r.s.t.u.v.w.x.y.z.A.B.C.D.E.F.G.H.I.J.K.L.M.N.O.P.Q.R.S.T.U.V.W.X.Y.Z.`. +.+++@+#+$+%+&+*+=+-+;+>+,+'+)+!+~+{+]+^+/+(+_+:+<+[+}+|+1+2+3+4+5+6+7+8+9+0+a+b+c+d+e+f+g+h+i+j+k+l+m+n+o+p+q+r+s+t+u+v+w+x+y+z+A+B+C+D+E+F+G+H+",
". + @ # $ % & * = - ; > , ' ) ! ~ { ] ^ / ( _ : < [ } | 1 2 3 4 5 6 7 8 9 0 a b c d e f g h i j k l m n o p q r s t u v w x y z A B C D E F G H I J K L M N O P Q R S T U V W X Y Z `  ...+.@.#.$.%.&.*.=.-.;.>.,.'.).!.~.{.].^./.(._.:.<.[.}.|.1.2.3.4.5.6.7.8.9.0.a.b.c.d.e.f.g.h.i.j.k.l.m.n.o.p.q.r.s.t.u.v.w.x.y.z.A.B.C.D.E.F.G.H.I.J.K.L.M.N.O.P.Q.R.S.T.U.V.W.X.Y.Z.`. +.+++@+#+$+%+&+*+=+-+;+>+,+'+)+!+~+{+]+^+/+(+_+:+<+[+}+|+1+2+3+4+5+6+7+8+9+0+a+b+c+d+e+f+g+h+i+j+k+l+m+n+o+p+q+r+s+t+u+v+w+x+y+z+A+B+C+D+E+F+G+H+",
". + @ # $ % & * = - ; > , ' ) ! ~ { ] ^ / ( _ : < [ } | 1 2 3 4 5 6 7 8 9 0 a b c d e f g h i j k l m n o p q r s t u v w x y z A B C D E F G H I J K L M N O P Q R S T U V W X Y Z `  ...+.@.#.$.%.&.*.=.-.;.>.,.'.).!.~.{.].^./.(._.:.<.[.}.|.1.2.3.4.5.6.7.8.9.0.a.b.c.d.e.f.g.h.i.j.k.l.m.n.o.p.q.r.s.t.u.v.w.x.y.z.A.B.C.D.E.F.G.H.I.J.K.L.M.N.O.P.Q.R.S.T.U.V.W.X.Y.Z.`. +.+++@+#+$+%+&+*+=+-+;+>+,+'+)+!+~+{+]+^+/+(+_+:+<+[+}+|+1+2+3+4+5+6+7+8+9+0+a+b+c+d+e+f+g+h+i+j+k+l+m+n+o+p+q+r+s+t+u+v+w+x+y+z+A+B+C+D+E+F+G+H+",
". + @ # $ % & * = - ; > , ' ) ! ~ { ] ^ / ( _ : < [ } | 1 2 3 4 5 6 7 8 9 0 a b c d e f g h i j k l m n o p q r s t u v w x y z A B C D E F G H I J K L M N O P Q R S T U V W X Y Z `  ...+.@.#.$.%.&.*.=.-.;.>.,.'.).!.~.{.].^./.(._.:.<.[.}.|.1.2.3.4.5.6.7.8.9.0.a.b.c.d.e.f.g.h.i.j.k.l.m.n.o.p.q.r.s.t.u.v.w.x.y.z.A.B.C.D.E.F.G.H.I.J.K.L.M.N.O.P.Q.R.S.T.U.V.W.X.Y.Z.`. +.+++@+#+$+%+&+*+=+-+;+>+,+'+)+!+~+{+]+^+/+(+_+:+<+[+}+|+1+2+3+4+5+6+7+8+9+0+a+b+c+d+e+f+g+h+i+j+k+l+m+n+o+p+q+r+s+t+u+v+w+x+y+z+A+B+C+D+E+F+G+H+",
". + @ # $ % & * = - ; > , ' ) ! ~ { ] ^ / ( _ : < [ } | 1 2 3 4 5 6 7 8 9 0 a b c d e f g h i j k l m n o p q r s t u v w x y z A B C D E F G H I J K L M N O P Q R S T U V W X Y Z `  ...+.@.#.$.%.&.*.=.-.;.>.,.'.).!.~.{.].^./.(._.:.<.[.}.|.1.2.3.4.5.6.7.8.9.0.a.b.c.d.e.f.g.h.i.j.k.l.m.n.o.p.q.r.s.t.u.v.w.x.y.z.A.B.C.D.E.F.G.H.I.J.K.L.M.N.O.P.Q.R.S.T.U.V.W.X.Y.Z.`. +.+++@+#+$+%+&+*+=+-+;+>+,+'+)+!+~+{+]+^+/+(+_+:+<+[+}+|+1+2+3+4+5+6+7+8+9+0+a+b+c+d+e+f+g+h+i+j+k+l+m+n+o+p+q+r+s+t+u+v+w+x+y+z+A+B+C+D+E+F+G+H+",
". + @ # $ % & * = - ; > , ' ) ! ~ { ] ^ / ( _ : < [ } | 1 2 3 4 5 6 7 8 9 0 a b c d e f g h i j k l m n o p q r s t u v w x y z A B C D E F G H I J K L M N O P Q R S T U V W X Y Z `  ...+.@.#.$.%.&.*.=.-.;.>.,.'.).!.~.{.].^./.(._.:.<.[.}.|.1.2.3.4.5.6.7.8.9.0.a.b.c.d.e.f.g.h.i.j.k.l.m.n.o.p.q.r.s.t.u.v.w.x.y.z.A.B.C.D.E.F.G.H.I.J.K.L.M.N.O.P.Q.R.S.T.U.V.W.X.Y.Z.`. +.+++@+#+$+%+&+*+=+-+;+>+,+'+)+!+~+{+]+^+/+(+_+:+<+[+}+|+1+2+3+4+5+6+7+8+9+0+a+b+c+d+e+f+g+h+i+j+k+l+m+n+o+p+q+r+s+t+u+v+w+x+y+z+A+B+C+D+E+F+G+H+",
". + @ # $ % & * = - ; > , ' ) ! ~ { ] ^ / ( _ : < [ } | 1 2 3 4 5 6 7 8 9 0 a b c d e f g h i j k l m n o p q r s t u v w x y z A B C D E F G H I J K L M N O P Q R S T U V W X Y Z `  ...+.@.#.$.%.&.*.=.-.;.>.,.'.).!.~.{.].^./.(._.:.<.[.}.|.1.2.3.4.5.6.7.8.9.0.a.b.c.d.e.f.g.h.i.j.k.l.m.n.o.p.q.r.s.t.u.v.w.x.y.z.A.B.C.D.E.F.G.H.I.J.K.L.M.N.O.P.Q.R.S.T.U.V.W.X.Y.Z.`. +.+++@+#+$+%+&+*+=+-+;+>+,+'+)+!+~+{+]+^+/+(+_+:+<+[+}+|+1+2+3+4+5+6+7+8+9+0+a+b+c+d+e+f+g+h+i+j+k+l+m+n+o+p+q+r+s+t+u+v+w+x+y+z+A+B+C+D+E+F+G+H+",
". + @ # $ % & * = - ; > , ' ) ! ~ { ] ^ / ( _ : < [ } | 1 2 3 4 5 6 7 8 9 0 a b c d e f g h i j k l m n o p q r s t u v w x y z A B C D E F G H I J K L M N O P Q R S T U V W X Y Z `  ...+.@.#.$.%.&.*.=.-.;.>.,.'.).!.~.{.].^./.(._.:.<.[.}.|.1.2.3.4.5.6.7.8.9.0.a.b.c.d.e.f.g.h.i.j.k.l.m.n.o.p.q.r.s.t.u.v.w.x.y.z.A.B.C.D.E.F.G.H.I.J.K.L.M.N.O.P.Q.R.S.T.U.V.W.X.Y.Z.`. +.+++@+#+$+%+&+*+=+-+;+>+,+'+)+!+~+{+]+^+/+(+_+:+<+[+}+|+1+2+3+4+5+6+7+8+9+0+a+b+c+d+e+f+g+h+i+j+k+l+m+n+o+p+q+r+s+t+u+v+w+x+y+z+A+B+C+D+E+F+G+H+",
". + @ # $ % & * = - ; > , ' ) ! ~ { ] ^ / ( _ : < [ } | 1 2 3 4 5 6 7 8 9 0 a b c d e f g h i j k l m n o p q r s t u v w x y z A B C D E F G H I J K L M N O P Q R S T U V W X Y Z `  ...+.@.#.$.%.&.*.=.-.;.>.,.'.).!.~.{.].^./.(._.:.<.[.}.|.1.2.3.4.5.6.7.8.9.0.a.b.c.d.e.f.g.h.i.j.k.l.m.n.o.p.q.r.s.t.u.v.w.x.y.z.A.B.C.D.E.F.G.H.I.J.K.L.M.N.O.P.Q.R.S.T.U.V.W.X.Y.Z.`. +.+++@+#+$+%+&+*+=+-+;+>+,+'+)+!+~+{+]+^+/+(+_+:+<+[+}+|+1+2+3+4+5+6+7+8+9+0+a+b+c+d+e+f+g+h+i+j+k+l+m+n+o+p+q+r+s+t+u+v+w+x+y+z+A+B+C+D+E+F+G+H+",
". + @ # $ % & * = - ; > , ' ) ! ~ { ] ^ / ( _ : < [ } | 1 2 3 4 5 6 7 8 9 0 a b c d e f g h i j k l m n o p q r s t u v w x y z A B C D E F G H I J K L M N O P Q R S T U V W X Y Z `  ...+.@.#.$.%.&.*.=.-.;.>.,.'.).!.~.{.].^./.(._.:.<.[.}.|.1.2.3.4.5.6.7.8.9.0.a.b.c.d.e.f.g.h.i.j.k.l.m.n.o.p.q.r.s.t.u.v.w.x.y.z.A.B.C.D.E.F.G.H.I.J.K.L.M.N.O.P.Q.R.S.T.U.V.W.X.Y.Z.`. +.+++@+#+$+%+&+*+=+-+;+>+,+'+)+!+~+{+]+^+/+(+_+:+<+[+}+|+1+2+3+4+5+6+7+8+9+0+a+b+c+d+e+f+g+h+i+j+k+l+m+n+o+p+q+r+s+t+u+v+w+x+y+z+A+B+C+D+E+F+G+H+",
". + @ # $ % & * = - ; > , ' ) ! ~ { ] ^ / ( _ : < [ } | 1 2 3 4 5 6 7 8 9 0 a b c d e f g h i j k l m n o p q r s t u v w x y z A B C D E F G H I J K L M N O P Q R S T U V W X Y Z `  ...+.@.#.$.%.&.*.=.-.;.>.,.'.).!.~.{.].^./.(._.:.<.[.}.|.1.2.3.4.5.6.7.8.9.0.a.b.c.d.e.f.g.h.i.j.k.l.m.n.o.p.q.r.s.t.u.v.w.x.y.z.A.B.C.D.E.F.G.H.I.J.K.L.M.N.O.P.Q.R.S.T.U.V.W.X.Y.Z.`. +.+++@+#+$+%+&+*+=+-+;+>+,+'+)+!+~+{+]+^+/+(+_+:+<+[+}+|+1+2+3+4+5+6+7+8+9+0+a+b+c+d+e+f+g+h+i+j+k+l+m+n+o+p+q+r+s+t+u+v+w+x+y+z+A+B+C+D+E+F+G+H+",
". + @ # $ % & * = - ; > , ' ) ! ~ { ] ^ / ( _ : < [ } | 1 2 3 4 5 6 7 8 9 0 a b c d e f g h i j k l m n o p q r s t u v w x y z A B C D E F G H I J K L M N O P Q R S T U V W X Y Z `  ...+.@.#.$.%.&.*.=.-.;.>.,.'.).!.~.{.].^./.(._.:.<.[.}.|.1.2.3.4.5.6.7.8.9.0.a.b.c.d.e.f.g.h.i.j.k.l.m.n.o.p.q.r.s.t.u.v.w.x.y.z.A.B.C.D.E.F.G.H.I.J.K.L.M.N.O.P.Q.R.S.T.U.V.W.X.Y.Z.`. +.+++@+#+$+%+&+*+=+-+;+>+,+'+)+!+~+{+]+^+/+(+_+:+<+[+}+|+1+2+3+4+5+6+7+8+9+0+a+b+c+d+e+f+g+h+i+j+k+l+m+n+o+p+q+r+s+t+u+v+w+x+y+z+A+B+C+D+E+F+G+H+",
". + @ # $ % & * = - ; > , ' ) ! ~ { ] ^ / ( _ : < [ } | 1 2 3 4 5 6 7 8 9 0 a b c d e f g h i j k l m n o p q r s t u v w x y z A B C D E F G H I J K L M N O P Q R S T U V W X Y Z `  ...+.@.#.$.%.&.*.=.-.;.>.,.'.).!.~.{.].^./.(._.:.<.[.}.|.1.2.3.4.5.6.7.8.9.0.a.b.c.d.e.f.g.h.i.j.k.l.m.n.o.p.q.r.s.t.u.v.w.x.y.z.A.B.C.D.E.F.G.H.I.J.K.L.M.N.O.P.Q.R.S.T.U.V.W.X.Y.Z.`. +.+++@+#+$+%+&+*+=+-+;+>+,+'+)+!+~+{+]+^+/+(+_+:+<+[+}+|+1+2+3+4+5+6+7+8+9+0+a+b+c+d+e+f+g+h+i+j+k+l+m+n+o+p+q+r+s+t+u+v+w+x+y+z+A+B+C+D+E+F+G+H+",
". + @ # $ % & * = - ; > , ' ) ! ~ { ] ^ / ( _ : < [ } | 1 2 3 4 5 6 7 8 9 0 a b c d e f g h i j k l m n o p q r s t u v w x y z A B C D E F G H I J K L M N O P Q R S T U V W X Y Z `  ...+.@.#.$.%.&.*.=.-.;.>.,.'.).!.~.{.].^./.(._.:.<.[.}.|.1.2.3.4.5.6.7.8.9.0.a.b.c.d.e.f.g.h.i.j.k.l.m.n.o.p.q.r.s.t.u.v.w.x.y.z.A.B.C.D.E.F.G.H.I.J.K.L.M.N.O.P.Q.R.S.T.U.V.W.X.Y.Z.`. +.+++@+#+$+%+&+*+=+-+;+>+,+'+)+!+~+{+]+^+/+(+_+:+<+[+}+|+1+2+3+4+5+6+7+8+9+0+a+b+c+d+e+f+g+h+i+j+k+l+m+n+o+p+q+r+s+t+u+v+w+x+y+z+A+B+C+D+E+F+G+H+"};
