/* XPM */
static char * rainbow2_hr_xpm[] = {
"256 16 256 2",
"  	c #000000",
". 	c #000039",
"+ 	c #00003E",
"@ 	c #000043",
"# 	c #000049",
"$ 	c #00004F",
"% 	c #000055",
"& 	c #00005C",
"* 	c #07004A",
"= 	c #000064",
"- 	c #060050",
"; 	c #00006B",
"> 	c #070057",
", 	c #00007C",
"' 	c #000173",
") 	c #09005E",
"! 	c #00017D",
"~ 	c #090075",
"{ 	c #01027F",
"] 	c #00067A",
"^ 	c #000981",
"/ 	c #0C097D",
"( 	c #000E7D",
"_ 	c #00107F",
": 	c #0D0D77",
"< 	c #04137B",
"[ 	c #001581",
"} 	c #00187C",
"| 	c #0A157D",
"1 	c #001A7F",
"2 	c #0B1878",
"3 	c #031E7C",
"4 	c #001F82",
"5 	c #002380",
"6 	c #930005",
"7 	c #960000",
"8 	c #8D0401",
"9 	c #0C227A",
"0 	c #00267D",
"a 	c #9D0003",
"b 	c #9F0000",
"c 	c #A90003",
"d 	c #AC0000",
"e 	c #002B80",
"f 	c #A30400",
"g 	c #082B7C",
"h 	c #B50003",
"i 	c #B80000",
"j 	c #002F7F",
"k 	c #00317A",
"l 	c #C00001",
"m 	c #C40200",
"n 	c #01347D",
"o 	c #CB0000",
"p 	c #003483",
"q 	c #C40304",
"r 	c #CF0001",
"s 	c #D70000",
"t 	c #003881",
"u 	c #D00300",
"v 	c #DB0200",
"w 	c #E10002",
"x 	c #E20005",
"y 	c #003C7E",
"z 	c #0A397D",
"A 	c #E50000",
"B 	c #003F82",
"C 	c #EE0002",
"D 	c #F20000",
"E 	c #00417E",
"F 	c #0F3D7B",
"G 	c #F90000",
"H 	c #FC0001",
"I 	c #044381",
"J 	c #FF0204",
"K 	c #FF0300",
"L 	c #004784",
"M 	c #004C82",
"N 	c #0B4980",
"O 	c #004F86",
"P 	c #0F4E7F",
"Q 	c #005384",
"R 	c #005888",
"S 	c #FB1801",
"T 	c #085A85",
"U 	c #005F88",
"V 	c #FE1E04",
"W 	c #00628C",
"X 	c #FF2000",
"Y 	c #F62400",
"Z 	c #006790",
"` 	c #00698D",
" .	c #006F92",
"..	c #FC2D04",
"+.	c #FE2E00",
"@.	c #FF3200",
"#.	c #0B728F",
"$.	c #007794",
"%.	c #FC3906",
"&.	c #007B98",
"*.	c #FE3A00",
"=.	c #008096",
"-.	c #FB4206",
";.	c #FD4400",
">.	c #0A859B",
",.	c #FF4700",
"'.	c #008BA0",
").	c #FB4B07",
"!.	c #FE4D00",
"~.	c #0D8C9C",
"{.	c #00909F",
"].	c #0093A2",
"^.	c #FB5400",
"/.	c #0096A5",
"(.	c #FF5700",
"_.	c #FB5B00",
":.	c #0A9AA9",
"<.	c #009EA6",
"[.	c #FF5E01",
"}.	c #009FAC",
"|.	c #00A3AA",
"1.	c #FD6401",
"2.	c #FF6700",
"3.	c #10A3AB",
"4.	c #00A9B0",
"5.	c #FC6A02",
"6.	c #FF6C00",
"7.	c #FA6F02",
"8.	c #00AEB4",
"9.	c #00B0B6",
"0.	c #FE7200",
"a.	c #00B2B2",
"b.	c #F97404",
"c.	c #18ADAE",
"d.	c #00B6B5",
"e.	c #FD7800",
"f.	c #00B9B8",
"g.	c #FC7D00",
"h.	c #00BCB4",
"i.	c #FF8000",
"j.	c #00C1B3",
"k.	c #00C4B6",
"l.	c #00C4BB",
"m.	c #FF8601",
"n.	c #04C7B8",
"o.	c #00C9B3",
"p.	c #FD8B03",
"q.	c #FF8D00",
"r.	c #00CDB7",
"s.	c #00CDBD",
"t.	c #FB8F03",
"u.	c #FD9100",
"v.	c #13CABC",
"w.	c #F99306",
"x.	c #00D3B6",
"y.	c #FC9500",
"z.	c #07D3BC",
"A.	c #1CCFB3",
"B.	c #FF9900",
"C.	c #03D9BB",
"D.	c #00DBB7",
"E.	c #FD9C00",
"F.	c #1AD7B4",
"G.	c #FDA200",
"H.	c #12DEB3",
"I.	c #03E4B2",
"J.	c #FFA500",
"K.	c #23DAB7",
"L.	c #FBA704",
"M.	c #F8AA04",
"N.	c #FFAA00",
"O.	c #1DE1B6",
"P.	c #FDAE00",
"Q.	c #2DE2B1",
"R.	c #FFB100",
"S.	c #23E7AE",
"T.	c #FDB400",
"U.	c #3BE4AD",
"V.	c #FDBA00",
"W.	c #35EAAB",
"X.	c #FFBD00",
"Y.	c #FCBF07",
"Z.	c #FEC000",
"`.	c #41EDA8",
" +	c #4AEFA3",
".+	c #43F29F",
"++	c #FEC600",
"@+	c #53F19F",
"#+	c #4CF49B",
"$+	c #FDCC00",
"%+	c #53F696",
"&+	c #5CF59C",
"*+	c #60F596",
"=+	c #59F891",
"-+	c #5EF88B",
";+	c #FDD206",
">+	c #FED300",
",+	c #66F691",
"'+	c #63FA86",
")+	c #71F591",
"!+	c #67FA7F",
"~+	c #6BF88B",
"{+	c #75F68B",
"]+	c #FDD800",
"^+	c #6FF986",
"/+	c #79F886",
"(+	c #FFDA00",
"_+	c #74FB81",
":+	c #76FB7A",
"<+	c #7DF981",
"[+	c #89F87A",
"}+	c #7BFD75",
"|+	c #7EFD6E",
"1+	c #81FB7B",
"2+	c #FEDF00",
"3+	c #84FB75",
"4+	c #8CF974",
"5+	c #87FC6E",
"6+	c #8AFD68",
"7+	c #90FB6F",
"8+	c #FCE303",
"9+	c #93FC68",
"0+	c #9CFA60",
"a+	c #97FD59",
"b+	c #95FD61",
"c+	c #9FFC5A",
"d+	c #FFE600",
"e+	c #A2FD53",
"f+	c #A9FC53",
"g+	c #ADFD41",
"h+	c #ABFD4B",
"i+	c #FEEB00",
"j+	c #B5FD43",
"k+	c #B3FD4C",
"l+	c #BBFC44",
"m+	c #B8FF3A",
"n+	c #BEFE3B",
"o+	c #C5FC3B",
"p+	c #C1FF31",
"q+	c #FDF100",
"r+	c #C7FE32",
"s+	c #CAFF24",
"t+	c #CEFD33",
"u+	c #D6FC26",
"v+	c #D0FE26",
"w+	c #D9FF16",
"x+	c #FCF603",
"y+	c #E7FD00",
"z+	c #E1FF00",
"A+	c #DFFE19",
"B+	c #FFF800",
"C+	c #EFFE05",
"D+	c #FAFB0C",
"E+	c #FBFC00",
"F+	c #F5FD0E",
"G+	c #F7FE00",
"  . . + + + @ @ # # * $ $ $ % % > & & & = = = ; ; ; ' ' ~ ! ! ! ! ! ! ! ! ! ! ! ! ! ! ! ~ ] / ( ( : < | } } 2 3 3 9 0 0 0 g j k k k t z y E E E N M P P Q Q T T U U ` `  .#.$.&.&.>.'.~.].:.}.3.4.8.a.f.h.l.l.n.s.r.x.x.F.K.O.O.Q.U.S.W.`.`. + +@+#+%+%+=+,+*+)+{+{+/+/+<+[+4+4+7+9+0+c+c+e+f+h+k+j+l+n+o+o+r+r+t+v+u+A+A+A+z+y+C+C+G+E+D+x+x+q+i+d+2+2+(+(+]+;+$+++++Y.Y.V.V.T.P.M.L.L.G.E.y.w.t.t.p.m.i.g.b.b.b.7.5.5._._._.^.^.).-.-.-.%.%.........Y Y S S S S S G G G D C C A A x v s u o o q l l h h h c c f f a a a a 6 6 ",
"  . . . + @ + @ @ # # # $ $ % % > > & ) ) = ; = ; ; ; ' , ~ ~ ! ! ! ! ! ! ~ ~ ! ~ ~ ~ ~ ] ' ( ' : < ( < < 2 3 2 9 3 9 g g g g j k k z t z y E E E N M M P R Q T U U W `  . . .&.=.>.~.].].}.<.3.4.a.d.h.h.j.j.s.r.A.A.F.C.D.F.O.Q.S.U.U.`. +`. +.+@+&+*+*+,+)+)+{+/+/+/+[+[+[+7+7+7+9+0+c+f+f+f+h+l+l+o+o+o+o+t+r+t+u+u+A+A+y+y+C+F+G+E+x+x+q+q+q+i+8+(+2+(+;+;+$+++++++Y.Y.T.P.M.N.L.G.G.w.w.w.w.p.m.g.g.g.g.b.b.7.7.5._._._.^.^.!.).-.%.;.*.%.....V ....C Y C C G V C S C D C C A A x v s u o q q l q h c c f c a a a a 6 6 6 ",
"  . . + + @ @ @ # $ * # $ $ % % & & & & ) ) = = ; ' ' ' ~ , ~ ~ ~ , , ~ ! , ~ ! ! , ! ! ! ! ^ ( ] : ( < < < } } 3 3 3 0 0 j g j p k n y y y E E E N M M Q T T T U U ` `  .$.#.&.&.>.'.{.].:.}.4.4.9.a.h.h.l.j.o.r.z.x.F.K.D.F.O.Q.S.W.W.U. + + +@+@+&+*+%+*+,+,+{+{+/+/+/+1+[+7+9+9+b+0+c+c+f+f+k+k+l+l+o+r+r+t+v+v+u+u+y+A+y+y+C+C+G+D+D+x+x+q+d+d+8+2+]+(+>+$+;+++++Y.Y.V.V.T.P.M.L.G.G.E.w.u.t.p.p.m.g.b.g.7.7.5._.5._.^.^.^.^.).,.!.-.-.*.......V S ..V V J V G J H J S C C C A A x v s u u m q l q l h h c c f b a a a 6 6 ",
"  . . . + + @ @ @ # $ $ $ $ % > & & & = = = ; ; ; ; ; ; , ~ , , , , , , , , ! , , ! ! , ! ] ] ] ( ( ( ( < } } } 3 3 0 0 0 e g j k k k t y E E E N L M M P Q R U U U W ` #.#.$.&.=.>.'.{.{.}.|.|.9.a.f.f.j.j.l.v.r.F.F.F.H.O.Q.Q.Q.U.W.U.`.`.`. + +@+&+&+*+=+~+~+~+/+/+<+1+[+4+4+7+9+0+0+c+f+f+h+k+k+n+n+n+r+r+r+v+v+w+A+A+A+y+C+C+F+G+E+x+x+q+q+q+i+8+2+]+2+(+>+$+$+++++V.V.T.T.R.L.L.G.E.E.B.y.t.p.m.i.b.g.b.b.7.5.5._.1._.^.^.).!.).-.%.%.%.*.@.....Y S S S V J J H H G G H G G D C A x x v s r o l m i i d d f c f a a a 6 8 ",
"  . + + + + @ # @ # $ $ % $ & % & = ) ) = = = = ; ; ' ' ~ ~ , , ! ! , , ! , , , ! { , { ! ! ^ ] ] ( ( ( < } } } 3 3 3 0 0 e g g j k k t z y y E E L M M M Q Q U U ` ` `  . .&.&.&.>.'.].].}.3.4.4.a.h.f.j.o.o.o.o.A.F.F.F.D.O.I.U.S.W.W.W.`.`. + +@+@+&+*+=+~+^+^+/+/+<+:+3+5+5+7+9+b+0+a+c+f+f+k+j+n+n+n+r+r+r+v+v+u+A+A+y+y+y+C+F+E+B+x+q+q+i+i+d+8+8+(+]+]+>+$+++Z.++Y.V.T.R.N.L.G.G.E.E.w.u.t.p.m.m.b.b.7.7.7.5._._._.^.^.!.!.!.!.;.*.*.@.......V ..V V J V J J J J G G G D D C C A x v s s o o m q i i d h c b f b 7 a 6 6 ",
"  . . + @ @ @ @ * $ * $ $ % % & & & = = = = = ; ; ' ' ' , , , , , , , , ! , ! , , , { { ! ^ ] ^ ( ( ( < < | } 4 3 3 0 0 0 e e j j p n t y y E E E L N O Q Q T T U U ` `  .#.#.=.=.>.~.{.{.<.}.4.9.a.a.h.l.j.n.o.x.x.F.F.H.H.H.O.I.U.W.W.U.`. + + +.+&+&+*+,+~+^+^+_+:+_+1+}+3+5+9+6+0+a+c+f+f+h+k+g+j+n+p+r+r+r+v+u+v+A+A+A+y+C+C+F+G+D+x+x+q+q+i+i+2+2+2+]+>+>+$+++++Y.V.V.T.R.R.N.L.G.E.w.B.u.p.p.p.i.i.e.b.5.5.5.5.1._._.(.(.!.!.;.;.;.*.*.*.@.@...V V S V J V J H H H H G G S D C D A v v s r o m l l i h d c f b a a 7 7 8 ",
"  . . + @ @ @ # # $ $ $ % % % & & & & = = ; = ; ; ; ; ' , ' { , , { , , , , , , , , , { ! ! ^ ^ / ( ( < 1 < } 4 3 5 5 0 0 e j j k p p t z y E E L L N O Q Q R R T U Z `  .#. .&.=.>.~.]./.<.|.8.9.d.h.h.h.o.s.o.A.A.F.F.F.O.O.O.S.U.U.W.W.W.`. + +@+&+&+%+=+'+!+_+_+:+:+3+|+5+5+9+6+0+0+a+c+f+h+k+j+l+n+n+p+r+r+r+u+v+A+A+A+y+C+C+F+D+D+B+x+x+q+i+i+2+2+]+(+>+$+$+++Z.Z.V.T.T.R.P.N.J.G.E.B.B.u.p.m.p.m.i.e.0.7.5.1.1.1.^.^.(.(.!.!.!.-.;.%.%.....@.....V V X X V V J H H G G C S C A A v v s s o o o l i i h c c b b 7 7 7 6 8 ",
"  . + + @ @ @ @ # # $ $ $ % % > & & = = ; = ; ; ' ; ' , ' , , , , , { , , , { { , { { , ! ^ ] ^ ( ( ( ( < 1 } } 4 3 0 0 e e e j j k k t t B y E L L N M Q Q R U U U ` #. . .$.=.&.>.~.{.<.<.|.c.a.9.d.h.j.j.k.s.r.x.x.F.D.D.O.Q.Q.I.U.W.W.`. + +@+.+#+%+=+-+^+!+!+_+:+}+}+5+5+7+6+b+b+a+c+e+e+f+k+j+j+l+n+r+r+r+v+v+u+A+A+C+A+C+F+D+D+B+B+q+q+q+i+8+d+2+2+(+>+>+$+++++Z.Y.V.T.P.N.N.J.E.E.w.u.y.u.p.m.i.i.e.e.5.5.5.1._.[.(.(.!.!.;.;.;.*.*.@.*.@.V X V V V S K H J S H G H D G C C C x A v s s u o m q i h d h c c b b 7 7 7 6 ",
"  . . + @ @ @ @ # # $ $ % % % & & & ) & ; ; = ; ; , ; , , , ~ , , , , { , , , { , , , ! ! ] ] ^ ^ _ ( ( < | } 3 3 3 5 0 e e j j j n p t y B E E L L N O O Q Q R U U Z `  .$.$.=.=.>.{.{.].}.}.4.a.d.h.h.h.o.k.o.r.x.x.F.F.F.O.O.Q.S.U.W.`.`. + +@+@+&+*+=+-+'+_+_+_+_+}+}+3+6+7+9+9+0+c+e+e+f+h+k+k+l+l+n+o+r+t+t+u+u+A+A+A+C+C+C+F+F+D+D+B+x+q+i+d+2+2+]+2+>+>+;+++++Y.Y.V.T.T.M.N.N.J.E.E.B.u.t.p.p.i.i.e.e.0.6.5.2.2._.(.(.(.!.!.!.;.;.*.%...@.@.......S S S X H J K S H G D D C C x x v s r o m o q l i d c c f f b 7 7 7 6 ",
"  . + + + @ @ # # $ $ $ % % % & & & = = = = ; ; ' ; ' ' ' ~ , ! , , , , { { { { { { , ! ! ! ] ^ ( ( [ < [ } } } 4 5 0 0 0 e e k p p t t t y y E L L N O Q R R U U U ` `  .#. .$.=.=.~.{.<.<.|.4.4.a.a.d.j.l.k.s.r.r.z.C.C.K.D.O.Q.Q.W.W.`.`. +@+.+#+%+%+,+~+'+^+!+<+:+<+1+3+}+7+5+b+b+a+c+f+f+f+k+l+j+l+n+n+o+r+s+t+u+u+A+A+A+y+C+G+E+D+B+B+q+q+q+d+8+2+2+]+(+$+$+++Z.Z.X.V.V.R.R.M.L.J.E.B.u.y.u.p.m.m.i.e.b.0.0.5.5.[.[.[.(.(.!.!.;.;.-.-.*.@.....X V S S S S K J X K G G D G C C C A A s u u m o m m l h h h c c b b a 7 6 6 ",
"  . . + @ @ @ # # # $ $ $ % % & & & & ) = ; ; ; ; ; ' ~ , , ~ , , , , , , , , , { { , ! ! ^ / ^ ^ ( ( < [ } } 4 4 4 0 0 0 e e k k k t t y y E E L L N M Q R Q R U U ` `  .$.$.&.=.>.~.{.].<.|.|.9.a.h.d.h.j.l.s.s.r.s.K.C.K.O.O.Q.Q.U.W.W.`. +@+@+&+%+=+-+~+'+^+^+/+_+<+1+3+7+7+9+9+0+c+c+e+f+f+k+k+l+l+n+r+o+r+v+t+u+A+A+y+y+C+C+G+E+E+E+B+x+q+q+d+2+2+]+(+(+>+>+$+++++Y.V.V.T.M.P.L.L.E.E.w.y.t.p.m.i.i.e.e.0.6.5.5.1.[.[.(.(.^.!.!.;.*.*.*.*.@.@.@.@.V Y S X S K K K H H C G D C C x w w s u u o m q m l h h h d b b 7 7 7 6 ",
"  . + + + @ @ @ @ $ # $ $ $ % % & & & = ; = ; ; ; ; ' ' ' ' , , , , , , , , , { , { , , ! { ] ( ( ( [ ( < [ [ } 3 3 5 0 0 e j j k k z t y B B E L N N M M Q T U U U Z ` ` #.$.&.&.=.~.{.<.}.|.c.9.9.a.h.j.j.n.v.s.s.z.z.C.C.K.Q.Q.U.U.W.`. + +.+#+#+*+=+=+-+~+^+/+_+<+<+1+3+3+5+9+9+0+b+e+f+f+k+f+l+j+l+o+n+p+t+r+v+u+u+A+A+y+y+C+C+G+D+B+B+q+q+i+i+d+2+2+(+>+>+$+++++Z.Z.Y.T.T.R.N.L.G.G.E.E.t.y.t.p.m.g.i.b.0.0.5.5.1.1._.(.^.!.!.!.-.-.-.%.......V S V X S X H K S K K H G C C C A A v s s s u o o o l l i h d d d b b b 7 7 ",
"  . + + @ @ @ # # $ # $ $ % % & > & & & = = ; ; ; ' ' , , , ~ , , , , , , , , { , , , ! ! { ! ^ ^ ( < [ < } } } 3 3 5 0 0 e j j k k z n y y y E L L O M Q Q T R U U Z ` `  .$.&.=.>.'.~.{./.|.|.a.9.f.f.l.j.k.s.z.C.A.C.K.O.O.Q.Q.U.U.W.W.`. +@+.+#+&+*+*+~+~+'+/+_+_+<+1+3+7+7+9+9+0+a+c+e+f+k+k+k+l+l+o+o+o+t+t+u+A+A+A+A+C+C+G+G+E+E+E+B+B+q+i+8+8+2+]+(+>+>+$+$+++++Y.Y.T.T.T.M.M.L.E.w.E.t.t.t.p.m.g.g.b.b.0.5.5.1._.[._._.^.!.;.;.;.;.*.@.@.@.@.@.S X K X X K K X G G G D C C A A s s s u u o q l i i i d d d b b 7 a 6 6 ",
"  . . + + + @ # # # $ $ $ $ & % & & & & = ; ; ; ; ; ' ' ' ' , , , , , , , , , , { , , ! ! ! ^ / ( ^ ( ( 1 [ } 4 4 3 0 0 0 e g k k k k y y y B E E L M M Q Q Q U R U U `  . . .&.=.=.{.{.<.<.|.c.9.d.d.h.j.j.s.o.r.z.C.C.K.K.O.O.I.U.S.W.`.`. + +@+.+#+&+=+,+,+~+'+/+<+1+1+3+3+6+9+b+b+c+c+c+f+f+k+j+l+l+n+o+r+r+v+t+t+A+A+C+C+C+C+G+G+D+B+B+q+q+i+8+8+2+2+2+(+$+>+++++++Y.V.V.T.M.M.M.L.G.E.B.y.u.p.p.m.g.e.b.b.0.5.5.[.1._.^.).^.!.!.;.%.*.%.%.....S S X X S S K S K K H G D D D C C A A s s u r m o l i i d d h f f b b 7 a 6 ",
"  . . + + + + @ @ # # $ $ % % > & & & ) = = ; ; ; ; ; ' , ~ ~ , , , , , , , , , { { { { ! ] ] ^ ( ^ ( ( } } } 3 4 3 0 0 0 g j j j n k t y y E E L N M P Q R T U T Z U  . .#.$.&.&.'.'.{.<.<.|.c.c.d.d.f.h.k.s.s.r.z.A.K.D.O.Q.Q.I.U.W.W.`.`. + +@+@+&+&+%+,+~+~+_+_+_+<+1+3+5+7+9+b+b+c+c+c+f+f+l+k+l+l+o+o+t+r+v+u+w+A+A+A+C+C+C+F+E+D+D+B+q+q+i+d+8+]+2+]+]+$+>+$+++Z.V.V.T.R.P.M.L.L.G.E.E.y.y.t.p.m.m.i.b.0.0.5.5._._._._.^.).!.!.;.-.*.@.@.X @.@.X X X K S K S G J H G S D D C C A A s w u u o m l h i h d d d b a a 7 7 6 ",
"  . . . + + @ @ # # $ $ % % % & & & & = = & = ; ; ; ' ' ' , , ! ! ! ! ! ! ! , , { { { { ! { ] ] / ( ( < [ | } 4 3 3 0 0 g g g k k k t n y y B E E N M M P T R U T U Z Z  . .$.&.=.=.~.{././.|.4.8.d.h.h.j.j.n.o.r.z.A.C.K.K.O.Q.Q.S.U.W.`.`. +.+.+#+#+*+*+,+,+/+/+_+<+1+1+3+7+6+9+9+b+0+c+f+f+k+k+k+l+n+n+p+r+t+t+v+t+u+A+C+C+C+G+D+E+D+B+D+x+i+i+i+i+8+(+(+>+>+$+++Z.Z.Y.V.T.T.P.N.M.L.G.E.w.w.t.p.p.m.g.g.b.0.5.5.1.1._.^.^.^.^.).;.;.;.*.*...@.V S X X K X K S H K H H G D D C C A A A w s w u m l h i d d d d d f b a 7 6 6 "};
