/* XPM */
static char * random_xpm[] = {
"16 8 17 1",
" 	c None",
".	c #FF8080",
"+	c #80FF80",
"@	c #8080FF",
"#	c #80FFFF",
"$	c #FF80FF",
"%	c #FFFF80",
"&	c #80FFFF",
"*	c #5A8080",
"=	c #805A80",
"-	c #80805A",
";	c #805AFF",
">	c #5AFF80",
",	c #FF5A80",
"'	c #5A80FF",
")	c #80FF5A",
"!	c #FF805A",
".+@#$%&*=-;>,')!",
".+@#$%&*=-;>,')!",
".+@#$%&*=-;>,')!",
".+@#$%&*=-;>,')!",
".+@#$%&*=-;>,')!",
".+@#$%&*=-;>,')!",
".+@#$%&*=-;>,')!",
".+@#$%&*=-;>,')!"};
