/* XPM */
static char * random_xpm[] = {
"16 8 17 1",
" 	c None",
".	c #C5C76F",
"+	c #AEC695",
"@	c #7DC2E9",
"#	c #92BEFA",
"$	c #EDB9C9",
"%	c #E8BBB8",
"&	c #84C6C9",
"*	c #5FB0B1",
"=	c #7A7A70",
"-	c #7C7871",
";	c #64AAB3",
">	c #71A4D4",
",	c #A267D5",
"'	c #BD6BB1",
")	c #C1AF69",
"!	c #C3CF47",
".+@#$%&*=-;>,')!",
".+@#$%&*=-;>,')!",
".+@#$%&*=-;>,')!",
".+@#$%&*=-;>,')!",
".+@#$%&*=-;>,')!",
".+@#$%&*=-;>,')!",
".+@#$%&*=-;>,')!",
".+@#$%&*=-;>,')!"};
