/* XPM */
static char * transparent_xpm[] = {
"32 16 2 1",
".	c None",
"@	c #808080",
"................@@@@@@@@@@@@@@@@",
"................@@@@@@@@@@@@@@@@",
"................@@@@@@@@@@@@@@@@",
"................@@@@@@@@@@@@@@@@",
"................@@@@@@@@@@@@@@@@",
"................@@@@@@@@@@@@@@@@",
"................@@@@@@@@@@@@@@@@",
"................@@@@@@@@@@@@@@@@",
"................@@@@@@@@@@@@@@@@",
"................@@@@@@@@@@@@@@@@",
"................@@@@@@@@@@@@@@@@",
"................@@@@@@@@@@@@@@@@",
"................@@@@@@@@@@@@@@@@",
"................@@@@@@@@@@@@@@@@",
"................@@@@@@@@@@@@@@@@",
"................@@@@@@@@@@@@@@@@"};
