/* XPM */
static char * turbo_xpm[] = {
"153 16 154 2",
"  	c None",
". 	c #321645",
"+ 	c #341B50",
"@ 	c #361F5C",
"# 	c #372568",
"$ 	c #392A72",
"% 	c #3B2E7D",
"& 	c #3C3387",
"* 	c #3E3790",
"= 	c #3F3C9A",
"- 	c #4041A3",
"; 	c #4145AB",
"> 	c #4249B3",
", 	c #434FBA",
"' 	c #4453C3",
") 	c #4558C9",
"! 	c #455CD0",
"~ 	c #4560D6",
"{ 	c #4665DB",
"] 	c #4669E1",
"^ 	c #476EE6",
"/ 	c #4772EA",
"( 	c #4776EE",
"_ 	c #477AF1",
": 	c #467FF5",
"< 	c #4683F8",
"[ 	c #4687FB",
"} 	c #458BFC",
"| 	c #448FFE",
"1 	c #4293FF",
"2 	c #4097FF",
"3 	c #3E9CFE",
"4 	c #3CA0FD",
"5 	c #39A4FB",
"6 	c #36A8F9",
"7 	c #34ACF7",
"8 	c #30B0F5",
"9 	c #2EB4F2",
"0 	c #2AB9EE",
"a 	c #28BDEA",
"b 	c #25C1E6",
"c 	c #22C5E2",
"d 	c #20C8DE",
"e 	c #1ECBDA",
"f 	c #1BCFD6",
"g 	c #1AD3D1",
"h 	c #19D5CD",
"i 	c #18D8C8",
"j 	c #18DCC4",
"k 	c #18DEC0",
"l 	c #18E2BB",
"m 	c #19E4B8",
"n 	c #1CE6B4",
"o 	c #1FE8B0",
"p 	c #21EBAB",
"q 	c #25EDA7",
"r 	c #29EFA2",
"s 	c #2DF09D",
"t 	c #32F298",
"u 	c #38F492",
"v 	c #3DF58C",
"w 	c #43F787",
"x 	c #49F881",
"y 	c #4FF97C",
"z 	c #55FA76",
"A 	c #5CFB70",
"B 	c #62FD6B",
"C 	c #69FD65",
"D 	c #6FFE60",
"E 	c #76FE5B",
"F 	c #7CFF56",
"G 	c #83FF51",
"H 	c #89FF4D",
"I 	c #8EFF49",
"J 	c #95FE45",
"K 	c #9AFE42",
"L 	c #9FFE3F",
"M 	c #A3FD3D",
"N 	c #A7FB3A",
"O 	c #ACFA38",
"P 	c #B0F936",
"Q 	c #B5F836",
"R 	c #B9F635",
"S 	c #BEF434",
"T 	c #C2F234",
"U 	c #C6F034",
"V 	c #CAEE34",
"W 	c #CEEC34",
"X 	c #D2E935",
"Y 	c #D6E635",
"Z 	c #DAE436",
"` 	c #DDE037",
" .	c #E0DE37",
"..	c #E4DA38",
"+.	c #E8D739",
"@.	c #EAD439",
"#.	c #ECD13A",
"$.	c #EFCD3A",
"%.	c #F1CA3A",
"&.	c #F4C73A",
"*.	c #F6C33A",
"=.	c #F8BF39",
"-.	c #F9BC39",
";.	c #FBB838",
">.	c #FCB536",
",.	c #FDB036",
"'.	c #FDAC34",
").	c #FEA833",
"!.	c #FEA231",
"~.	c #FE9E2F",
"{.	c #FE9A2D",
"].	c #FE952B",
"^.	c #FE9029",
"/.	c #FD8C27",
"(.	c #FC8625",
"_.	c #FB8122",
":.	c #FA7D20",
"<.	c #F9771E",
"[.	c #F8721C",
"}.	c #F66D19",
"|.	c #F56818",
"1.	c #F36415",
"2.	c #F15E13",
"3.	c #F05A12",
"4.	c #ED5510",
"5.	c #EC520F",
"6.	c #E94D0D",
"7.	c #E7490C",
"8.	c #E4460A",
"9.	c #E2420A",
"0.	c #DF3F08",
"a.	c #DC3B07",
"b.	c #D93807",
"c.	c #D63506",
"d.	c #D23105",
"e.	c #CF2E05",
"f.	c #CC2B04",
"g.	c #C92904",
"h.	c #C52603",
"i.	c #C22302",
"j.	c #BD2102",
"k.	c #B91E02",
"l.	c #B51B01",
"m.	c #B01901",
"n.	c #AC1701",
"o.	c #A71501",
"p.	c #A21201",
"q.	c #9E1001",
"r.	c #990E01",
"s.	c #930C01",
"t.	c #8D0A02",
"u.	c #890802",
"v.	c #830702",
"w.	c #7D0502",
". + @ # $ % & * = - ; > , ' ) ! ~ { ] ^ / ( _ : < [ } | 1 2 3 4 5 6 7 8 9 0 a b c d e f g h i j k l m n o p q r s t u v w x y z A B C D E F G H I J K L M N O P Q R S T U V W X Y Z `  ...+.@.#.$.%.&.*.=.-.;.>.,.'.).!.~.{.].^./.(._.:.<.[.}.|.1.2.3.4.5.6.7.8.9.0.a.b.c.d.e.f.g.h.i.j.k.l.m.n.o.p.q.r.s.t.u.v.w.",
". + @ # $ % & * = - ; > , ' ) ! ~ { ] ^ / ( _ : < [ } | 1 2 3 4 5 6 7 8 9 0 a b c d e f g h i j k l m n o p q r s t u v w x y z A B C D E F G H I J K L M N O P Q R S T U V W X Y Z `  ...+.@.#.$.%.&.*.=.-.;.>.,.'.).!.~.{.].^./.(._.:.<.[.}.|.1.2.3.4.5.6.7.8.9.0.a.b.c.d.e.f.g.h.i.j.k.l.m.n.o.p.q.r.s.t.u.v.w.",
". + @ # $ % & * = - ; > , ' ) ! ~ { ] ^ / ( _ : < [ } | 1 2 3 4 5 6 7 8 9 0 a b c d e f g h i j k l m n o p q r s t u v w x y z A B C D E F G H I J K L M N O P Q R S T U V W X Y Z `  ...+.@.#.$.%.&.*.=.-.;.>.,.'.).!.~.{.].^./.(._.:.<.[.}.|.1.2.3.4.5.6.7.8.9.0.a.b.c.d.e.f.g.h.i.j.k.l.m.n.o.p.q.r.s.t.u.v.w.",
". + @ # $ % & * = - ; > , ' ) ! ~ { ] ^ / ( _ : < [ } | 1 2 3 4 5 6 7 8 9 0 a b c d e f g h i j k l m n o p q r s t u v w x y z A B C D E F G H I J K L M N O P Q R S T U V W X Y Z `  ...+.@.#.$.%.&.*.=.-.;.>.,.'.).!.~.{.].^./.(._.:.<.[.}.|.1.2.3.4.5.6.7.8.9.0.a.b.c.d.e.f.g.h.i.j.k.l.m.n.o.p.q.r.s.t.u.v.w.",
". + @ # $ % & * = - ; > , ' ) ! ~ { ] ^ / ( _ : < [ } | 1 2 3 4 5 6 7 8 9 0 a b c d e f g h i j k l m n o p q r s t u v w x y z A B C D E F G H I J K L M N O P Q R S T U V W X Y Z `  ...+.@.#.$.%.&.*.=.-.;.>.,.'.).!.~.{.].^./.(._.:.<.[.}.|.1.2.3.4.5.6.7.8.9.0.a.b.c.d.e.f.g.h.i.j.k.l.m.n.o.p.q.r.s.t.u.v.w.",
". + @ # $ % & * = - ; > , ' ) ! ~ { ] ^ / ( _ : < [ } | 1 2 3 4 5 6 7 8 9 0 a b c d e f g h i j k l m n o p q r s t u v w x y z A B C D E F G H I J K L M N O P Q R S T U V W X Y Z `  ...+.@.#.$.%.&.*.=.-.;.>.,.'.).!.~.{.].^./.(._.:.<.[.}.|.1.2.3.4.5.6.7.8.9.0.a.b.c.d.e.f.g.h.i.j.k.l.m.n.o.p.q.r.s.t.u.v.w.",
". + @ # $ % & * = - ; > , ' ) ! ~ { ] ^ / ( _ : < [ } | 1 2 3 4 5 6 7 8 9 0 a b c d e f g h i j k l m n o p q r s t u v w x y z A B C D E F G H I J K L M N O P Q R S T U V W X Y Z `  ...+.@.#.$.%.&.*.=.-.;.>.,.'.).!.~.{.].^./.(._.:.<.[.}.|.1.2.3.4.5.6.7.8.9.0.a.b.c.d.e.f.g.h.i.j.k.l.m.n.o.p.q.r.s.t.u.v.w.",
". + @ # $ % & * = - ; > , ' ) ! ~ { ] ^ / ( _ : < [ } | 1 2 3 4 5 6 7 8 9 0 a b c d e f g h i j k l m n o p q r s t u v w x y z A B C D E F G H I J K L M N O P Q R S T U V W X Y Z `  ...+.@.#.$.%.&.*.=.-.;.>.,.'.).!.~.{.].^./.(._.:.<.[.}.|.1.2.3.4.5.6.7.8.9.0.a.b.c.d.e.f.g.h.i.j.k.l.m.n.o.p.q.r.s.t.u.v.w.",
". + @ # $ % & * = - ; > , ' ) ! ~ { ] ^ / ( _ : < [ } | 1 2 3 4 5 6 7 8 9 0 a b c d e f g h i j k l m n o p q r s t u v w x y z A B C D E F G H I J K L M N O P Q R S T U V W X Y Z `  ...+.@.#.$.%.&.*.=.-.;.>.,.'.).!.~.{.].^./.(._.:.<.[.}.|.1.2.3.4.5.6.7.8.9.0.a.b.c.d.e.f.g.h.i.j.k.l.m.n.o.p.q.r.s.t.u.v.w.",
". + @ # $ % & * = - ; > , ' ) ! ~ { ] ^ / ( _ : < [ } | 1 2 3 4 5 6 7 8 9 0 a b c d e f g h i j k l m n o p q r s t u v w x y z A B C D E F G H I J K L M N O P Q R S T U V W X Y Z `  ...+.@.#.$.%.&.*.=.-.;.>.,.'.).!.~.{.].^./.(._.:.<.[.}.|.1.2.3.4.5.6.7.8.9.0.a.b.c.d.e.f.g.h.i.j.k.l.m.n.o.p.q.r.s.t.u.v.w.",
". + @ # $ % & * = - ; > , ' ) ! ~ { ] ^ / ( _ : < [ } | 1 2 3 4 5 6 7 8 9 0 a b c d e f g h i j k l m n o p q r s t u v w x y z A B C D E F G H I J K L M N O P Q R S T U V W X Y Z `  ...+.@.#.$.%.&.*.=.-.;.>.,.'.).!.~.{.].^./.(._.:.<.[.}.|.1.2.3.4.5.6.7.8.9.0.a.b.c.d.e.f.g.h.i.j.k.l.m.n.o.p.q.r.s.t.u.v.w.",
". + @ # $ % & * = - ; > , ' ) ! ~ { ] ^ / ( _ : < [ } | 1 2 3 4 5 6 7 8 9 0 a b c d e f g h i j k l m n o p q r s t u v w x y z A B C D E F G H I J K L M N O P Q R S T U V W X Y Z `  ...+.@.#.$.%.&.*.=.-.;.>.,.'.).!.~.{.].^./.(._.:.<.[.}.|.1.2.3.4.5.6.7.8.9.0.a.b.c.d.e.f.g.h.i.j.k.l.m.n.o.p.q.r.s.t.u.v.w.",
". + @ # $ % & * = - ; > , ' ) ! ~ { ] ^ / ( _ : < [ } | 1 2 3 4 5 6 7 8 9 0 a b c d e f g h i j k l m n o p q r s t u v w x y z A B C D E F G H I J K L M N O P Q R S T U V W X Y Z `  ...+.@.#.$.%.&.*.=.-.;.>.,.'.).!.~.{.].^./.(._.:.<.[.}.|.1.2.3.4.5.6.7.8.9.0.a.b.c.d.e.f.g.h.i.j.k.l.m.n.o.p.q.r.s.t.u.v.w.",
". + @ # $ % & * = - ; > , ' ) ! ~ { ] ^ / ( _ : < [ } | 1 2 3 4 5 6 7 8 9 0 a b c d e f g h i j k l m n o p q r s t u v w x y z A B C D E F G H I J K L M N O P Q R S T U V W X Y Z `  ...+.@.#.$.%.&.*.=.-.;.>.,.'.).!.~.{.].^./.(._.:.<.[.}.|.1.2.3.4.5.6.7.8.9.0.a.b.c.d.e.f.g.h.i.j.k.l.m.n.o.p.q.r.s.t.u.v.w.",
". + @ # $ % & * = - ; > , ' ) ! ~ { ] ^ / ( _ : < [ } | 1 2 3 4 5 6 7 8 9 0 a b c d e f g h i j k l m n o p q r s t u v w x y z A B C D E F G H I J K L M N O P Q R S T U V W X Y Z `  ...+.@.#.$.%.&.*.=.-.;.>.,.'.).!.~.{.].^./.(._.:.<.[.}.|.1.2.3.4.5.6.7.8.9.0.a.b.c.d.e.f.g.h.i.j.k.l.m.n.o.p.q.r.s.t.u.v.w.",
". + @ # $ % & * = - ; > , ' ) ! ~ { ] ^ / ( _ : < [ } | 1 2 3 4 5 6 7 8 9 0 a b c d e f g h i j k l m n o p q r s t u v w x y z A B C D E F G H I J K L M N O P Q R S T U V W X Y Z `  ...+.@.#.$.%.&.*.=.-.;.>.,.'.).!.~.{.].^./.(._.:.<.[.}.|.1.2.3.4.5.6.7.8.9.0.a.b.c.d.e.f.g.h.i.j.k.l.m.n.o.p.q.r.s.t.u.v.w."};
