/* XPM */
static char * turbo_xpm[] = {
"32 3 33 1",
" 	c None",
".	c #35205C",
"+	c #3D368E",
"@	c #424CB7",
"#	c #4562D7",
"$	c #4776EE",
"%	c #458AFC",
"&	c #3D9EFD",
"*	c #30B2F3",
"=	c #22C5E2",
"-	c #19D5CD",
";	c #1AE3B9",
">	c #28EEA4",
",	c #40F68B",
"'	c #5DFB70",
")	c #7CFF57",
"!	c #98FE44",
"~	c #AEFA38",
"{	c #C3F234",
"]	c #D6E635",
"^	c #E6D838",
"/	c #F2C83A",
"(	c #FBB737",
"_	c #FEA331",
":	c #FD8C27",
"<	c #F8741D",
"[	c #F05D13",
"}	c #E6490C",
"|	c #D93807",
"1	c #C92904",
"2	c #B71D01",
"3	c #A11201",
"4	c #880802",
".+@#$%&*=-;>,')!~{]^/(_:<[}|1234",
".+@#$%&*=-;>,')!~{]^/(_:<[}|1234",
".+@#$%&*=-;>,')!~{]^/(_:<[}|1234"};
