/* XPM */
static char * viridis_hr_xpm[] = {
"256 16 260 2",
"  	c #430055",
". 	c #440456",
"+ 	c #440458",
"@ 	c #45055A",
"# 	c #45075B",
"$ 	c #45095C",
"% 	c #460B5E",
"& 	c #450C5F",
"* 	c #460D60",
"= 	c #470F62",
"- 	c #461063",
"; 	c #471264",
"> 	c #471366",
", 	c #471566",
"' 	c #461568",
") 	c #46176A",
"! 	c #48186A",
"~ 	c #48196B",
"{ 	c #471B6D",
"] 	c #481C6E",
"^ 	c #481D6F",
"/ 	c #481E70",
"( 	c #482071",
"_ 	c #472172",
": 	c #482273",
"< 	c #472474",
"[ 	c #462575",
"} 	c #472676",
"| 	c #472777",
"1 	c #472978",
"2 	c #462A79",
"3 	c #472B7A",
"4 	c #462C7B",
"5 	c #452E7C",
"6 	c #462F7C",
"7 	c #45307D",
"8 	c #45317F",
"9 	c #44327E",
"0 	c #44347E",
"a 	c #453580",
"b 	c #453680",
"c 	c #433780",
"d 	c #433982",
"e 	c #433B84",
"f 	c #423C84",
"g 	c #423C83",
"h 	c #423E84",
"i 	c #413F85",
"j 	c #414085",
"k 	c #404186",
"l 	c #3F4387",
"m 	c #404386",
"n 	c #3F4487",
"o 	c #3E4687",
"p 	c #3E4888",
"q 	c #3D4989",
"r 	c #3C4A88",
"s 	c #3D4B88",
"t 	c #3C4C89",
"u 	c #3C4D8A",
"v 	c #3B4E8A",
"w 	c #3B5089",
"x 	c #3A518A",
"y 	c #39528B",
"z 	c #39538A",
"A 	c #39548B",
"B 	c #38558A",
"C 	c #38568A",
"D 	c #37578C",
"E 	c #36588B",
"F 	c #36598C",
"G 	c #365A8C",
"H 	c #355B8C",
"I 	c #355C8B",
"J 	c #345D8C",
"K 	c #335E8D",
"L 	c #335F8C",
"M 	c #33608D",
"N 	c #32618D",
"O 	c #32628D",
"P 	c #31638D",
"Q 	c #30648D",
"R 	c #31658D",
"S 	c #30668D",
"T 	c #2F678D",
"U 	c #2F688C",
"V 	c #2E698D",
"W 	c #2E6A8D",
"X 	c #2E6B8E",
"Y 	c #2D6C8D",
"Z 	c #2D6D8E",
"` 	c #2C6E8E",
" .	c #2B6F8E",
"..	c #2C708E",
"+.	c #2B718E",
"@.	c #2A738E",
"#.	c #2B738E",
"$.	c #2B748E",
"%.	c #29768E",
"&.	c #2A778E",
"*.	c #29788E",
"=.	c #28798E",
"-.	c #287A8E",
";.	c #277B8E",
">.	c #277C8E",
",.	c #277D8E",
"'.	c #267E8E",
").	c #267F8E",
"!.	c #26808D",
"~.	c #25818E",
"{.	c #25828D",
"].	c #24838C",
"^.	c #23848D",
"/.	c #24858D",
"(.	c #23868D",
"_.	c #22878D",
":.	c #23888D",
"<.	c #22898D",
"[.	c #21898D",
"}.	c #228A8C",
"|.	c #218B8D",
"1.	c #208C8D",
"2.	c #218D8B",
"3.	c #218E8B",
"4.	c #1F8E8C",
"5.	c #1F8F8C",
"6.	c #20908B",
"7.	c #1F918C",
"8.	c #1E928B",
"9.	c #1F938A",
"0.	c #1F948B",
"a.	c #1E958A",
"b.	c #1E968A",
"c.	c #1D9789",
"d.	c #1E9889",
"e.	c #1E998A",
"f.	c #1E9989",
"g.	c #1E9A88",
"h.	c #1E9B89",
"i.	c #1E9C88",
"j.	c #1E9E87",
"k.	c #1D9E88",
"l.	c #1EA087",
"m.	c #1FA186",
"n.	c #1EA186",
"o.	c #1FA385",
"p.	c #20A484",
"q.	c #1FA485",
"r.	c #20A584",
"s.	c #21A784",
"t.	c #22A783",
"u.	c #23A782",
"v.	c #22A882",
"w.	c #23A982",
"x.	c #24AA80",
"y.	c #25AB80",
"z.	c #26AC80",
"A.	c #27AD7F",
"B.	c #28AE7E",
"C.	c #29AE7F",
"D.	c #2AB07D",
"E.	c #2BB17C",
"F.	c #2CB17C",
"G.	c #2EB27B",
"H.	c #2FB37A",
"I.	c #30B47A",
"J.	c #32B579",
"K.	c #34B678",
"L.	c #35B777",
"M.	c #37B876",
"N.	c #38B976",
"O.	c #39B975",
"P.	c #3BBA74",
"Q.	c #3DBB73",
"R.	c #3EBC72",
"S.	c #40BD71",
"T.	c #42BD70",
"U.	c #43BE6F",
"V.	c #45BE6E",
"W.	c #47BF6D",
"X.	c #49C16C",
"Y.	c #4BC26C",
"Z.	c #4DC26A",
"`.	c #4FC269",
" +	c #51C368",
".+	c #53C467",
"++	c #55C566",
"@+	c #57C665",
"#+	c #59C662",
"$+	c #5BC860",
"%+	c #5DC95F",
"&+	c #5FC860",
"*+	c #62C95F",
"=+	c #64CB5D",
"-+	c #66CB5C",
";+	c #69CC5B",
">+	c #6ACD59",
",+	c #6DCD57",
"'+	c #6FCE55",
")+	c #72CF54",
"!+	c #74CF53",
"~+	c #76D051",
"{+	c #78D150",
"]+	c #7BD14F",
"^+	c #7DD24D",
"/+	c #80D24C",
"(+	c #82D34A",
"_+	c #85D449",
":+	c #87D447",
"<+	c #89D446",
"[+	c #8CD644",
"}+	c #8FD643",
"|+	c #91D641",
"1+	c #93D73F",
"2+	c #96D73E",
"3+	c #99D73D",
"4+	c #9CD83A",
"5+	c #9ED938",
"6+	c #A0D937",
"7+	c #A3DA35",
"8+	c #A6DA33",
"9+	c #A8DA32",
"0+	c #ABDB30",
"a+	c #AEDC2F",
"b+	c #B0DC2C",
"c+	c #B3DD2B",
"d+	c #B6DC2A",
"e+	c #B9DD27",
"f+	c #BBDE26",
"g+	c #BDDE24",
"h+	c #C0DF22",
"i+	c #C3DE21",
"j+	c #C5DF20",
"k+	c #C8E01E",
"l+	c #CBDF1D",
"m+	c #CDDF1C",
"n+	c #D0E11B",
"o+	c #D2E01A",
"p+	c #D5E01A",
"q+	c #D8E219",
"r+	c #DAE217",
"s+	c #DCE117",
"t+	c #DFE218",
"u+	c #E2E318",
"v+	c #E4E217",
"w+	c #E7E318",
"x+	c #EAE419",
"y+	c #ECE319",
"z+	c #EEE41A",
"A+	c #F1E41C",
"B+	c #F3E51E",
"C+	c #F5E51F",
"D+	c #3A5089",
"E+	c #45BF6E",
"F+	c #47C06D",
"G+	c #59C663",
"H+	c #5BC861",
"I+	c #5DC960",
"J+	c #38528B",
"K+	c #42BE70",
"  . + @ # $ % & * = - ; > , ' ) ! ~ { ] ^ / ( _ : < [ } | 1 2 3 4 5 6 7 8 9 0 a b c d d e f g h i j k l m n o p q r s t u v w x y z A B C D E E F G H I J K L M N O P Q R S T U V W X Y Z `  ...+.@.#.$.%.%.&.*.=.=.-.;.>.,.'.).!.~.{.].^./.(._.:.<.[.}.|.1.2.3.4.5.6.7.8.9.0.a.b.c.d.e.f.g.h.i.j.k.l.m.n.o.p.q.r.s.t.u.v.w.x.y.z.A.B.C.D.E.F.G.H.I.J.K.L.M.N.O.P.Q.R.S.T.U.V.W.X.Y.Z.`. +.+++@+#+$+%+&+*+=+-+;+>+,+'+)+!+~+{+]+^+/+(+_+:+<+[+}+|+1+2+3+4+5+6+7+8+9+0+a+b+c+d+e+f+g+h+i+j+k+l+m+n+o+p+q+r+s+t+u+v+w+x+y+z+A+B+C+",
"  . + @ # $ % & * = - ; > , ' ) ! ~ { ] ^ / ( _ : < [ } | 1 2 3 4 5 6 7 8 9 0 a b c d d e f g h i j k l m n o p q r s t u v D+x y z A B C D E E F G H I J K L M N O P Q R S T U V W X Y Z `  ...+.@.#.$.%.%.&.*.=.=.-.;.>.,.'.).!.~.{.].^./.(._.:.<.[.}.|.1.2.3.4.5.6.7.8.9.0.a.b.c.d.e.f.g.h.i.j.k.l.m.n.o.p.q.r.s.t.u.v.w.x.y.z.A.B.C.D.E.F.G.H.I.J.K.L.M.N.O.P.Q.R.S.T.U.E+F+X.Y.Z.`. +.+++@+G+H+I+&+*+=+-+;+>+,+'+)+!+~+{+]+^+/+(+_+:+<+[+}+|+1+2+3+4+5+6+7+8+9+0+a+b+c+d+e+f+g+h+i+j+k+l+m+n+o+p+q+r+s+t+u+v+w+x+y+z+A+B+C+",
"  . + @ # $ % & * = - ; > , ' ) ! ~ { ] ^ / ( _ : < [ } | 1 2 3 4 5 6 7 8 9 0 a b c d d e f g h i j k l m n o p q r s t u v D+x y z A B C D E E F G H I J K L M N O P Q R S T U V W X Y Z `  ...+.@.#.$.%.%.&.*.=.=.-.;.>.,.'.).!.~.{.].^./.(._.:.<.[.}.|.1.2.3.4.5.6.7.8.9.0.a.b.c.d.e.f.g.h.i.j.k.l.m.n.o.p.q.r.s.t.u.v.w.x.y.z.A.B.C.D.E.F.G.H.I.J.K.L.M.N.O.P.Q.R.S.T.U.V.W.X.Y.Z.`. +.+++@+#+$+I+&+*+=+-+;+>+,+'+)+!+~+{+]+^+/+(+_+:+<+[+}+|+1+2+3+4+5+6+7+8+9+0+a+b+c+d+e+f+g+h+i+j+k+l+m+n+o+p+q+r+s+t+u+v+w+x+y+z+A+B+C+",
"  . + @ # $ % & * = - ; > , ' ) ! ~ { ] ^ / ( _ : < [ } | 1 2 3 4 5 6 7 8 9 0 a b c d d e f g h i j k l m n o p q r s t u v D+x y z A B C D E E F G H I J K L M N O P Q R S T U V W X Y Z `  ...+.@.#.$.%.%.&.*.=.=.-.;.>.,.'.).!.~.{.].^./.(._.:.<.[.}.|.1.2.3.4.5.6.7.8.9.0.a.b.c.d.e.f.g.h.i.j.k.l.m.n.o.p.q.r.s.t.u.v.w.x.y.z.A.B.C.D.E.F.G.H.I.J.K.L.M.N.O.P.Q.R.S.T.U.E+F+X.Y.Z.`. +.+++@+G+H+I+&+*+=+-+;+>+,+'+)+!+~+{+]+^+/+(+_+:+<+[+}+|+1+2+3+4+5+6+7+8+9+0+a+b+c+d+e+f+g+h+i+j+k+l+m+n+o+p+q+r+s+t+u+v+w+x+y+z+A+B+C+",
"  . + @ # $ % & * = - ; > , ' ) ! ~ { ] ^ / ( _ : < [ } | 1 2 3 4 5 6 7 8 9 0 a b c d d e f g h i j k l m n o p q r s t u v D+x y z A B C D E E F G H I J K L M N O P Q R S T U V W X Y Z `  ...+.@.#.$.%.%.&.*.=.=.-.;.>.,.'.).!.~.{.].^./.(._.:.<.[.}.|.1.2.3.4.5.6.7.8.9.0.a.b.c.d.e.f.g.h.i.j.k.l.m.n.o.p.q.r.s.t.u.v.w.x.y.z.A.B.C.D.E.F.G.H.I.J.K.L.M.N.O.P.Q.R.S.T.U.E+F+X.Y.Z.`. +.+++@+G+H+I+&+*+=+-+;+>+,+'+)+!+~+{+]+^+/+(+_+:+<+[+}+|+1+2+3+4+5+6+7+8+9+0+a+b+c+d+e+f+g+h+i+j+k+l+m+n+o+p+q+r+s+t+u+v+w+x+y+z+A+B+C+",
"  . + @ # $ % & * = - ; > , ' ) ! ~ { ] ^ / ( _ : < [ } | 1 2 3 4 5 6 7 8 9 0 a b c d d e f g h i j k l m n o p q r s t u v D+x y z A B C D E E F G H I J K L M N O P Q R S T U V W X Y Z `  ...+.@.#.$.%.%.&.*.=.=.-.;.>.,.'.).!.~.{.].^./.(._.:.<.[.}.|.1.2.3.4.5.6.7.8.9.0.a.b.c.d.e.f.g.h.i.j.k.l.m.n.o.p.q.r.s.t.u.v.w.x.y.z.A.B.C.D.E.F.G.H.I.J.K.L.M.N.O.P.Q.R.S.T.U.E+F+X.Y.Z.`. +.+++@+G+H+I+&+*+=+-+;+>+,+'+)+!+~+{+]+^+/+(+_+:+<+[+}+|+1+2+3+4+5+6+7+8+9+0+a+b+c+d+e+f+g+h+i+j+k+l+m+n+o+p+q+r+s+t+u+v+w+x+y+z+A+B+C+",
"  . + @ # $ % & * = - ; > , ' ) ! ~ { ] ^ / ( _ : < [ } | 1 2 3 4 5 6 7 8 9 0 a b c d d e f g h i j k l m n o p q r s t u v D+x y z A B C D E E F G H I J K L M N O P Q R S T U V W X Y Z `  ...+.@.#.$.%.%.&.*.=.=.-.;.>.,.'.).!.~.{.].^./.(._.:.<.[.}.|.1.2.3.4.5.6.7.8.9.0.a.b.c.d.e.f.g.h.i.j.k.l.m.n.o.p.q.r.s.t.u.v.w.x.y.z.A.B.C.D.E.F.G.H.I.J.K.L.M.N.O.P.Q.R.S.T.U.E+F+X.Y.Z.`. +.+++@+G+H+I+&+*+=+-+;+>+,+'+)+!+~+{+]+^+/+(+_+:+<+[+}+|+1+2+3+4+5+6+7+8+9+0+a+b+c+d+e+f+g+h+i+j+k+l+m+n+o+p+q+r+s+t+u+v+w+x+y+z+A+B+C+",
"  . + @ # $ % & * = - ; > , ' ) ! ~ { ] ^ / ( _ : < [ } | 1 2 3 4 5 6 7 8 9 0 a b c d d e f g h i j k l m n o p q r s t u v w x J+z A B C D E E F G H I J K L M N O P Q R S T U V W X Y Z `  ...+.@.#.$.%.%.&.*.=.=.-.;.>.,.'.).!.~.{.].^./.(._.:.<.[.}.|.1.2.3.4.5.6.7.8.9.0.a.b.c.d.e.f.g.h.i.j.k.l.m.n.o.p.q.r.s.t.u.v.w.x.y.z.A.B.C.D.E.F.G.H.I.J.K.L.M.N.O.P.Q.R.S.K+U.V.W.X.Y.Z.`. +.+++@+#+$+%+&+*+=+-+;+>+,+'+)+!+~+{+]+^+/+(+_+:+<+[+}+|+1+2+3+4+5+6+7+8+9+0+a+b+c+d+e+f+g+h+i+j+k+l+m+n+o+p+q+r+s+t+u+v+w+x+y+z+A+B+C+",
"  . + @ # $ % & * = - ; > , ' ) ! ~ { ] ^ / ( _ : < [ } | 1 2 3 4 5 6 7 8 9 0 a b c d d e f g h i j k l m n o p q r s t u v D+x y z A B C D E E F G H I J K L M N O P Q R S T U V W X Y Z `  ...+.@.#.$.%.%.&.*.=.=.-.;.>.,.'.).!.~.{.].^./.(._.:.<.[.}.|.1.2.3.4.5.6.7.8.9.0.a.b.c.d.e.f.g.h.i.j.k.l.m.n.o.p.q.r.s.t.u.v.w.x.y.z.A.B.C.D.E.F.G.H.I.J.K.L.M.N.O.P.Q.R.S.T.U.E+F+X.Y.Z.`. +.+++@+G+H+I+&+*+=+-+;+>+,+'+)+!+~+{+]+^+/+(+_+:+<+[+}+|+1+2+3+4+5+6+7+8+9+0+a+b+c+d+e+f+g+h+i+j+k+l+m+n+o+p+q+r+s+t+u+v+w+x+y+z+A+B+C+",
"  . + @ # $ % & * = - ; > , ' ) ! ~ { ] ^ / ( _ : < [ } | 1 2 3 4 5 6 7 8 9 0 a b c d d e f g h i j k l m n o p q r s t u v w x J+z A B C D E E F G H I J K L M N O P Q R S T U V W X Y Z `  ...+.@.#.$.%.%.&.*.=.=.-.;.>.,.'.).!.~.{.].^./.(._.:.<.[.}.|.1.2.3.4.5.6.7.8.9.0.a.b.c.d.e.f.g.h.i.j.k.l.m.n.o.p.q.r.s.t.u.v.w.x.y.z.A.B.C.D.E.F.G.H.I.J.K.L.M.N.O.P.Q.R.S.K+U.V.W.X.Y.Z.`. +.+++@+#+$+%+&+*+=+-+;+>+,+'+)+!+~+{+]+^+/+(+_+:+<+[+}+|+1+2+3+4+5+6+7+8+9+0+a+b+c+d+e+f+g+h+i+j+k+l+m+n+o+p+q+r+s+t+u+v+w+x+y+z+A+B+C+",
"  . + @ # $ % & * = - ; > , ' ) ! ~ { ] ^ / ( _ : < [ } | 1 2 3 4 5 6 7 8 9 0 a b c d d e f g h i j k l m n o p q r s t u v D+x y z A B C D E E F G H I J K L M N O P Q R S T U V W X Y Z `  ...+.@.#.$.%.%.&.*.=.=.-.;.>.,.'.).!.~.{.].^./.(._.:.<.[.}.|.1.2.3.4.5.6.7.8.9.0.a.b.c.d.e.f.g.h.i.j.k.l.m.n.o.p.q.r.s.t.u.v.w.x.y.z.A.B.C.D.E.F.G.H.I.J.K.L.M.N.O.P.Q.R.S.T.U.E+W.X.Y.Z.`. +.+++@+#+H+I+&+*+=+-+;+>+,+'+)+!+~+{+]+^+/+(+_+:+<+[+}+|+1+2+3+4+5+6+7+8+9+0+a+b+c+d+e+f+g+h+i+j+k+l+m+n+o+p+q+r+s+t+u+v+w+x+y+z+A+B+C+",
"  . + @ # $ % & * = - ; > , ' ) ! ~ { ] ^ / ( _ : < [ } | 1 2 3 4 5 6 7 8 9 0 a b c d d e f g h i j k l m n o p q r s t u v D+x y z A B C D E E F G H I J K L M N O P Q R S T U V W X Y Z `  ...+.@.#.$.%.%.&.*.=.=.-.;.>.,.'.).!.~.{.].^./.(._.:.<.[.}.|.1.2.3.4.5.6.7.8.9.0.a.b.c.d.e.f.g.h.i.j.k.l.m.n.o.p.q.r.s.t.u.v.w.x.y.z.A.B.C.D.E.F.G.H.I.J.K.L.M.N.O.P.Q.R.S.T.U.E+F+X.Y.Z.`. +.+++@+G+H+I+&+*+=+-+;+>+,+'+)+!+~+{+]+^+/+(+_+:+<+[+}+|+1+2+3+4+5+6+7+8+9+0+a+b+c+d+e+f+g+h+i+j+k+l+m+n+o+p+q+r+s+t+u+v+w+x+y+z+A+B+C+",
"  . + @ # $ % & * = - ; > , ' ) ! ~ { ] ^ / ( _ : < [ } | 1 2 3 4 5 6 7 8 9 0 a b c d d e f g h i j k l m n o p q r s t u v w x J+z A B C D E E F G H I J K L M N O P Q R S T U V W X Y Z `  ...+.@.#.$.%.%.&.*.=.=.-.;.>.,.'.).!.~.{.].^./.(._.:.<.[.}.|.1.2.3.4.5.6.7.8.9.0.a.b.c.d.e.f.g.h.i.j.k.l.m.n.o.p.q.r.s.t.u.v.w.x.y.z.A.B.C.D.E.F.G.H.I.J.K.L.M.N.O.P.Q.R.S.K+U.V.W.X.Y.Z.`. +.+++@+#+$+%+&+*+=+-+;+>+,+'+)+!+~+{+]+^+/+(+_+:+<+[+}+|+1+2+3+4+5+6+7+8+9+0+a+b+c+d+e+f+g+h+i+j+k+l+m+n+o+p+q+r+s+t+u+v+w+x+y+z+A+B+C+",
"  . + @ # $ % & * = - ; > , ' ) ! ~ { ] ^ / ( _ : < [ } | 1 2 3 4 5 6 7 8 9 0 a b c d d e f g h i j k l m n o p q r s t u v D+x y z A B C D E E F G H I J K L M N O P Q R S T U V W X Y Z `  ...+.@.#.$.%.%.&.*.=.=.-.;.>.,.'.).!.~.{.].^./.(._.:.<.[.}.|.1.2.3.4.5.6.7.8.9.0.a.b.c.d.e.f.g.h.i.j.k.l.m.n.o.p.q.r.s.t.u.v.w.x.y.z.A.B.C.D.E.F.G.H.I.J.K.L.M.N.O.P.Q.R.S.T.U.E+F+X.Y.Z.`. +.+++@+G+H+I+&+*+=+-+;+>+,+'+)+!+~+{+]+^+/+(+_+:+<+[+}+|+1+2+3+4+5+6+7+8+9+0+a+b+c+d+e+f+g+h+i+j+k+l+m+n+o+p+q+r+s+t+u+v+w+x+y+z+A+B+C+",
"  . + @ # $ % & * = - ; > , ' ) ! ~ { ] ^ / ( _ : < [ } | 1 2 3 4 5 6 7 8 9 0 a b c d d e f g h i j k l m n o p q r s t u v w x y z A B C D E E F G H I J K L M N O P Q R S T U V W X Y Z `  ...+.@.#.$.%.%.&.*.=.=.-.;.>.,.'.).!.~.{.].^./.(._.:.<.[.}.|.1.2.3.4.5.6.7.8.9.0.a.b.c.d.e.f.g.h.i.j.k.l.m.n.o.p.q.r.s.t.u.v.w.x.y.z.A.B.C.D.E.F.G.H.I.J.K.L.M.N.O.P.Q.R.S.T.U.V.W.X.Y.Z.`. +.+++@+#+$+%+&+*+=+-+;+>+,+'+)+!+~+{+]+^+/+(+_+:+<+[+}+|+1+2+3+4+5+6+7+8+9+0+a+b+c+d+e+f+g+h+i+j+k+l+m+n+o+p+q+r+s+t+u+v+w+x+y+z+A+B+C+",
"  . + @ # $ % & * = - ; > , ' ) ! ~ { ] ^ / ( _ : < [ } | 1 2 3 4 5 6 7 8 9 0 a b c d d e f g h i j k l m n o p q r s t u v D+x y z A B C D E E F G H I J K L M N O P Q R S T U V W X Y Z `  ...+.@.#.$.%.%.&.*.=.=.-.;.>.,.'.).!.~.{.].^./.(._.:.<.[.}.|.1.2.3.4.5.6.7.8.9.0.a.b.c.d.e.f.g.h.i.j.k.l.m.n.o.p.q.r.s.t.u.v.w.x.y.z.A.B.C.D.E.F.G.H.I.J.K.L.M.N.O.P.Q.R.S.T.U.E+F+X.Y.Z.`. +.+++@+G+H+I+&+*+=+-+;+>+,+'+)+!+~+{+]+^+/+(+_+:+<+[+}+|+1+2+3+4+5+6+7+8+9+0+a+b+c+d+e+f+g+h+i+j+k+l+m+n+o+p+q+r+s+t+u+v+w+x+y+z+A+B+C+"};
