/* XPM */
static char * black_xpm[] = {
"16 16 2 1",
" 	c #202020",
".	c #000000",
"                ",
"................",
"................",
"................",
"................",
"................",
"................",
"................",
"................",
"................",
"................",
"................",
"................",
"................",
"................",
"................"};
