/* XPM */
static char * custom_xpm[] = {
"16 16 4 1",
" 	c None",
".	c #202020",
"+	c #000000",
"@	c #FFFFFF",
"................",
"++++++++++++++++",
"++++++++++++++++",
"++++++++++++++++",
"++++++++++++++++",
"++++++++++++++++",
"++++++++++++++++",
"++++++++++++++++",
"++++++++++++++++",
"++@+++@+++@+++++",
"++++++++++++++++",
"++++++++++++++++",
"++++++++++++++++",
"++++++++++++++++",
"++++++++++++++++",
"++++++++++++++++"};
