/* XPM */
static char * glue_edges_xpm[] = {
"23 23 4 1",
" 	c #FFFFFFFFFFFF",
".	c #000000000000",
"X	c None",
"o	c #00000000FFFF",
"    .XXXXXXXX.         ",
"    .XXXXXXXXX.       .",
"     .XXXXXXXXX.ooo... ",
"      .XXXXXXXXXooo    ",
"      oooXXXXXXXooo.   ",
"......oooXXXXXXXX. .   ",
"      oooXXXX.XXX.  .  ",
"       .XXXXX..XX.   . ",
"       .XX......X.   . ",
"       .XXXXX..XX.    .",
"       .XXXXX.XXX.    .",
"       .XXXXXXXXX.     ",
"       .XXXX.XXXX.     ",
"       .XXX..XXXX.     ",
"       .XX......X.    .",
"      oooXX..XXXX.   . ",
"      oooXXX.XXXooo..  ",
"      oooXXXXXXXooo    ",
"     .. .XXXXXXXooo    ",
"    .    .XXXXXXXX.    ",
"   .     .XXXXXXXX.    ",
" ..      .XXXXXXXX.    ",
".        .XXXXXXXX.    "};
