/* XPM */
static char * copy_component_xpm[] = {
"23 23 3 1",
" 	c None",
".	c #0000FF",
"+	c #000000",
"                       ",
"                       ",
"     ..                ",
"     ....              ",
"     ......            ",
"     ........          ",
"     .......           ",
"      .....            ",
"      ...... +++       ",
"      .......  ++      ",
"      .  .... +  +     ",
"         .....+   +    ",
"        +  ....+  +    ",
"        +  .... + +    ",
"        +++ .... ++ +  ",
"        +   +.+   +  + ",
"......  +  +  + +++  + ",
".    .   +++ ++++    + ",
"     .     +++    + ++ ",
" .....         + +   + ",
".          ++ +  + +++ ",
".           +++ ++++   ",
"......        +++      "};
