/* XPM */
static char * create_edge_xpm[] = {
"23 23 4 1",
" 	c None",
".	c #000000",
"+	c #0000FF",
"@	c #FF0028",
"  .     .      .       ",
"   .    .      .       ",
"    .   .       .      ",
"     . .        .      ",
"..   +++        +++    ",
"  ...+++........+++    ",
"     ++         @++.   ",
"     .        @@@   .. ",
"     .       @@@      .",
"     .      @@        .",
"     .    @@@         .",
"    .    @@@         . ",
".   .   @@          .  ",
" .  . @@@          .   ",
" .  .@@           .    ",
"  +++.         +++     ",
"  +++..........+++     ",
" .+++          +++     ",
".  .           .  .    ",
"    .          .   .   ",
"    .          .    .  ",
"    .         .      . ",
"     .        .       ."};
