/* XPM */
static char * create_center_vertex_xpm[] = {
"23 23 4 1",
" 	c None",
".	c #000000000000",
"X	c #00000000FFFF",
"o	c #FFFFFFFFFFFF",
"  .     .      .       ",
"   .    .      .       ",
"    .   .       .      ",
"     . .        .      ",
"..   XXX        XXX    ",
"  ...XXX........XXX    ",
"     XX..........XX.   ",
"     ....oooooo....... ",
"     ...o.oooo.ooooo...",
"     ..oo.ooo.ooooooo..",
"     ..oooXXXoo........",
"    ...oooXXX..oooo... ",
".   ...oo.XXXooooo...  ",
" .  ..o..oooo.oo....   ",
" .  ...ooooooo.....    ",
"  XXX..........XXX     ",
"  XXX..........XXX     ",
" .XXX          XXX     ",
".  .           .  .    ",
"    .          .   .   ",
"    .          .    .  ",
"    .         .      . ",
"     .        .       ."};
