/* XPM */
static char * cut_edges_xpm[] = {
"23 23 4 1",
" 	c None",
".	c #000000000000",
"X	c #00000000FFFF",
"o	c #FFFF00000000",
"             ...       ",
"  ..............       ",
"  ..         ...       ",
"  . ..       XX.       ",
"  .   .     XXX .      ",
"  .    .    XX  .      ",
"  .     .. XXX  .      ",
"  .       ...    .     ",
"  .       ...    .     ",
"  .       ...    .     ",
"   .    o  X  o   .    ",
"   .    oo   oo   .    ",
"   .     oo oo     .   ",
"   .      ooo   .  .   ",
"   .   XX ooo    . .   ",
"   .  XX oo oo    . .  ",
"   .  XXo o o o    ..  ",
"   . XX o o o o    ..  ",
"   . XX  oo oo      .. ",
"   ..X.       ........ ",
"    ..........         ",
"    ...                ",
"                       "};
