/* XPM */
static char * fill_home_xpm[] = {
"23 23 4 1",
" 	c None",
".	c #000000000000",
"X	c #00000000FFFF",
"o	c #FFFFFFFFFFFF",
"  .     .      .       ",
"   .    .      .       ",
"    .   .       .      ",
"     . .        .      ",
"..   XXX        XXX    ",
"  ...XXX........XXX    ",
"     XXX........XXX.   ",
"     ...oooooooo...... ",
"     ...oooooooooooo...",
"     ..ooooooooooooooo.",
"     ..oooooooooooooo..",
"    ...oooooooooooo... ",
".   ...ooooooooooo...  ",
" .  ..oooooooooo....   ",
" .  ..ooooooooo....    ",
"  XXX..........XXX     ",
"  XXX..........XXX     ",
" .XXX          XXX     ",
".  .           .  .    ",
"    .          .   .   ",
"    .          .    .  ",
"    .         .      . ",
"     .        .       ."};
