/* XPM */
static char * flip_component_xpm[] = {
"23 23 4 1",
" 	c None",
".	c #00000000FFFF",
"X	c #000000000000",
"o	c #FFFFFFFFFFFF",
"                       ",
"                       ",
"                       ",
"                       ",
"                       ",
"                ...    ",
"     .     XXX   ....  ",
"    ..  XXXooXX  ...   ",
"   ... XXoooXooX  ...  ",
"   ..  XoooXXoooX . .. ",
"  ..  XoooXooXooX    . ",
"  ..  XooXooooXoX   .. ",
"  ....XXXoXXoXoXX   .. ",
"   ......oXoXoo....... ",
"      ..............   ",
"       XXoooXXX        ",
"         XXX           ",
"                       ",
"                       ",
"                       ",
"                       ",
"                       ",
"                       "};
