/* XPM */
static char * move_facet_xpm[] = {
"23 23 4 1",
" 	c None",
".	c #000000",
"+	c #0000FF",
"@	c #FFFFFF",
"  .     .      .       ",
"   .++  .      .       ",
"    ++++.       .      ",
"    ++++++      .      ",
"..  ++++++++    ...    ",
"  ..+++++++........    ",
"     +++++..........   ",
"     ++++++@@@@@...... ",
"     +++++++@@@@@@@@...",
"     +.@++++@@@@@@@@@@.",
"     ..@@++++@@@@@@@@..",
"    ...@@@++++@@@@@... ",
".   ...@@@++++@@@@...  ",
" .  ..@@@@@++++@....   ",
" .  ..@@@@@@@@@....    ",
"  ................     ",
"  ................     ",
" ....          ...     ",
".  .           .  .    ",
"    .          .   .   ",
"    .          .    .  ",
"    .         .      . ",
"     .        .       ."};
