/* XPM */
static char * move_component_xpm[] = {
"23 23 3 1",
" 	c None",
".	c #00000000FFFF",
"X	c #000000000000",
"                       ",
"                       ",
"                       ",
"                       ",
"       ..              ",
"       ....            ",
"       ......          ",
"       ........        ",
"       .......         ",
"        .....          ",
"        ......         ",
"        .......        ",
"        .  .... XXX    ",
"            ....  XX   ",
"            X....X  X  ",
"            X....X   X ",
"           X  .X..X  X ",
"           X  X.X  X X ",
"           XXX XX X XX ",
"           X   X X   X ",
"           X  X  X  XX ",
"            XX   XXX   ",
"              XXX      "};
