/* XPM */
static char * paint_component_xpm[] = {
"24 25 5 1",
" 	c None",
".	c #000000",
"+	c #DBDBDB",
"@	c #929292",
"#	c #FFFFFF",
"                        ",
"                        ",
"                        ",
"                        ",
"                        ",
"              .++.@     ",
"              .++.@     ",
"             .++.@@     ",
"             .++.@      ",
"            .++.@@      ",
"            .++.@       ",
"           .++.@@       ",
"   ....... .++.@        ",
"  ..    . ....@..       ",
"  . .  . .++..@  .      ",
" .  . . .##+.@@ . .     ",
" .   .  .#+@....  .     ",
"...... .#+@..@@ ....    ",
" .     .+@..@@ ... .    ",
"  . . .#@...... .  .    ",
"  .. ....@..   .  .     ",
"   .  ..@@. . .  ..     ",
"   ...  ..   ....       ",
"    ..........          ",
"                        "};
