/* XPM */
static char * hand_xpm[] = {
"23 23 20 1",
" 	c None",
".	c #323232",
"+	c #393939",
"@	c #000000",
"#	c #FFFFFF",
"$	c #1A1A1A",
"%	c #0A0A0A",
"&	c #202020",
"*	c #1E1E1E",
"=	c #0F0F0F",
"-	c #131313",
";	c #141414",
">	c #060606",
",	c #151515",
"'	c #070707",
")	c #040404",
"!	c #212121",
"~	c #030303",
"{	c #272727",
"]	c #252525",
"                       ",
"        .+             ",
"       @##$            ",
"       @##@            ",
"       @##@            ",
"       %##@            ",
"       @##@&*          ",
"       @##@##=-;       ",
"       @##@##-##@>     ",
"       @##@##,##@#@    ",
"   @'@ @##)##!##@##@   ",
"   @##~@########@##@   ",
"   @###@###########@   ",
"    @##@###########@   ",
"     ~#@###########@   ",
"     @#############@   ",
"      )############@   ",
"      @###########@    ",
"       @##########@    ",
"       @##########@    ",
"        @########@     ",
"        @########@     ",
"        @{]]]]]]]@     "};
