/* XPM */
static char * pipette_xpm[] = {
"24 25 17 1",
" 	c None",
".	c #929292",
"+	c #000000",
"@	c #8F8F8F",
"#	c #808080",
"$	c #848484",
"%	c #727272",
"&	c #878787",
"*	c #909090",
"=	c #666666",
"-	c #797979",
";	c #7F7F7F",
">	c #9E9E9E",
",	c #4F4F4F",
"'	c #DBDBDB",
")	c #BEBEBE",
"!	c #6D6D6D",
"                        ",
"                        ",
"                        ",
"       ...              ",
"      +++...            ",
"      +@#++..           ",
"       +$%++..          ",
"       +@$%++..         ",
"        +&$%++.         ",
"        +*&$=+.         ",
"         +$$-+.         ",
"          +;>,..        ",
"           +')+.        ",
"           +''+..       ",
"            +''+.       ",
"            +''+..      ",
"             +''+.      ",
"             +''!..     ",
"              +''+.     ",
"              +''+.     ",
"               +'+.     ",
"                        ",
"                        ",
"                        ",
"                        "};
