/* XPM */
static char *dummy[]={
"32 32 96 2",
"Qt c None",
".l c #5d5d5d",
".y c #5f5f5f",
".B c #616161",
".H c #646464",
".N c #656767",
".O c #666666",
"#D c #66ffff",
".q c #6f6f6f",
".m c #707070",
".A c #858585",
".u c #878787",
".f c #8e8e8e",
".r c #909090",
".s c #939393",
".x c #969696",
".E c #97a5a5",
".M c #9fb3b3",
".e c #a1a1a1",
".v c #a2a2a2",
".d c #a8a8a8",
".k c #aaaaaa",
".U c #acd7d7",
"#A c #adffff",
".3 c #b1ffff",
".i c #b2b2b2",
"## c #b2ffff",
"#s c #b3ffff",
"#j c #b4ffff",
".c c #b5b5b5",
"#y c #b5ffff",
"#q c #b6ffff",
".V c #b7ffff",
"#d c #b8ffff",
"#m c #b9ffff",
".p c #bababa",
"#c c #baffff",
".F c #bbbbbb",
".6 c #bbffff",
".G c #bdbdbd",
".t c #bebebe",
".j c #c0c0c0",
"#p c #c1ffff",
".C c #c2c2c2",
".o c #c4c4c4",
"#h c #c4ffff",
".L c #c5e0e0",
".T c #c5f9f9",
"#x c #c5ffff",
".Q c #c6ffff",
".Y c #c7ffff",
".w c #c8c8c8",
".K c #c8fefe",
".S c #c8ffff",
".1 c #c9ffff",
".I c #cacaca",
"#. c #caffff",
"#f c #cbffff",
"#i c #ccffff",
".8 c #cdffff",
".Z c #ceffff",
"#u c #cfffff",
"#w c #d2ffff",
".X c #d4ffff",
".7 c #d6ffff",
"#v c #d8fefe",
"#e c #d8ffff",
"#o c #daffff",
"#r c #dcffff",
".z c #dfdfdf",
".R c #e1ffff",
"#l c #e2ffff",
".5 c #e3ffff",
".J c #e4ffff",
"#b c #e5ffff",
".b c #e6e6e6",
".0 c #e7ffff",
".9 c #e9ffff",
".g c #ebebeb",
"#t c #ebffff",
"#g c #ecffff",
".h c #ededed",
"#n c #edffff",
".2 c #eeffff",
".W c #efffff",
"#k c #f1ffff",
".n c #f4f4f4",
"#a c #f4ffff",
".4 c #f6ffff",
"#z c #f8ffff",
"#C c #f9ffff",
".# c #fafafa",
".a c #fbfbfb",
".P c #fcfcfc",
"#B c #fcfefe",
".D c #fefefe",
"QtQtQtQtQtQtQtQtQtQtQtQtQtQtQtQtQtQtQtQtQtQtQtQtQtQtQtQtQtQtQtQt",
"QtQtQtQtQtQtQtQtQtQtQtQtQtQtQtQtQt.#.aQtQtQtQtQtQtQtQtQtQtQtQtQt",
"QtQtQtQtQtQtQtQtQtQtQtQtQtQtQt.b.c.d.e.f.gQtQtQtQtQtQtQtQtQtQtQt",
"QtQtQtQtQtQtQtQtQtQtQtQtQtQt.h.i.j.j.k.l.m.nQtQtQtQtQtQtQtQtQtQt",
"QtQtQtQtQtQtQtQtQtQtQtQtQtQt.o.j.j.p.q.l.l.iQtQtQtQtQtQtQtQtQtQt",
"QtQtQtQtQtQtQtQtQtQtQtQtQtQt.p.j.j.r.l.l.l.sQtQtQtQtQtQtQtQtQtQt",
"QtQtQtQtQtQtQtQtQtQtQtQtQtQt.t.j.j.u.l.l.l.vQtQtQtQtQtQtQtQtQtQt",
"QtQtQtQtQtQtQtQtQtQtQtQtQtQt.w.j.j.x.l.l.y.zQtQtQtQtQtQtQtQtQtQt",
"QtQtQtQtQtQtQtQtQtQtQtQtQtQt.o.j.j.A.l.B.CQtQtQtQtQtQtQtQtQtQtQt",
"QtQtQtQtQtQtQtQtQtQtQtQtQt.D.E.F.G.H.l.IQtQtQtQtQtQtQtQtQtQtQtQt",
"QtQtQtQtQtQtQtQtQtQtQtQtQt.J.K.L.M.N.O.PQtQtQtQtQtQtQtQtQtQtQtQt",
"QtQtQtQtQtQtQtQtQtQtQtQtQt.Q.J.R.S.T.UQtQtQtQtQtQtQtQtQtQtQtQtQt",
"QtQtQtQtQtQtQtQtQtQtQtQtQt.V.W.X.S.Y.ZQtQtQtQtQtQtQtQtQtQtQtQtQt",
"QtQtQtQtQtQtQtQtQtQtQtQt.0.1.2.1.S.3.4QtQtQtQtQtQtQtQtQtQtQtQtQt",
"QtQtQtQtQtQtQtQtQtQtQtQt.Y.J.5.S.S.6QtQtQtQtQtQtQtQtQtQtQtQtQtQt",
"QtQtQtQtQtQtQtQtQtQtQtQt.V.2.7.S.S.8QtQtQtQtQtQtQtQtQtQtQtQtQtQt",
"QtQtQtQtQtQtQtQtQtQtQt.9.Y.W#..S###aQtQtQtQtQtQtQtQtQtQtQtQtQtQt",
"QtQtQtQtQtQtQtQtQtQtQt.S.5#b.S.S#cQtQtQtQtQtQtQtQtQtQtQtQtQtQtQt",
"QtQtQtQtQtQtQtQtQtQtQt#d.2#e.S.S#fQtQtQtQtQtQtQtQtQtQtQtQtQtQtQt",
"QtQtQtQtQtQtQtQtQtQt#g#h.W#i.S#j#kQtQtQtQtQtQtQtQtQtQtQtQtQtQtQt",
"QtQtQtQtQtQtQtQtQtQt.1#l.0.S.S#mQtQtQtQtQtQtQtQtQtQtQtQtQtQtQtQt",
"QtQtQtQtQtQtQtQtQtQt#m#n#o.S.S#.QtQtQtQtQtQtQtQtQtQtQtQtQtQtQtQt",
"QtQtQtQtQtQtQtQtQt.W#p.W.8.S#q.2QtQtQtQtQtQtQtQtQtQtQtQtQtQtQtQt",
"QtQtQtQtQtQtQtQtQt#f.R.9.S.S.VQtQtQtQtQtQtQtQtQtQtQtQtQtQtQtQtQt",
"QtQtQtQtQtQtQtQtQt#c#n#r.S.S.1QtQtQtQtQtQtQtQtQtQtQtQtQtQtQtQtQt",
"QtQtQtQtQtQtQtQtQt#s#t#u.S.V#gQtQtQtQtQtQtQtQtQtQtQtQtQtQtQtQtQt",
"QtQtQtQtQtQtQtQtQt#v#w.S#x#yQtQtQtQtQtQtQtQtQtQtQtQtQtQtQtQtQtQt",
"QtQtQtQtQtQtQtQtQt#z#A##.8#BQtQtQtQtQtQtQtQtQtQtQtQtQtQtQtQtQtQt",
"QtQtQtQtQtQtQtQtQt#C#D#uQtQtQtQtQtQtQtQtQtQtQtQtQtQtQtQtQtQtQtQt",
"QtQtQtQtQtQtQtQtQtQt#qQtQtQtQtQtQtQtQtQtQtQtQtQtQtQtQtQtQtQtQtQt",
"QtQtQtQtQtQtQtQtQtQtQtQtQtQtQtQtQtQtQtQtQtQtQtQtQtQtQtQtQtQtQtQt",
"QtQtQtQtQtQtQtQtQtQtQtQtQtQtQtQtQtQtQtQtQtQtQtQtQtQtQtQtQtQtQtQt"};
