/* XPM */
static char * erase_incident_facets_xpm[] = {
"23 23 5 1",
" 	c None",
".	c #000000000000",
"X	c #FFFF00000000",
"o	c #00000000FFFF",
"O	c #FFFFFFFFFFFF",
"  .     .      .   X   ",
"   .    .      .  XX   ",
"    .   .       .XXX   ",
"   X . .        .XX    ",
"..XXXooo        XXo    ",
"  .XXXoo.......XXoo    ",
"    XXX.......XXXoo.   ",
"     XXX.OOOOXXX...... ",
"     ..XXXOOXXXOOOOO...",
"     ..OXXXOXXOOOOOOO..",
"     ..OOXXXXOO........",
"    ...OOOXXX..OOOO... ",
".   ...OOXXXXXOOOO...  ",
" .  ..O.XXXOXXXO....   ",
" .  ...XXXOOOXXX...    ",
"  ooo..XX......XXX     ",
"  ooo.XX.......oXXX    ",
" .oooXX        ooXXX   ",
".  .XXX        .  XX   ",
"   XXX         .   .   ",
"    .          .    .  ",
"    .         .      . ",
"     .        .       ."};
