/* XPM */
static char * remove_component_xpm[] = {
"23 23 3 1",
" 	c #FFFF00000000",
".	c None",
"X	c #000000000000",
"  .....XX...   ........",
"   ...X.XXX    ........",
"    XX..X.    X........",
".     ...    .X........",
"..X    X    ..X........",
"..XX       .X.X........",
"..X...    ..XX.........",
"..X..      X.X.........",
"..X.     X  XX.........",
"..X    ..     .........",
"..    ...X     ........",
"..   XXXX... ..........",
"..  ............XXX....",
".............XXX..XX...",
"............X.X..X..X..",
"............X..X.X...X.",
"...........X...XX.X..X.",
"...........X..XXX..X.X.",
"...........XXX.XX.X.XX.",
"...........X...X.X...X.",
"...........X..X..X..XX.",
"............XX...XXX...",
"..............XXX......"};
