/* XPM */
static char * seam_ruler_xpm[] = {
"23 23 3 1",
" 	c None",
".	c #FFFF00",
"+	c #000000",
"                       ",
"                .      ",
"               ...     ",
"              .....    ",
"             ++...++   ",
"            .+++...++  ",
"           ...+++...++ ",
"          .....+++.+++ ",
"         .......+++++  ",
"        .....+...+++   ",
"       ++...+++.+++    ",
"      .+++...+++++     ",
"     ...+++...+++      ",
"    .....+++.+++       ",
"   .......+++++        ",
"  .....+...+++         ",
" ++...+++.+++          ",
"  ++...+++++           ",
"   ++...+++            ",
"    ++.+++             ",
"     ++++              ",
"      ++               ",
"                       "};
