/* XPM */
static char * split_facet_xpm[] = {
"23 23 5 1",
" 	c None",
".	c #000000000000",
"X	c #00000000FFFF",
"o	c #FFFFFFFFFFFF",
"O	c #FFFF00000000",
"  .     .      .       ",
"   .    .      .       ",
"    .   .       .      ",
"     . .        .      ",
"..   XXX        XXX    ",
"  ...XXX........XXX    ",
"     XXXooooooooXXX.   ",
"      .o.oooOOOOoooo.  ",
"      .oo.oooOOOooooo. ",
"     .oooo.ooOOOoooooo.",
"     .ooooo.OooOooooo. ",
"    .oooOooO.ooooooo.  ",
".   .oooOOOoo.ooooo.   ",
" .  .oooOOOooo.ooo.    ",
" .  .oooOOOOooo.o.     ",
"  XXXooooooooooXXX     ",
"  XXX..........XXX     ",
" .XXX          XXX     ",
".  .           .  .    ",
"    .          .   .   ",
"    .          .    .  ",
"    .         .      . ",
"     .        .       ."};
