/* XPM */
static char * tool_xpm[] = {
"23 23 3 1",
" 	c None",
".	c #FFFFFF",
"+	c #000000",
"      ..........       ",
"     ..+++..+++..      ",
"     .++++..++++.      ",
"     .+++....+++.      ",
"     .+++.  .+++.      ",
"     ..++....++..      ",
"      .++++++++.       ",
"      ..+++.++..       ",
"       ..+...+..       ",
"      ...++.+++..      ",
"     ..+++++++++..     ",
"    ..++++...++++..    ",
"    .++++.. ..++++.    ",
"    .+++..   ..+++.    ",
"    .+++.     .+++.    ",
"    .+++.     .+++.    ",
"    .+++.     .+++.    ",
"    .+++.     .+++.    ",
"    .+++.     .+++.    ",
"    .+++.     .+++.    ",
"    .+++.     .+++.    ",
"    .+++.     .+++.    ",
"    .....     .....    "};
