/* XPM */
static char * zip_edge_xpm[] = {
"23 23 5 1",
" 	c None",
".	c #00000000FFFF",
"X	c #000000000000",
"o	c #FFFFFFFFFFFF",
"O	c #FFFF00000000",
" ..               .. ..",
" .. .              ....",
"X.X...         ...XX...",
"o...X ..        ...o...",
"oo.oX...     ..XX..oooo",
"oooo...  .  ...Xo...ooo",
"oooo.oX...   ...oo..ooo",
"oooooo..X    X...oooooo",
"oooooo..oX  .....oooooo",
"ooooooooo... X...oOOooo",
"oooooooo... XooooOOOOoo",
"oooooooo.......ooOOOOoo",
"ooooooooooX X..oOOOOOOo",
"oooooooo....X..OOOOOOOO",
"oooooooo.......oooOOooo",
"oooooooo....XoooooOOooo",
"ooooooooooX XoooooOOooo",
"ooooooooooX....oooOOooo",
"oooooooo....X..oooOOooo",
"oooooooo... XoooooOOooo",
"ooooooooooX....oooOOooo",
"oooooooo....X..oooOOooo",
"oooooooo..X X..oooOOooo"};
