/* XPM */
static char * checkerboard_gray_xpm[] = {
"32 32 3 1",
" 	c None",
".	c #575757",
"+	c #FFFFFF",
"................++++++++++++++++",
"................++++++++++++++++",
"................++++++++++++++++",
"................++++++++++++++++",
"................++++++++++++++++",
"................++++++++++++++++",
"................++++++++++++++++",
"................++++++++++++++++",
"................++++++++++++++++",
"................++++++++++++++++",
"................++++++++++++++++",
"................++++++++++++++++",
"................++++++++++++++++",
"................++++++++++++++++",
"................++++++++++++++++",
"................++++++++++++++++",
"++++++++++++++++................",
"++++++++++++++++................",
"++++++++++++++++................",
"++++++++++++++++................",
"++++++++++++++++................",
"++++++++++++++++................",
"++++++++++++++++................",
"++++++++++++++++................",
"++++++++++++++++................",
"++++++++++++++++................",
"++++++++++++++++................",
"++++++++++++++++................",
"++++++++++++++++................",
"++++++++++++++++................",
"++++++++++++++++................",
"++++++++++++++++................"};
